999
libcadmapper 4c06ac5
  0
SECTION
  2
HEADER
  9
$ACADVER
  1
AC1018
  9
$ACADMAINTVER
 70
104
  9
$DWGCODEPAGE
  3
ANSI_1252
  9
$LASTSAVEDBY
  1
unknown
  9
$INSBASE
 10
0.0
 20
0.0
 30
0.0
  9
$EXTMIN
 10
1e+20
 20
1e+20
 30
1e+20
  9
$EXTMAX
 10
-1e+20
 20
-1e+20
 30
-1e+20
  9
$LIMMIN
 10
0.0
 20
0.0
  9
$LIMMAX
 10
12.0
 20
9.0
  9
$ORTHOMODE
 70
0
  9
$REGENMODE
 70
1
  9
$FILLMODE
 70
1
  9
$QTEXTMODE
 70
0
  9
$MIRRTEXT
 70
0
  9
$LTSCALE
 40
1.0
  9
$ATTMODE
 70
1
  9
$TEXTSIZE
 40
0.2
  9
$TRACEWID
 40
0.05
  9
$TEXTSTYLE
  7
Notes
  9
$CLAYER
  8
0
  9
$CELTYPE
  6
ByLayer
  9
$CECOLOR
 62
256
  9
$CELTSCALE
 40
1.0
  9
$DISPSILH
 70
0
  9
$DIMSCALE
 40
1.0
  9
$DIMASZ
 40
3.0
  9
$DIMEXO
 40
1.5
  9
$DIMDLI
 40
6.0
  9
$DIMRND
 40
0.0
  9
$DIMDLE
 40
0.0
  9
$DIMEXE
 40
3.0
  9
$DIMTP
 40
0.0
  9
$DIMTM
 40
0.0
  9
$DIMTXT
 40
3.0
  9
$DIMCEN
 40
3.0
  9
$DIMTSZ
 40
0.0
  9
$DIMTOL
 70
0
  9
$DIMLIM
 70
0
  9
$DIMTIH
 70
0
  9
$DIMTOH
 70
0
  9
$DIMSE1
 70
0
  9
$DIMSE2
 70
0
  9
$DIMTAD
 70
1
  9
$DIMZIN
 70
3
  9
$DIMBLK
  1

  9
$DIMASO
 70
1
  9
$DIMSHO
 70
1
  9
$DIMPOST
  1

  9
$DIMAPOST
  1

  9
$DIMALT
 70
0
  9
$DIMALTD
 70
2
  9
$DIMALTF
 40
25.4
  9
$DIMLFAC
 40
1.0
  9
$DIMTOFL
 70
0
  9
$DIMTVP
 40
0.0
  9
$DIMTIX
 70
0
  9
$DIMSOXD
 70
0
  9
$DIMSAH
 70
0
  9
$DIMBLK1
  1

  9
$DIMBLK2
  1

  9
$DIMSTYLE
  2
Civil-Metric
  9
$DIMCLRD
 70
0
  9
$DIMCLRE
 70
0
  9
$DIMCLRT
 70
0
  9
$DIMTFAC
 40
1.0
  9
$DIMGAP
 40
2.0
  9
$DIMJUST
 70
0
  9
$DIMSD1
 70
0
  9
$DIMSD2
 70
0
  9
$DIMTOLJ
 70
1
  9
$DIMTZIN
 70
0
  9
$DIMALTZ
 70
0
  9
$DIMALTTZ
 70
0
  9
$DIMUPT
 70
0
  9
$DIMDEC
 70
2
  9
$DIMTDEC
 70
2
  9
$DIMALTU
 70
2
  9
$DIMALTTD
 70
2
  9
$DIMTXSTY
  7
Standard
  9
$DIMAUNIT
 70
0
  9
$DIMADEC
 70
2
  9
$DIMALTRND
 40
0.0
  9
$DIMAZIN
 70
2
  9
$DIMDSEP
 70
46
  9
$DIMATFIT
 70
3
  9
$DIMFRAC
 70
1
  9
$DIMLDRBLK
  1

  9
$DIMLUNIT
 70
2
  9
$DIMLWD
 70
-2
  9
$DIMLWE
 70
-2
  9
$DIMTMOVE
 70
0
  9
$LUNITS
 70
2
  9
$LUPREC
 70
4
  9
$SKETCHINC
 40
0.1
  9
$FILLETRAD
 40
0.0
  9
$AUNITS
 70
4
  9
$AUPREC
 70
5
  9
$MENU
  1
.
  9
$ELEVATION
 40
0.0
  9
$PELEVATION
 40
0.0
  9
$THICKNESS
 40
0.0
  9
$LIMCHECK
 70
0
  9
$CHAMFERA
 40
0.0
  9
$CHAMFERB
 40
0.0
  9
$CHAMFERC
 40
0.0
  9
$CHAMFERD
 40
0.0
  9
$SKPOLY
 70
0
  9
$TDCREATE
 40
2455631.34653463
  9
$TDUPDATE
 40
2458141.271863426
  9
$TDINDWG
 40
0.0
  9
$TDUSRTIMER
 40
0.0
  9
$USRTIMER
 70
1
  9
$ANGBASE
 50
0.0
  9
$ANGDIR
 70
0
  9
$PDMODE
 70
0
  9
$PDSIZE
 40
0.0
  9
$PLINEWID
 40
0.0
  9
$SPLFRAME
 70
0
  9
$SPLINETYPE
 70
6
  9
$SPLINESEGS
 70
8
  9
$HANDSEED
  5
1544
  9
$SURFTAB1
 70
6
  9
$SURFTAB2
 70
6
  9
$SURFTYPE
 70
6
  9
$SURFU
 70
6
  9
$SURFV
 70
6
  9
$UCSBASE
  2

  9
$UCSNAME
  2

  9
$UCSORG
 10
0.0
 20
0.0
 30
0.0
  9
$UCSXDIR
 10
1.0
 20
0.0
 30
0.0
  9
$UCSYDIR
 10
0.0
 20
1.0
 30
0.0
  9
$UCSORTHOREF
  2

  9
$UCSORTHOVIEW
 70
0
  9
$UCSORGTOP
 10
0.0
 20
0.0
 30
0.0
  9
$UCSORGBOTTOM
 10
0.0
 20
0.0
 30
0.0
  9
$UCSORGLEFT
 10
0.0
 20
0.0
 30
0.0
  9
$UCSORGRIGHT
 10
0.0
 20
0.0
 30
0.0
  9
$UCSORGFRONT
 10
0.0
 20
0.0
 30
0.0
  9
$UCSORGBACK
 10
0.0
 20
0.0
 30
0.0
  9
$PUCSBASE
  2

  9
$PUCSNAME
  2

  9
$PUCSORG
 10
0.0
 20
0.0
 30
0.0
  9
$PUCSXDIR
 10
1.0
 20
0.0
 30
0.0
  9
$PUCSYDIR
 10
0.0
 20
1.0
 30
0.0
  9
$PUCSORTHOREF
  2

  9
$PUCSORTHOVIEW
 70
0
  9
$PUCSORGTOP
 10
0.0
 20
0.0
 30
0.0
  9
$PUCSORGBOTTOM
 10
0.0
 20
0.0
 30
0.0
  9
$PUCSORGLEFT
 10
0.0
 20
0.0
 30
0.0
  9
$PUCSORGRIGHT
 10
0.0
 20
0.0
 30
0.0
  9
$PUCSORGFRONT
 10
0.0
 20
0.0
 30
0.0
  9
$PUCSORGBACK
 10
0.0
 20
0.0
 30
0.0
  9
$USERI1
 70
0
  9
$USERI2
 70
0
  9
$USERI3
 70
0
  9
$USERI4
 70
0
  9
$USERI5
 70
0
  9
$USERR1
 40
0.0
  9
$USERR2
 40
0.0
  9
$USERR3
 40
0.0
  9
$USERR4
 40
0.0
  9
$USERR5
 40
0.0
  9
$WORLDVIEW
 70
1
  9
$SHADEDGE
 70
3
  9
$SHADEDIF
 70
70
  9
$TILEMODE
 70
1
  9
$MAXACTVP
 70
64
  9
$PINSBASE
 10
0.0
 20
0.0
 30
0.0
  9
$PLIMCHECK
 70
0
  9
$PEXTMIN
 10
0.62886676639706
 20
0.7999999523162842
 30
0.0
  9
$PEXTMAX
 10
9.028866384927335
 20
7.199999570846558
 30
0.0
  9
$PLIMMIN
 10
-0.7005418191744587
 20
-0.2281003861915408
  9
$PLIMMAX
 10
10.29945794052965
 20
8.27189937351257
  9
$UNITMODE
 70
0
  9
$VISRETAIN
 70
1
  9
$PLINEGEN
 70
0
  9
$PSLTSCALE
 70
1
  9
$TREEDEPTH
 70
3020
  9
$CMLSTYLE
  2
Standard
  9
$CMLJUST
 70
0
  9
$CMLSCALE
 40
1.0
  9
$PROXYGRAPHICS
 70
1
  9
$MEASUREMENT
 70
1
  9
$CELWEIGHT
370
-1
  9
$ENDCAPS
280
0
  9
$JOINSTYLE
280
0
  9
$LWDISPLAY
290
0
  9
$INSUNITS
 70
4
  9
$HYPERLINKBASE
  1

  9
$STYLESHEET
  1

  9
$XEDIT
290
1
  9
$CEPSNTYPE
380
0
  9
$PSTYLEMODE
290
1
  9
$FINGERPRINTGUID
  2
{39DB1BDD-BC6C-46D3-A333-DFCC0DC4782D}
  9
$VERSIONGUID
  2
{69EEBB2D-7039-498F-9366-3F994E4A07E7}
  9
$EXTNAMES
290
1
  9
$PSVPSCALE
 40
0.0
  9
$OLESTARTUP
290
0
  9
$SORTENTS
280
127
  9
$INDEXCTL
280
0
  9
$HIDETEXT
280
1
  9
$XCLIPFRAME
290
0
  9
$HALOGAP
280
0
  9
$OBSCOLOR
 70
257
  9
$OBSLTYPE
280
0
  9
$INTERSECTIONDISPLAY
280
0
  9
$INTERSECTIONCOLOR
 70
257
  9
$DIMASSOC
280
2
  9
$PROJECTNAME
  1

  0
ENDSEC
  0
SECTION
  2
CLASSES
  0
CLASS
  1
ACDBDICTIONARYWDFLT
  2
AcDbDictionaryWithDefault
  3
ObjectDBX Classes
 90
0
 91
0
280
0
281
0
  0
CLASS
  1
DICTIONARYVAR
  2
AcDbDictionaryVar
  3
ObjectDBX Classes
 90
0
 91
0
280
0
281
0
  0
CLASS
  1
TABLESTYLE
  2
AcDbTableStyle
  3
ObjectDBX Classes
 90
4095
 91
0
280
0
281
0
  0
CLASS
  1
MATERIAL
  2
AcDbMaterial
  3
ObjectDBX Classes
 90
1153
 91
0
280
0
281
0
  0
CLASS
  1
VISUALSTYLE
  2
AcDbVisualStyle
  3
ObjectDBX Classes
 90
4095
 91
0
280
0
281
0
  0
CLASS
  1
SCALE
  2
AcDbScale
  3
ObjectDBX Classes
 90
1153
 91
0
280
0
281
0
  0
CLASS
  1
MLEADERSTYLE
  2
AcDbMLeaderStyle
  3
ACDB_MLEADERSTYLE_CLASS
 90
4095
 91
0
280
0
281
0
  0
CLASS
  1
CELLSTYLEMAP
  2
AcDbCellStyleMap
  3
ObjectDBX Classes
 90
1152
 91
0
280
0
281
0
  0
CLASS
  1
EXACXREFPANELOBJECT
  2
ExAcXREFPanelObject
  3
EXAC_ESW
 90
1025
 91
0
280
0
281
0
  0
CLASS
  1
NPOCOLLECTION
  2
AcDbImpNonPersistentObjectsCollection
  3
ObjectDBX Classes
 90
1153
 91
0
280
0
281
0
  0
CLASS
  1
LAYER_INDEX
  2
AcDbLayerIndex
  3
ObjectDBX Classes
 90
0
 91
0
280
0
281
0
  0
CLASS
  1
SPATIAL_INDEX
  2
AcDbSpatialIndex
  3
ObjectDBX Classes
 90
0
 91
0
280
0
281
0
  0
CLASS
  1
IDBUFFER
  2
AcDbIdBuffer
  3
ObjectDBX Classes
 90
0
 91
0
280
0
281
0
  0
CLASS
  1
DIMASSOC
  2
AcDbDimAssoc
  3
"AcDbDimAssoc|Product Desc:     AcDim ARX App For Dimension|Company:          Autodesk, Inc.|WEB Address:      www.autodesk.com"
 90
0
 91
0
280
0
281
0
  0
CLASS
  1
IMAGEDEF
  2
AcDbRasterImageDef
  3
ISM
 90
0
 91
0
280
0
281
0
  0
CLASS
  1
RASTERVARIABLES
  2
AcDbRasterVariables
  3
ISM
 90
0
 91
0
280
0
281
0
  0
CLASS
  1
IMAGEDEF_REACTOR
  2
AcDbRasterImageDefReactor
  3
ISM
 90
1
 91
0
280
0
281
0
  0
CLASS
  1
IMAGE
  2
AcDbRasterImage
  3
ISM
 90
2175
 91
0
280
0
281
1
  0
CLASS
  1
PDFDEFINITION
  2
AcDbPdfDefinition
  3
ObjectDBX Classes
 90
1153
 91
0
280
0
281
0
  0
CLASS
  1
PDFUNDERLAY
  2
AcDbPdfReference
  3
ObjectDBX Classes
 90
4095
 91
0
280
0
281
1
  0
CLASS
  1
DWFDEFINITION
  2
AcDbDwfDefinition
  3
ObjectDBX Classes
 90
1153
 91
0
280
0
281
0
  0
CLASS
  1
DWFUNDERLAY
  2
AcDbDwfReference
  3
ObjectDBX Classes
 90
1153
 91
0
280
0
281
1
  0
CLASS
  1
DGNDEFINITION
  2
AcDbDgnDefinition
  3
ObjectDBX Classes
 90
1153
 91
0
280
0
281
0
  0
CLASS
  1
DGNUNDERLAY
  2
AcDbDgnReference
  3
ObjectDBX Classes
 90
1153
 91
0
280
0
281
1
  0
ENDSEC
  0
SECTION
  2
TABLES
  0
TABLE
  2
VPORT
  5
8
330
0
100
AcDbSymbolTable
 70
0
  0
ENDTAB
  0
TABLE
  2
LTYPE
  5
5
330
0
100
AcDbSymbolTable
 70
7
  0
LTYPE
  5
14
330
5
100
AcDbSymbolTableRecord
100
AcDbLinetypeTableRecord
  2
ByBlock
 70
0
  3

 72
65
 73
0
 40
0.0
  0
LTYPE
  5
15
330
5
100
AcDbSymbolTableRecord
100
AcDbLinetypeTableRecord
  2
ByLayer
 70
0
  3

 72
65
 73
0
 40
0.0
  0
LTYPE
  5
16
330
5
100
AcDbSymbolTableRecord
100
AcDbLinetypeTableRecord
  2
Continuous
 70
0
  3
Solid line
 72
65
 73
0
 40
0.0
  0
LTYPE
  5
1B1
330
5
100
AcDbSymbolTableRecord
100
AcDbLinetypeTableRecord
  2
CENTER
 70
0
  3
Center ____ _ ____ _ ____ _ ____ _ ____ _ ____
 72
65
 73
4
 40
2.0
 49
1.25
 74
0
 49
-0.25
 74
0
 49
0.25
 74
0
 49
-0.25
 74
0
  0
LTYPE
  5
1B2
330
5
100
AcDbSymbolTableRecord
100
AcDbLinetypeTableRecord
  2
DASHED
 70
0
  3
Dashed __ __ __ __ __ __ __ __ __ __ __ __ __ _
 72
65
 73
2
 40
0.75
 49
0.5
 74
0
 49
-0.25
 74
0
  0
LTYPE
  5
1B3
330
5
100
AcDbSymbolTableRecord
100
AcDbLinetypeTableRecord
  2
PHANTOM
 70
0
  3
Phantom ______  __  __  ______  __  __  ______
 72
65
 73
6
 40
2.5
 49
1.25
 74
0
 49
-0.25
 74
0
 49
0.25
 74
0
 49
-0.25
 74
0
 49
0.25
 74
0
 49
-0.25
 74
0
  0
LTYPE
  5
39E
330
5
100
AcDbSymbolTableRecord
100
AcDbLinetypeTableRecord
  2
HIDDEN
 70
0
  3
Hidden __ __ __ __ __ __ __ __ __ __ __ __ __ __
 72
65
 73
2
 40
9.525
 49
6.35
 74
0
 49
-3.175
 74
0
  0
ENDTAB
  0
TABLE
  2
LAYER
  5
2
330
0
100
AcDbSymbolTable
 70
3
  0
LAYER
  5
10
330
2
100
AcDbSymbolTableRecord
100
AcDbLayerTableRecord
  2
0
 70
0
 62
7
  6
Continuous
370
-3
390
4DA
  0
LAYER
  5
1B4
330
2
100
AcDbSymbolTableRecord
100
AcDbLayerTableRecord
  2
View Port
 70
0
 62
7
  6
Continuous
290
0
370
-3
390
4DA
  0
LAYER
  5
21D
330
2
100
AcDbSymbolTableRecord
100
AcDbLayerTableRecord
  2
Defpoints
 70
0
 62
7
  6
Continuous
290
0
370
-3
390
4DA
  0
ENDTAB
  0
TABLE
  2
STYLE
  5
3
330
0
100
AcDbSymbolTable
 70
3
  0
STYLE
  5
11
330
3
100
AcDbSymbolTableRecord
100
AcDbTextStyleTableRecord
  2
Standard
 70
0
 40
0.0
 41
1.0
 50
0.0
 71
0
 42
0.2
  3
arial.ttf
  4

  0
STYLE
  5
DC
330
3
100
AcDbSymbolTableRecord
100
AcDbTextStyleTableRecord
  2
Annotative
 70
0
 40
0.0
 41
1.0
 50
0.0
 71
0
 42
0.2
  3
arial.ttf
  4

  0
STYLE
  5
178
330
3
100
AcDbSymbolTableRecord
100
AcDbTextStyleTableRecord
  2
Notes
 70
0
 40
3.0
 41
1.0
 50
0.0
 71
0
 42
0.2
  3
arial.ttf
  4

  0
ENDTAB
  0
TABLE
  2
VIEW
  5
6
330
0
100
AcDbSymbolTable
 70
0
  0
ENDTAB
  0
TABLE
  2
UCS
  5
7
330
0
100
AcDbSymbolTable
 70
0
  0
ENDTAB
  0
TABLE
  2
APPID
  5
9
330
0
100
AcDbSymbolTable
 70
11
  0
APPID
  5
12
330
9
100
AcDbSymbolTableRecord
100
AcDbRegAppTableRecord
  2
ACAD
 70
0
  0
APPID
  5
DD
330
9
100
AcDbSymbolTableRecord
100
AcDbRegAppTableRecord
  2
AcadAnnoPO
 70
0
  0
APPID
  5
DE
330
9
100
AcDbSymbolTableRecord
100
AcDbRegAppTableRecord
  2
AcadAnnotative
 70
0
  0
APPID
  5
DF
330
9
100
AcDbSymbolTableRecord
100
AcDbRegAppTableRecord
  2
ACAD_DSTYLE_DIMJAG
 70
0
  0
APPID
  5
E0
330
9
100
AcDbSymbolTableRecord
100
AcDbRegAppTableRecord
  2
ACAD_DSTYLE_DIMTALN
 70
0
  0
APPID
  5
107
330
9
100
AcDbSymbolTableRecord
100
AcDbRegAppTableRecord
  2
ACAD_MLEADERVER
 70
0
  0
APPID
  5
1B5
330
9
100
AcDbSymbolTableRecord
100
AcDbRegAppTableRecord
  2
AcAecLayerStandard
 70
0
  0
APPID
  5
1BA
330
9
100
AcDbSymbolTableRecord
100
AcDbRegAppTableRecord
  2
ACAD_EXEMPT_FROM_CAD_STANDARDS
 70
0
  0
APPID
  5
237
330
9
100
AcDbSymbolTableRecord
100
AcDbRegAppTableRecord
  2
ACAD_DSTYLE_DIMBREAK
 70
0
  0
APPID
  5
28E
330
9
100
AcDbSymbolTableRecord
100
AcDbRegAppTableRecord
  2
ACAD_PSEXT
 70
0
  0
APPID
  5
49A
330
9
100
AcDbSymbolTableRecord
100
AcDbRegAppTableRecord
  2
HATCHBACKGROUNDCOLOR
 70
0
  0
ENDTAB
  0
TABLE
  2
DIMSTYLE
  5
A
330
0
100
AcDbSymbolTable
 70
3
100
AcDbDimStyleTable
 71
3
340
242
340
27
340
E1
  0
DIMSTYLE
105
27
330
A
100
AcDbSymbolTableRecord
100
AcDbDimStyleTableRecord
  2
Standard
 70
0
 41
3.0
 42
2.0
 43
9.0
 44
5.0
140
3.0
141
2.0
147
2.0
340
11
1001
ACAD_DSTYLE_DIMJAG
1070
388
1040
38.0
1001
ACAD_DSTYLE_DIMBREAK
1070
391
1040
90.0
1001
ACAD_DSTYLE_DIMTALN
1070
392
1070
0
  0
DIMSTYLE
105
E1
330
A
100
AcDbSymbolTableRecord
100
AcDbDimStyleTableRecord
  2
Annotative
 70
0
 40
0.0
 41
3.0
 42
2.5
 43
10.0
 44
5.0
140
3.0
141
2.0
147
2.0
340
11
1001
AcadAnnotative
1000
AnnotativeData
1002
{
1070
1
1070
1
1002
}
1001
ACAD_DSTYLE_DIMJAG
1070
388
1040
38.0
1001
ACAD_DSTYLE_DIMBREAK
1070
391
1040
90.0
1001
ACAD_DSTYLE_DIMTALN
1070
392
1070
0
  0
DIMSTYLE
105
242
330
A
100
AcDbSymbolTableRecord
100
AcDbDimStyleTableRecord
  2
Civil-Metric
 70
0
 41
3.0
 42
1.5
 43
6.0
 44
3.0
 73
0
 74
0
 77
1
 78
3
 79
2
140
3.0
141
3.0
147
2.0
179
2
271
2
272
2
276
1
340
11
1001
ACAD_DSTYLE_DIMBREAK
1070
391
1040
3.0
1001
ACAD_DSTYLE_DIMJAG
1070
388
1040
38.0
1001
ACAD_DSTYLE_DIMTALN
1070
392
1070
0
  0
ENDTAB
  0
TABLE
  2
BLOCK_RECORD
  5
1
330
0
100
AcDbSymbolTable
 70
4
  0
BLOCK_RECORD
  5
1F
330
1
100
AcDbSymbolTableRecord
100
AcDbBlockTableRecord
  2
*Model_Space
340
4DF
  0
BLOCK_RECORD
  5
58
330
1
100
AcDbSymbolTableRecord
100
AcDbBlockTableRecord
  2
*Paper_Space
340
4E0
  0
BLOCK_RECORD
  5
238
330
1
100
AcDbSymbolTableRecord
100
AcDbBlockTableRecord
  2
_ArchTick
340
0
  0
BLOCK_RECORD
  5
23C
330
1
100
AcDbSymbolTableRecord
100
AcDbBlockTableRecord
  2
_Open30
340
0
  0
ENDTAB
  0
ENDSEC
  0
SECTION
  2
BLOCKS
  0
BLOCK
  5
5A
330
58
100
AcDbEntity
 67
1
  8
0
100
AcDbBlockBegin
  2
*Paper_Space
 70
0
 10
0.0
 20
0.0
 30
0.0
  3
*Paper_Space
  1

  0
ENDBLK
  5
5B
330
58
100
AcDbEntity
 67
1
  8
0
100
AcDbBlockEnd
  0
BLOCK
  5
20
330
1F
100
AcDbEntity
  8
0
100
AcDbBlockBegin
  2
*Model_Space
 70
0
 10
0.0
 20
0.0
 30
0.0
  3
*Model_Space
  1

  0
ENDBLK
  5
21
330
1F
100
AcDbEntity
  8
0
100
AcDbBlockEnd
  0
BLOCK
  5
23A
330
238
100
AcDbEntity
  8
0
100
AcDbBlockBegin
  2
_ArchTick
 70
0
 10
0.0
 20
0.0
 30
0.0
  3
_ArchTick
  1

  0
LWPOLYLINE
  5
239
330
238
100
AcDbEntity
  8
0
  6
ByBlock
 62
0
100
AcDbPolyline
 90
2
 70
0
 43
0.15
 10
-0.5
 20
-0.5
 10
0.5
 20
0.5
  0
ENDBLK
  5
23B
330
238
100
AcDbEntity
  8
0
100
AcDbBlockEnd
  0
BLOCK
  5
240
330
23C
100
AcDbEntity
  8
0
100
AcDbBlockBegin
  2
_Open30
 70
0
 10
0.0
 20
0.0
 30
0.0
  3
_Open30
  1

  0
LINE
  5
23D
330
23C
100
AcDbEntity
  8
0
  6
ByBlock
 62
0
370
-2
100
AcDbLine
 10
-1.0
 20
0.26794919
 30
0.0
 11
0.0
 21
0.0
 31
0.0
  0
LINE
  5
23E
330
23C
100
AcDbEntity
  8
0
  6
ByBlock
 62
0
370
-2
100
AcDbLine
 10
0.0
 20
0.0
 30
0.0
 11
-1.0
 21
-0.26794919
 31
0.0
  0
LINE
  5
23F
330
23C
100
AcDbEntity
  8
0
  6
ByBlock
 62
0
370
-2
100
AcDbLine
 10
0.0
 20
0.0
 30
0.0
 11
-1.0
 21
0.0
 31
0.0
  0
ENDBLK
  5
241
330
23C
100
AcDbEntity
  8
0
100
AcDbBlockEnd
  0
ENDSEC
  0
SECTION
  2
ENTITIES
0
LWPOLYLINE
  5
1389
330
1F
  100
AcDbEntity
8
paths
  100
AcDbPolyline
70
0
38
0.0000
90
2
10
666.5218
20
988.0625
10
659.0377
20
956.5448
0
LWPOLYLINE
  5
138a
330
1F
  100
AcDbEntity
8
paths
  100
AcDbPolyline
70
0
38
0.0000
90
2
10
652.1748
20
746.1363
10
665.1696
20
722.0070
0
LWPOLYLINE
  5
138b
330
1F
  100
AcDbEntity
8
paths
  100
AcDbPolyline
70
0
38
0.0000
90
4
10
429.0802
20
820.9752
10
454.9218
20
817.5109
10
463.6386
20
815.1840
10
467.5815
20
812.9061
0
LWPOLYLINE
  5
138c
330
1F
  100
AcDbEntity
8
paths
  100
AcDbPolyline
70
0
38
0.0000
90
2
10
456.3842
20
781.4444
10
420.8612
20
788.1837
0
LWPOLYLINE
  5
138d
330
1F
  100
AcDbEntity
8
buildings
  100
AcDbPolyline
70
0
38
0.0000
90
21
10
152.7807
20
637.5441
10
153.5965
20
642.7579
10
156.5684
20
648.0981
10
156.8126
20
652.3043
10
160.7665
20
651.3047
10
170.3672
20
652.2901
10
173.7083
20
652.0821
10
178.8525
20
649.5074
10
183.9987
20
649.2091
10
182.9397
20
642.6346
10
183.7480
20
636.9421
10
182.0430
20
630.1971
10
180.0317
20
626.7168
10
180.2122
20
622.2726
10
177.1270
20
624.7094
10
171.3547
20
622.2537
10
162.2697
20
621.4717
10
157.4671
20
626.1661
10
153.5509
20
625.2917
10
154.8665
20
629.4023
10
152.7807
20
637.5441
0
LWPOLYLINE
  5
138e
330
1F
  100
AcDbEntity
8
paths
  100
AcDbPolyline
70
0
38
0.0000
90
3
10
214.7891
20
661.0190
10
237.3432
20
655.2443
10
326.6975
20
686.8730
0
LWPOLYLINE
  5
138f
330
1F
  100
AcDbEntity
8
minor_roads
  100
AcDbPolyline
70
0
38
0.0000
90
5
10
419.3248
20
988.6419
10
409.0472
20
976.7930
10
405.8418
20
971.4262
10
399.8015
20
937.8944
10
404.0999
20
917.5756
0
LWPOLYLINE
  5
1390
330
1F
  100
AcDbEntity
8
buildings
  100
AcDbPolyline
70
0
38
0.0000
90
32
10
133.0396
20
840.5509
10
134.2697
20
854.4639
10
138.9078
20
867.9099
10
145.5446
20
877.4935
10
151.3534
20
883.4955
10
159.2687
20
888.6242
10
167.9596
20
892.6493
10
179.3195
20
895.6515
10
196.9817
20
895.6597
10
206.6309
20
893.5308
10
220.8565
20
889.1352
10
228.9143
20
884.1555
10
240.2484
20
876.2788
10
251.4392
20
861.6523
10
261.0147
20
844.5474
10
262.9726
20
836.3735
10
264.3187
20
829.6723
10
262.6874
20
822.1181
10
258.9797
20
814.6920
10
250.2297
20
806.7277
10
238.3268
20
797.3450
10
227.5906
20
792.4972
10
214.3906
20
788.1380
10
200.3481
20
786.9233
10
186.4381
20
787.2243
10
176.2017
20
790.0711
10
166.3037
20
794.0578
10
157.3378
20
798.2616
10
148.1049
20
804.8917
10
140.4142
20
816.0596
10
135.5196
20
827.8879
10
133.0396
20
840.5509
0
LWPOLYLINE
  5
1391
330
1F
  100
AcDbEntity
8
buildings
  100
AcDbPolyline
70
0
38
0.0000
90
17
10
146.4305
20
853.0794
10
150.1816
20
865.8246
10
158.5371
20
876.1641
10
170.2207
20
882.5541
10
183.4637
20
883.9759
10
196.2471
20
880.2421
10
206.6153
20
871.9233
10
213.0072
20
860.2652
10
214.4428
20
847.0550
10
210.6976
20
834.3099
10
202.3428
20
823.9517
10
190.6526
20
817.5801
10
177.4156
20
816.1492
10
164.6320
20
819.8830
10
154.2577
20
828.2110
10
147.8659
20
839.8692
10
146.4305
20
853.0794
0
LWPOLYLINE
  5
1392
330
1F
  100
AcDbEntity
8
buildings
  100
AcDbPolyline
70
0
38
0.0000
90
15
10
38.6695
20
669.9308
10
61.1029
20
696.4219
10
100.9678
20
671.5923
10
152.2364
20
657.4353
10
198.8392
20
646.6714
10
193.0741
20
613.1023
10
99.1677
20
636.1284
10
95.4324
20
628.4589
10
88.1984
20
631.5718
10
90.1415
20
638.3991
10
63.5144
20
652.4192
10
58.3722
20
645.0489
10
51.5010
20
649.6385
10
56.8855
20
658.3974
10
38.6695
20
669.9308
0
LWPOLYLINE
  5
1393
330
1F
  100
AcDbEntity
8
paths
  100
AcDbPolyline
70
0
38
0.0000
90
5
10
442.2437
20
876.1139
10
451.9875
20
914.6743
10
463.7256
20
969.5892
10
467.4378
20
996.7662
10
469.8215
20
1009.3301
0
LWPOLYLINE
  5
1394
330
1F
  100
AcDbEntity
8
buildings
  100
AcDbPolyline
70
0
38
0.0000
90
21
10
65.7445
20
654.4139
10
68.4582
20
657.7771
10
69.4595
20
666.1223
10
72.1043
20
670.6961
10
76.8020
20
674.6000
10
78.5552
20
678.4357
10
81.8838
20
676.0908
10
89.3565
20
675.5512
10
95.0659
20
672.7429
10
98.2984
20
668.4917
10
102.7900
20
665.7649
10
99.4263
20
660.0201
10
98.1241
20
654.4172
10
94.0950
20
648.7346
10
90.9542
20
646.2250
10
89.5132
20
641.9984
10
87.5183
20
645.3851
10
81.2498
20
645.1804
10
73.0218
20
648.3542
10
69.7146
20
653.8158
10
65.7445
20
654.4139
0
LWPOLYLINE
  5
1395
330
1F
  100
AcDbEntity
8
buildings
  100
AcDbPolyline
70
0
38
0.0000
90
32
10
126.8219
20
840.9541
10
128.2808
20
855.7703
10
133.5434
20
869.6845
10
142.2287
20
881.7886
10
153.7658
20
891.2245
10
167.3592
20
897.3690
10
182.0780
20
899.7906
10
196.6002
20
899.2484
10
211.2997
20
896.6968
10
223.9560
20
892.3619
10
233.6532
20
886.0737
10
244.3948
20
877.6459
10
255.7755
20
864.5743
10
263.0024
20
852.5144
10
266.8724
20
845.1028
10
269.4318
20
836.4821
10
270.4712
20
828.2129
10
269.0245
20
820.2169
10
264.3464
20
812.3112
10
255.1558
20
803.1011
10
242.1951
20
793.2173
10
229.6734
20
787.3222
10
216.5030
20
783.6730
10
199.1010
20
781.9753
10
184.4756
20
782.2529
10
173.3883
20
784.9133
10
162.2983
20
789.2715
10
152.9721
20
793.9020
10
143.8062
20
801.3553
10
135.4046
20
812.7239
10
129.2445
20
826.2742
10
126.8219
20
840.9541
0
LWPOLYLINE
  5
1396
330
1F
  100
AcDbEntity
8
paths
  100
AcDbPolyline
70
0
38
0.0000
90
10
10
765.4134
20
934.1154
10
769.9841
20
958.3353
10
771.2648
20
965.1039
10
738.9422
20
972.1791
10
714.6420
20
977.5211
10
666.5218
20
988.0625
10
644.6342
20
992.8682
10
593.6034
20
1003.7533
10
581.5267
20
1006.1565
10
552.0160
20
1012.0218
0
LWPOLYLINE
  5
1397
330
1F
  100
AcDbEntity
8
paths
  100
AcDbPolyline
70
0
38
0.0000
90
9
10
743.6005
20
813.3016
10
723.9052
20
817.4605
10
707.0823
20
821.0232
10
635.1914
20
836.2714
10
628.1454
20
837.7665
10
548.1691
20
854.7194
10
530.6351
20
858.3154
10
523.1620
20
870.8800
10
463.7256
20
969.5892
0
LWPOLYLINE
  5
1398
330
1F
  100
AcDbEntity
8
paths
  100
AcDbPolyline
70
0
38
0.0000
90
9
10
713.7387
20
671.7086
10
693.2843
20
676.0853
10
676.2586
20
679.7348
10
596.5812
20
696.7996
10
587.3057
20
698.7908
10
526.2210
20
711.8757
10
486.0913
20
717.1202
10
458.4658
20
710.5061
10
404.5052
20
697.6659
0
LWPOLYLINE
  5
1399
330
1F
  100
AcDbEntity
8
paths
  100
AcDbPolyline
70
0
38
0.0000
90
10
10
657.3680
20
510.2990
10
684.8557
20
637.1944
10
689.0880
20
656.7197
10
693.2843
20
676.0853
10
701.5632
20
714.5236
10
705.9025
20
734.3604
10
715.4113
20
778.2501
10
719.7147
20
798.1044
10
723.9052
20
817.4605
10
750.6485
20
937.2230
0
LWPOLYLINE
  5
139a
330
1F
  100
AcDbEntity
8
paths
  100
AcDbPolyline
70
0
38
0.0000
90
2
10
714.6420
20
977.5211
10
708.2273
20
946.1597
0
LWPOLYLINE
  5
139b
330
1F
  100
AcDbEntity
8
minor_roads
  100
AcDbPolyline
70
0
38
0.0000
90
2
10
774.2456
20
1019.2993
10
772.4695
20
1011.9494
0
LWPOLYLINE
  5
139c
330
1F
  100
AcDbEntity
8
paths
  100
AcDbPolyline
70
0
38
0.0000
90
3
10
723.8028
20
719.6096
10
764.4659
20
711.7161
10
774.0955
20
709.8489
0
LWPOLYLINE
  5
139d
330
1F
  100
AcDbEntity
8
buildings
  100
AcDbPolyline
70
0
38
0.0000
90
5
10
717.3033
20
641.0476
10
721.2174
20
658.2768
10
740.8456
20
653.8545
10
736.9319
20
636.6159
10
717.3033
20
641.0476
0
LWPOLYLINE
  5
139e
330
1F
  100
AcDbEntity
8
buildings
  100
AcDbPolyline
70
0
38
0.0000
90
7
10
777.6822
20
682.2859
10
780.1923
20
693.2744
10
782.7117
20
692.7040
10
787.9042
20
691.5309
10
790.1403
20
691.0071
10
787.6302
20
680.0186
10
777.6822
20
682.2859
0
LWPOLYLINE
  5
139f
330
1F
  100
AcDbEntity
8
paths
  100
AcDbPolyline
70
0
38
0.0000
90
5
10
769.9841
20
958.3353
10
776.0191
20
957.0592
10
894.5018
20
931.5123
10
895.6045
20
924.0289
10
909.4225
20
906.3180
0
LWPOLYLINE
  5
13a0
330
1F
  100
AcDbEntity
8
paths
  100
AcDbPolyline
70
0
38
0.0000
90
6
10
950.0060
20
816.9676
10
967.5978
20
814.3079
10
987.9731
20
809.2953
10
1006.5189
20
802.2542
10
1007.5832
20
801.8413
10
1011.4428
20
799.5262
0
LWPOLYLINE
  5
13a1
330
1F
  100
AcDbEntity
8
minor_roads
  100
AcDbPolyline
70
0
38
0.0000
90
7
10
937.5337
20
823.5366
10
950.1796
20
822.9442
10
959.0043
20
822.5249
10
978.7746
20
818.7705
10
999.1508
20
813.9073
10
1009.8575
20
808.9131
10
1011.1543
20
808.3096
0
LWPOLYLINE
  5
13a2
330
1F
  100
AcDbEntity
8
paths
  100
AcDbPolyline
70
0
38
0.0000
90
2
10
841.9886
20
790.9288
10
855.4601
20
773.9434
0
LWPOLYLINE
  5
13a3
330
1F
  100
AcDbEntity
8
paths
  100
AcDbPolyline
70
0
38
0.0000
90
3
10
886.0039
20
749.9240
10
894.9110
20
737.3417
10
903.7168
20
724.6254
0
LWPOLYLINE
  5
13a4
330
1F
  100
AcDbEntity
8
paths
  100
AcDbPolyline
70
0
38
0.0000
90
19
10
883.5681
20
702.3383
10
888.8539
20
710.8431
10
889.5894
20
712.0427
10
893.0174
20
715.6258
10
897.7108
20
720.5379
10
903.7168
20
724.6254
10
909.5505
20
728.5953
10
921.0307
20
734.3739
10
931.0814
20
737.2042
10
941.5408
20
738.3126
10
951.6629
20
738.0758
10
953.7342
20
752.7631
10
955.8110
20
768.7101
10
960.8817
20
803.0692
10
961.6074
20
807.9630
10
952.1678
20
809.2298
10
948.8247
20
809.5025
10
943.7502
20
809.9423
10
936.5498
20
810.4150
0
LWPOLYLINE
  5
13a5
330
1F
  100
AcDbEntity
8
buildings
  100
AcDbPolyline
70
0
38
0.0000
90
4
10
868.7025
20
1022.3925
10
870.8507
20
1022.4629
10
868.8827
20
1017.9862
10
868.7025
20
1022.3925
0
LWPOLYLINE
  5
13a6
330
1F
  100
AcDbEntity
8
paths
  100
AcDbPolyline
70
0
38
0.0000
90
20
10
962.3703
20
648.1365
10
969.5364
20
656.2272
10
973.6109
20
666.2223
10
974.1854
20
676.6155
10
971.4078
20
686.6562
10
965.5538
20
695.2803
10
957.2457
20
701.5942
10
947.3568
20
704.9173
10
936.9134
20
704.9290
10
927.0196
20
701.6094
10
918.7026
20
695.3189
10
912.8335
20
686.7017
10
910.0341
20
676.6646
10
910.6754
20
665.8914
10
914.8531
20
655.9340
10
922.0957
20
647.9245
10
931.5875
20
642.7503
10
942.2703
20
640.9926
10
952.9280
20
642.8632
10
962.3703
20
648.1365
0
LWPOLYLINE
  5
13a7
330
1F
  100
AcDbEntity
8
buildings
  100
AcDbPolyline
70
0
38
0.0000
90
7
10
952.8827
20
855.5742
10
952.8506
20
876.3966
10
968.7151
20
875.3875
10
983.7552
20
873.0265
10
980.0780
20
853.6217
10
966.7800
20
855.1256
10
952.8827
20
855.5742
0
LWPOLYLINE
  5
13a8
330
1F
  100
AcDbEntity
8
minor_roads
  100
AcDbPolyline
70
0
38
0.0000
90
6
10
997.3465
20
676.1633
10
995.1745
20
689.7503
10
989.6999
20
702.3706
10
981.2597
20
713.2422
10
970.3807
20
721.6920
10
957.8606
20
727.2052
0
LWPOLYLINE
  5
13a9
330
1F
  100
AcDbEntity
8
buildings
  100
AcDbPolyline
70
0
38
0.0000
90
15
10
793.7574
20
768.9989
10
800.2486
20
780.8457
10
815.2758
20
799.1020
10
832.5617
20
815.2494
10
851.8156
20
829.0171
10
872.6997
20
840.1514
10
886.3611
20
845.2832
10
892.9858
20
828.5489
10
880.1652
20
823.7339
10
861.3577
20
813.7126
10
844.0249
20
801.3234
10
828.4650
20
786.7813
10
814.9398
20
770.3375
10
810.9913
20
765.0861
10
793.7574
20
768.9989
0
LWPOLYLINE
  5
13aa
330
1F
  100
AcDbEntity
8
buildings
  100
AcDbPolyline
70
0
38
0.0000
90
9
10
776.6437
20
694.0817
10
778.0666
20
700.2764
10
795.2947
20
696.3634
10
793.8777
20
690.1688
10
790.1403
20
691.0071
10
787.9042
20
691.5309
10
782.7117
20
692.7040
10
780.1923
20
693.2744
10
776.6437
20
694.0817
0
LWPOLYLINE
  5
13ab
330
1F
  100
AcDbEntity
8
buildings
  100
AcDbPolyline
70
0
38
0.0000
90
12
10
785.0523
20
730.8730
10
788.7735
20
747.1724
10
791.4637
20
758.9318
10
793.7574
20
768.9989
10
810.9913
20
765.0861
10
806.0071
20
743.2689
10
802.2804
20
726.9600
10
798.5485
20
727.8078
10
796.3071
20
728.3127
10
791.1205
20
729.4861
10
788.6009
20
730.0658
10
785.0523
20
730.8730
0
LWPOLYLINE
  5
13ac
330
1F
  100
AcDbEntity
8
major_roads
  100
AcDbPolyline
70
0
38
0.0000
90
3
10
931.4339
20
1024.4468
10
925.5800
20
974.3380
10
923.2579
20
952.2721
0
LWPOLYLINE
  5
13ad
330
1F
  100
AcDbEntity
8
minor_roads
  100
AcDbPolyline
70
0
38
0.0000
90
15
10
886.8780
20
674.1040
10
888.4355
20
661.3457
10
892.9110
20
649.2896
10
900.0655
20
638.5996
10
909.5041
20
629.8598
10
920.7186
20
623.5293
10
934.0011
20
619.8324
10
947.7889
20
619.5200
10
961.2178
20
622.6291
10
973.4609
20
628.9553
10
983.7562
20
638.1098
10
991.4531
20
649.5206
10
995.7432
20
661.5286
10
996.0820
20
662.4727
10
997.3465
20
676.1633
0
LWPOLYLINE
  5
13ae
330
1F
  100
AcDbEntity
8
major_roads
  100
AcDbPolyline
70
0
38
0.0000
90
8
10
671.4257
20
999.8011
10
780.2736
20
975.8857
10
902.6208
20
949.0104
10
922.2090
20
944.7088
10
931.3376
20
942.7134
10
953.7288
20
937.7855
10
997.6355
20
928.1439
10
1007.2882
20
926.0247
0
LWPOLYLINE
  5
13af
330
1F
  100
AcDbEntity
8
buildings
  100
AcDbPolyline
70
0
38
0.0000
90
9
10
644.1203
20
20.0283
10
628.7782
20
19.5259
10
630.0464
20
25.2982
10
632.4232
20
24.7883
10
633.2407
20
28.5095
10
643.7241
20
26.2408
10
642.9070
20
22.5102
10
644.5860
20
22.1547
10
644.1203
20
20.0283
0
LWPOLYLINE
  5
13b0
330
1F
  100
AcDbEntity
8
water
  100
AcDbPolyline
70
0
38
0.0000
90
21
10
422.8109
20
602.7035
10
426.7802
20
611.4632
10
433.6086
20
617.1631
10
441.7790
20
619.3430
10
448.7966
20
618.9010
10
457.1864
20
614.3803
10
461.7923
20
607.8139
10
464.3471
20
601.3202
10
465.6438
20
595.0653
10
468.6127
20
592.4196
10
474.2689
20
591.7838
10
478.0467
20
589.7151
10
480.1403
20
584.5778
10
478.3875
20
579.3053
10
471.9541
20
574.4486
10
463.6252
20
572.8045
10
451.2488
20
573.2203
10
439.0314
20
577.2053
10
427.9172
20
585.3313
10
423.4240
20
592.5825
10
422.8109
20
602.7035
0
LWPOLYLINE
  5
13b1
330
1F
  100
AcDbEntity
8
paths
  100
AcDbPolyline
70
0
38
0.0000
90
3
10
1012.8120
20
451.5597
10
1018.7787
20
441.1200
10
1023.6298
20
428.4606
0
LWPOLYLINE
  5
13b2
330
1F
  100
AcDbEntity
8
paths
  100
AcDbPolyline
70
0
38
0.0000
90
3
10
862.3526
20
599.4936
10
852.9196
20
591.0674
10
842.3058
20
581.5949
0
LWPOLYLINE
  5
13b3
330
1F
  100
AcDbEntity
8
paths
  100
AcDbPolyline
70
0
38
0.0000
90
4
10
831.2138
20
126.9601
10
829.2458
20
115.1871
10
825.7232
20
93.1752
10
826.2656
20
91.4951
0
LWPOLYLINE
  5
13b4
330
1F
  100
AcDbEntity
8
paths
  100
AcDbPolyline
70
0
38
0.0000
90
8
10
837.9355
20
274.4370
10
858.3692
20
271.4596
10
861.6837
20
269.2080
10
863.7742
20
264.5372
10
857.0656
20
178.4206
10
854.9673
20
151.4735
10
851.4082
20
141.6728
10
847.1709
20
133.5757
0
LWPOLYLINE
  5
13b5
330
1F
  100
AcDbEntity
8
paths
  100
AcDbPolyline
70
0
38
0.0000
90
3
10
953.7291
20
570.1847
10
955.6169
20
557.7452
10
958.4106
20
539.3459
0
LWPOLYLINE
  5
13b6
330
1F
  100
AcDbEntity
8
paths
  100
AcDbPolyline
70
0
38
0.0000
90
9
10
926.0565
20
570.0040
10
925.8293
20
558.1481
10
925.8300
20
538.4536
10
937.7174
20
538.0974
10
942.1362
20
538.3264
10
954.0792
20
538.9611
10
958.4106
20
539.3459
10
967.2077
20
540.1385
10
982.0983
20
543.4356
0
LWPOLYLINE
  5
13b7
330
1F
  100
AcDbEntity
8
paths
  100
AcDbPolyline
70
0
38
0.0000
90
3
10
1002.5096
20
586.8723
10
1008.7926
20
576.8068
10
1019.3095
20
560.0026
0
LWPOLYLINE
  5
13b8
330
1F
  100
AcDbEntity
8
paths
  100
AcDbPolyline
70
0
38
0.0000
90
9
10
851.8531
20
395.2719
10
836.7101
20
287.8126
10
836.2600
20
282.5640
10
837.9355
20
274.4370
10
838.5365
20
271.5086
10
831.4198
20
185.8265
10
831.9981
20
182.5149
10
833.0188
20
176.6335
10
830.6286
20
144.2657
0
LWPOLYLINE
  5
13b9
330
1F
  100
AcDbEntity
8
paths
  100
AcDbPolyline
70
0
38
0.0000
90
2
10
909.7297
20
118.0330
10
1034.7157
20
90.9233
0
LWPOLYLINE
  5
13ba
330
1F
  100
AcDbEntity
8
parks
  100
AcDbPolyline
70
0
38
0.0000
90
10
10
1022.0278
20
477.2390
10
1024.2131
20
410.6995
10
921.2508
20
433.1226
10
901.7881
20
461.0880
10
907.6999
20
475.2110
10
926.0670
20
484.5555
10
927.0192
20
462.5226
10
956.0280
20
462.9710
10
976.7341
20
463.2963
10
1022.0278
20
477.2390
0
LWPOLYLINE
  5
13bb
330
1F
  100
AcDbEntity
8
paths
  100
AcDbPolyline
70
0
38
0.0000
90
2
10
1026.4311
20
343.1676
10
996.4056
20
376.0678
0
LWPOLYLINE
  5
13bc
330
1F
  100
AcDbEntity
8
minor_roads
  100
AcDbPolyline
70
0
38
0.0000
90
3
10
813.1150
20
297.3291
10
834.4384
20
298.5416
10
841.5294
20
357.6153
0
LWPOLYLINE
  5
13bd
330
1F
  100
AcDbEntity
8
minor_roads
  100
AcDbPolyline
70
0
38
0.0000
90
7
10
766.7887
20
596.6759
10
775.8646
20
584.4907
10
789.1291
20
562.9082
10
804.2304
20
542.5988
10
822.7334
20
524.8920
10
836.5441
20
514.9427
10
855.6628
20
501.3798
0
LWPOLYLINE
  5
13be
330
1F
  100
AcDbEntity
8
buildings
  100
AcDbPolyline
70
0
38
0.0000
90
12
10
1020.2406
20
531.6531
10
1020.9560
20
509.8727
10
1001.5964
20
502.5969
10
978.5317
20
497.2308
10
954.9616
20
494.9175
10
931.2846
20
495.6796
10
931.8202
20
515.1305
10
954.2992
20
515.0941
10
975.5108
20
517.1807
10
996.2801
20
522.0143
10
1016.2337
20
529.5174
10
1020.2406
20
531.6531
0
LWPOLYLINE
  5
13bf
330
1F
  100
AcDbEntity
8
buildings
  100
AcDbPolyline
70
0
38
0.0000
90
16
10
1029.7178
20
243.0971
10
1031.9151
20
176.1942
10
1028.7484
20
179.5592
10
1024.6478
20
175.7114
10
1018.7046
20
182.0282
10
1023.1186
20
186.1662
10
1010.6120
20
199.4512
10
1006.1008
20
195.2354
10
1000.5893
20
201.0999
10
1005.0833
20
205.3058
10
999.9368
20
210.7811
10
1025.3000
20
234.5086
10
1018.6515
20
241.5673
10
1024.5347
20
247.0876
10
1028.9628
20
242.3910
10
1029.7178
20
243.0971
0
LWPOLYLINE
  5
13c0
330
1F
  100
AcDbEntity
8
major_roads
  100
AcDbPolyline
70
0
38
0.0000
90
7
10
862.4620
20
27.1775
10
865.2857
20
63.5086
10
866.0766
20
84.4978
10
868.2556
20
107.0160
10
870.2642
20
127.5695
10
890.5846
20
389.0792
10
892.0538
20
407.9916
0
LWPOLYLINE
  5
13c1
330
1F
  100
AcDbEntity
8
buildings
  100
AcDbPolyline
70
0
38
0.0000
90
5
10
556.5977
20
266.8760
10
559.1101
20
279.4318
10
588.9506
20
273.5147
10
586.4447
20
260.9405
10
556.5977
20
266.8760
0
LWPOLYLINE
  5
13c2
330
1F
  100
AcDbEntity
8
buildings
  100
AcDbPolyline
70
0
38
0.0000
90
5
10
452.5782
20
119.5452
10
453.6148
20
124.6450
10
457.6631
20
123.8259
10
456.6326
20
118.7169
10
452.5782
20
119.5452
0
LWPOLYLINE
  5
13c3
330
1F
  100
AcDbEntity
8
buildings
  100
AcDbPolyline
70
0
38
0.0000
90
9
10
451.4043
20
125.0951
10
454.5145
20
140.3852
10
477.1256
20
135.8168
10
475.3205
20
126.9321
10
474.0155
20
120.5267
10
472.2073
20
120.8874
10
457.6631
20
123.8259
10
453.6148
20
124.6450
10
451.4043
20
125.0951
0
LWPOLYLINE
  5
13c4
330
1F
  100
AcDbEntity
8
buildings
  100
AcDbPolyline
70
0
38
0.0000
90
9
10
474.0155
20
120.5267
10
475.3205
20
126.9321
10
507.6888
20
120.3976
10
506.2781
20
113.4569
10
517.2410
20
111.2409
10
515.3649
20
102.0180
10
499.8987
20
105.1408
10
501.8809
20
114.8896
10
474.0155
20
120.5267
0
LWPOLYLINE
  5
13c5
330
1F
  100
AcDbEntity
8
paths
  100
AcDbPolyline
70
0
38
0.0000
90
3
10
245.6133
20
204.1946
10
251.6463
20
203.0017
10
256.3266
20
202.0632
0
LWPOLYLINE
  5
13c6
330
1F
  100
AcDbEntity
8
minor_roads
  100
AcDbPolyline
70
0
38
0.0000
90
3
10
511.2800
20
319.1203
10
517.1194
20
332.8019
10
526.1807
20
382.9086
0
LWPOLYLINE
  5
13c7
330
1F
  100
AcDbEntity
8
minor_roads
  100
AcDbPolyline
70
0
38
0.0000
90
5
10
292.6912
20
96.2623
10
289.2668
20
77.6408
10
286.3213
20
61.6098
10
282.7771
20
42.3407
10
328.8831
20
32.7649
0
LWPOLYLINE
  5
13c8
330
1F
  100
AcDbEntity
8
paths
  100
AcDbPolyline
70
0
38
0.0000
90
4
10
634.6108
20
235.2205
10
669.4944
20
240.9537
10
686.2703
20
243.7146
10
716.0807
20
248.0410
0
LWPOLYLINE
  5
13c9
330
1F
  100
AcDbEntity
8
paths
  100
AcDbPolyline
70
0
38
0.0000
90
3
10
70.5917
20
302.5084
10
217.2391
20
283.4441
10
234.3774
20
281.0469
0
LWPOLYLINE
  5
13ca
330
1F
  100
AcDbEntity
8
paths
  100
AcDbPolyline
70
0
38
0.0000
90
3
10
170.0934
20
376.2984
10
229.4492
20
290.2899
10
234.3774
20
281.0469
0
LWPOLYLINE
  5
13cb
330
1F
  100
AcDbEntity
8
minor_roads
  100
AcDbPolyline
70
0
38
0.0000
90
3
10
306.6899
20
391.6698
10
322.0339
20
387.9454
10
333.9289
20
385.9275
0
LWPOLYLINE
  5
13cc
330
1F
  100
AcDbEntity
8
minor_roads
  100
AcDbPolyline
70
0
38
0.0000
90
8
10
333.9289
20
385.9275
10
348.5095
20
383.4656
10
367.6830
20
380.2212
10
358.5109
20
350.5054
10
343.9782
20
346.6528
10
329.1571
20
348.3884
10
326.4461
20
348.7102
10
333.9289
20
385.9275
0
LWPOLYLINE
  5
13cd
330
1F
  100
AcDbEntity
8
minor_roads
  100
AcDbPolyline
70
0
38
0.0000
90
6
10
323.8908
20
472.6054
10
340.1037
20
469.5905
10
348.8731
20
467.1066
10
355.2119
20
497.2894
10
369.0452
20
493.6183
10
348.5095
20
383.4656
0
LWPOLYLINE
  5
13ce
330
1F
  100
AcDbEntity
8
minor_roads
  100
AcDbPolyline
70
0
38
0.0000
90
2
10
348.8731
20
467.1066
10
333.9289
20
385.9275
0
LWPOLYLINE
  5
13cf
330
1F
  100
AcDbEntity
8
minor_roads
  100
AcDbPolyline
70
0
38
0.0000
90
3
10
553.9499
20
583.4216
10
544.3001
20
534.4618
10
541.8434
20
522.0011
0
LWPOLYLINE
  5
13d0
330
1F
  100
AcDbEntity
8
buildings
  100
AcDbPolyline
70
0
38
0.0000
90
7
10
415.3389
20
387.7793
10
425.6405
20
486.2901
10
484.6718
20
473.2393
10
487.0827
20
468.6348
10
467.2120
20
369.8012
10
431.3475
20
363.5708
10
415.3389
20
387.7793
0
LWPOLYLINE
  5
13d1
330
1F
  100
AcDbEntity
8
major_roads
  100
AcDbPolyline
70
0
38
0.0000
90
6
10
403.3884
20
204.3634
10
324.5179
20
238.4013
10
306.1710
20
250.2841
10
300.3744
20
260.0490
10
294.5767
20
277.5667
10
292.3620
20
324.2906
0
LWPOLYLINE
  5
13d2
330
1F
  100
AcDbEntity
8
paths
  100
AcDbPolyline
70
0
38
0.0000
90
8
10
347.4350
20
506.2245
10
340.8977
20
473.1337
10
340.1037
20
469.5905
10
323.0812
20
393.4374
10
322.0339
20
387.9454
10
313.4719
20
345.3098
10
300.2418
20
274.5146
10
311.1319
20
257.6393
0
LWPOLYLINE
  5
13d3
330
1F
  100
AcDbEntity
8
minor_roads
  100
AcDbPolyline
70
0
38
0.0000
90
2
10
350.2321
20
96.4088
10
555.4319
20
51.5049
0
LWPOLYLINE
  5
13d4
330
1F
  100
AcDbEntity
8
minor_roads
  100
AcDbPolyline
70
0
38
0.0000
90
2
10
563.6569
20
382.9417
10
614.0620
20
389.0057
0
LWPOLYLINE
  5
13d5
330
1F
  100
AcDbEntity
8
buildings
  100
AcDbPolyline
70
0
38
0.0000
90
13
10
433.7856
20
449.4348
10
435.9211
20
452.1636
10
434.9875
20
453.7843
10
438.0101
20
456.4955
10
441.0679
20
458.4895
10
445.2864
20
460.1762
10
446.4754
20
459.0023
10
449.3029
20
459.2441
10
450.1562
20
453.6184
10
472.6855
20
417.6166
10
460.7245
20
410.1720
10
438.2067
20
446.1836
10
433.7856
20
449.4348
0
LWPOLYLINE
  5
13d6
330
1F
  100
AcDbEntity
8
buildings
  100
AcDbPolyline
70
0
38
0.0000
90
21
10
509.1779
20
218.5454
10
519.7523
20
268.8881
10
535.0559
20
265.6948
10
528.8439
20
236.1409
10
531.8944
20
238.1813
10
536.5205
20
239.2564
10
541.2129
20
238.4865
10
545.2457
20
235.9877
10
547.4292
20
232.9524
10
551.6499
20
232.0644
10
556.4696
20
255.0141
10
572.0214
20
251.7730
10
577.3912
20
210.2463
10
543.6801
20
217.2868
10
541.9475
20
216.0546
10
537.3155
20
214.9793
10
532.6289
20
215.7494
10
528.5900
20
218.2574
10
525.8116
20
221.7116
10
524.4758
20
215.3518
10
509.1779
20
218.5454
0
LWPOLYLINE
  5
13d7
330
1F
  100
AcDbEntity
8
buildings
  100
AcDbPolyline
70
0
38
0.0000
90
21
10
643.5768
20
224.9627
10
644.5024
20
229.3218
10
647.6070
20
229.8901
10
647.0241
20
232.9870
10
650.7720
20
235.4235
10
655.1659
20
236.2392
10
659.5289
20
235.3093
10
660.1059
20
232.2122
10
663.2102
20
232.7897
10
665.6513
20
229.0633
10
666.4698
20
224.6866
10
665.5383
20
220.3272
10
662.4344
20
219.7403
10
663.0114
20
216.6432
10
659.2750
20
214.2164
10
654.8807
20
213.4100
10
650.5124
20
214.3211
10
649.9354
20
217.4182
10
646.8250
20
216.8498
10
644.3956
20
220.5766
10
643.5768
20
224.9627
0
LWPOLYLINE
  5
13d8
330
1F
  100
AcDbEntity
8
buildings
  100
AcDbPolyline
70
0
38
0.0000
90
30
10
370.5371
20
110.2928
10
376.6214
20
140.1968
10
405.5325
20
134.3508
10
409.2379
20
133.6044
10
423.4922
20
130.7309
10
451.4043
20
125.0951
10
453.6148
20
124.6450
10
457.6631
20
123.8259
10
472.2073
20
120.8874
10
474.0155
20
120.5267
10
501.8809
20
114.8896
10
499.8987
20
105.1408
10
493.0265
20
71.3485
10
463.3468
20
77.3461
10
471.1707
20
115.7875
10
467.8257
20
116.4617
10
466.5018
20
109.9158
10
455.2964
20
112.1892
10
456.6326
20
118.7169
10
452.5782
20
119.5452
10
446.1210
20
87.7724
10
415.9924
20
93.8581
10
422.4559
20
125.6218
10
419.0872
20
126.3045
10
417.5743
20
118.8941
10
406.6880
20
121.1035
10
408.2012
20
128.5046
10
404.4955
20
129.2603
10
399.4542
20
104.4470
10
370.5371
20
110.2928
0
LWPOLYLINE
  5
13d9
330
1F
  100
AcDbEntity
8
water
  100
AcDbPolyline
70
0
38
0.0000
90
9
10
115.7693
20
190.2491
10
150.8076
20
152.0890
10
153.1591
20
127.0137
10
134.4189
20
102.4156
10
104.5451
20
96.9430
10
89.2947
20
80.7062
10
73.5979
20
52.6066
10
70.2563
20
19.3781
10
80.0446
20
1.5584
0
LWPOLYLINE
  5
13da
330
1F
  100
AcDbEntity
8
water
  100
AcDbPolyline
70
0
38
0.0000
90
2
10
25.4498
20
214.4214
10
115.7693
20
190.2491
0
LWPOLYLINE
  5
13db
330
1F
  100
AcDbEntity
8
buildings
  100
AcDbPolyline
70
0
38
0.0000
90
9
10
644.1203
20
20.0283
10
628.7782
20
19.5259
10
630.0464
20
25.2982
10
632.4232
20
24.7883
10
633.2407
20
28.5095
10
643.7241
20
26.2408
10
642.9070
20
22.5102
10
644.5860
20
22.1547
10
644.1203
20
20.0283
0
LWPOLYLINE
  5
13dc
330
1F
  100
AcDbEntity
8
paths
  100
AcDbPolyline
70
0
38
0.0000
90
5
10
631.8524
20
251.8578
10
667.3009
20
257.3669
10
683.9354
20
259.9646
10
713.4104
20
264.6718
10
724.7868
20
266.4908
0
LWPOLYLINE
  5
13dd
330
1F
  100
AcDbEntity
8
major_roads
  100
AcDbPolyline
70
0
38
0.0000
90
2
10
822.5758
20
431.2748
10
669.4054
20
462.7400
0
LWPOLYLINE
  5
13de
330
1F
  100
AcDbEntity
8
major_roads
  100
AcDbPolyline
70
0
38
0.0000
90
11
10
321.4179
20
531.7011
10
335.7969
20
528.5703
10
349.2767
20
525.6526
10
375.7814
20
519.9052
10
492.2895
20
494.6385
10
505.0069
20
491.8829
10
558.0589
20
480.3724
10
658.2391
20
458.6423
10
761.8607
20
436.1873
10
852.5118
20
416.5274
10
882.7783
20
409.9636
0
LWPOLYLINE
  5
13df
330
1F
  100
AcDbEntity
8
paths
  100
AcDbPolyline
70
0
38
0.0000
90
6
10
809.2070
20
477.8568
10
678.7275
20
505.7279
10
657.3680
20
510.2990
10
544.3001
20
534.4618
10
377.3134
20
570.1477
10
359.9274
20
573.8611
0
LWPOLYLINE
  5
13e0
330
1F
  100
AcDbEntity
8
minor_roads
  100
AcDbPolyline
70
0
38
0.0000
90
26
10
588.3680
20
255.0980
10
580.7925
20
211.7944
10
577.8284
20
207.2938
10
573.3772
20
203.3883
10
569.1579
20
202.4384
10
502.9548
20
216.5784
10
497.6163
20
219.5103
10
497.2307
20
222.5018
10
497.5944
20
225.3778
10
500.3950
20
239.7156
10
507.1174
20
274.1281
10
513.1516
20
279.7087
10
546.8972
20
284.1537
10
602.8416
20
292.8339
10
624.7071
20
294.8844
10
661.4262
20
298.3360
10
678.2053
20
299.9215
10
718.6291
20
303.7188
10
749.7473
20
306.6422
10
758.9563
20
302.5873
10
775.6305
20
295.0175
10
811.5014
20
287.6388
10
821.3478
20
285.6294
10
832.9086
20
283.2564
10
836.2600
20
282.5640
10
872.0904
20
275.3524
0
LWPOLYLINE
  5
13e1
330
1F
  100
AcDbEntity
8
minor_roads
  100
AcDbPolyline
70
0
38
0.0000
90
14
10
886.8780
20
674.1040
10
861.5880
20
672.5277
10
845.3724
20
671.5198
10
809.4143
20
669.2859
10
809.3159
20
659.4028
10
809.9444
20
647.2204
10
815.3565
20
628.6177
10
817.2382
20
624.4065
10
826.5019
20
603.6351
10
842.3058
20
581.5949
10
857.5635
20
567.6162
10
877.0515
20
554.9612
10
874.8151
20
499.6759
10
888.1664
20
477.4340
0
LWPOLYLINE
  5
13e2
330
1F
  100
AcDbEntity
8
buildings
  100
AcDbPolyline
70
0
38
0.0000
90
18
10
767.9936
20
656.2375
10
785.2339
20
652.3154
10
791.4519
20
628.4680
10
798.9610
20
608.5719
10
809.0160
20
589.8043
10
821.4289
20
572.5322
10
836.0034
20
557.0102
10
852.4838
20
543.5194
10
866.8349
20
534.6328
10
857.4355
20
519.2759
10
841.9575
20
528.8719
10
823.6495
20
543.8515
10
807.4574
20
561.0837
10
793.6603
20
580.2884
10
782.4986
20
601.1188
10
774.1540
20
623.2266
10
768.7795
20
646.2341
10
767.9936
20
656.2375
0
LWPOLYLINE
  5
13e3
330
1F
  100
AcDbEntity
8
major_roads
  100
AcDbPolyline
70
0
38
0.0000
90
10
10
1035.3360
20
72.0359
10
904.9600
20
99.3294
10
868.2556
20
107.0160
10
858.4246
20
109.0819
10
829.2458
20
115.1871
10
726.3342
20
136.7314
10
575.9437
20
168.2257
10
403.3884
20
204.3634
10
286.5478
20
228.8471
10
272.7040
20
231.7437
0
LWPOLYLINE
  5
13e4
330
1F
  100
AcDbEntity
8
major_roads
  100
AcDbPolyline
70
0
38
0.0000
90
4
10
254.1582
20
216.1357
10
251.6463
20
203.0017
10
241.4614
20
149.8177
10
213.9329
20
5.9424
0
LWPOLYLINE
  5
13e5
330
1F
  100
AcDbEntity
8
major_roads
  100
AcDbPolyline
70
0
38
0.0000
90
2
10
127.8585
20
262.0886
10
23.3165
20
279.7647
0
LWPOLYLINE
  5
13e6
330
1F
  100
AcDbEntity
8
paths
  100
AcDbPolyline
70
0
38
0.0000
90
5
10
275.4451
20
446.3168
10
170.0934
20
376.2984
10
70.5917
20
302.5084
10
44.9485
20
305.2255
10
22.3496
20
309.3802
0
LWPOLYLINE
  5
13e7
330
1F
  100
AcDbEntity
8
minor_roads
  100
AcDbPolyline
70
0
38
0.0000
90
2
10
687.9489
20
21.4634
10
707.9542
20
111.6111
0
LWPOLYLINE
  5
13e8
330
1F
  100
AcDbEntity
8
paths
  100
AcDbPolyline
70
0
38
0.0000
90
2
10
1006.7187
20
943.3634
10
953.8448
20
954.0973
0
LWPOLYLINE
  5
13e9
330
1F
  100
AcDbEntity
8
buildings
  100
AcDbPolyline
70
0
38
0.0000
90
5
10
794.0662
20
1019.9484
10
810.1151
20
1020.4739
10
840.5276
20
1007.1944
10
793.2311
20
1014.0952
10
794.0662
20
1019.9484
0
LWPOLYLINE
  5
13ea
330
1F
  100
AcDbEntity
8
paths
  100
AcDbPolyline
70
0
38
0.0000
90
2
10
1009.8575
20
808.9131
10
1006.5189
20
802.2542
0
LWPOLYLINE
  5
13eb
330
1F
  100
AcDbEntity
8
paths
  100
AcDbPolyline
70
0
38
0.0000
90
4
10
948.8247
20
809.5025
10
950.0060
20
816.9676
10
950.1796
20
822.9442
10
951.3470
20
834.7657
0
LWPOLYLINE
  5
13ec
330
1F
  100
AcDbEntity
8
paths
  100
AcDbPolyline
70
0
38
0.0000
90
2
10
876.4552
20
719.6350
10
888.8539
20
710.8431
0
LWPOLYLINE
  5
13ed
330
1F
  100
AcDbEntity
8
paths
  100
AcDbPolyline
70
0
38
0.0000
90
2
10
818.4568
20
764.4074
10
828.0397
20
758.5923
0
LWPOLYLINE
  5
13ee
330
1F
  100
AcDbEntity
8
paths
  100
AcDbPolyline
70
0
38
0.0000
90
3
10
850.3706
20
769.4755
10
861.6218
20
753.9659
10
865.7983
20
755.8476
0
LWPOLYLINE
  5
13ef
330
1F
  100
AcDbEntity
8
paths
  100
AcDbPolyline
70
0
38
0.0000
90
2
10
881.5508
20
725.7078
10
893.0174
20
715.6258
0
LWPOLYLINE
  5
13f0
330
1F
  100
AcDbEntity
8
buildings
  100
AcDbPolyline
70
0
38
0.0000
90
5
10
742.6707
20
661.9284
10
744.8459
20
671.4971
10
770.1814
20
665.7786
10
767.9936
20
656.2375
10
742.6707
20
661.9284
0
LWPOLYLINE
  5
13f1
330
1F
  100
AcDbEntity
8
major_roads
  100
AcDbPolyline
70
0
38
0.0000
90
4
10
1007.0225
20
934.1151
10
953.6276
20
945.6936
10
931.6055
20
950.4657
10
923.2579
20
952.2721
0
LWPOLYLINE
  5
13f2
330
1F
  100
AcDbEntity
8
paths
  100
AcDbPolyline
70
0
38
0.0000
90
2
10
994.9466
20
780.1644
10
986.1213
20
762.1858
0
LWPOLYLINE
  5
13f3
330
1F
  100
AcDbEntity
8
paths
  100
AcDbPolyline
70
0
38
0.0000
90
2
10
977.8150
20
787.2146
10
971.5400
20
766.4744
0
LWPOLYLINE
  5
13f4
330
1F
  100
AcDbEntity
8
paths
  100
AcDbPolyline
70
0
38
0.0000
90
7
10
967.7815
20
789.9453
10
977.8150
20
787.2146
10
994.9466
20
780.1644
10
997.2970
20
779.1967
10
1009.8365
20
770.2323
10
1011.4731
20
769.0173
10
1012.4692
20
768.2753
0
LWPOLYLINE
  5
13f5
330
1F
  100
AcDbEntity
8
paths
  100
AcDbPolyline
70
0
38
0.0000
90
4
10
960.8817
20
803.0692
10
969.9177
20
802.2930
10
967.7815
20
789.9453
10
963.9870
20
768.0270
0
LWPOLYLINE
  5
13f6
330
1F
  100
AcDbEntity
8
paths
  100
AcDbPolyline
70
0
38
0.0000
90
7
10
814.8739
20
738.8857
10
822.2712
20
751.0235
10
828.0397
20
758.5923
10
832.3674
20
764.2760
10
835.1526
20
767.0543
10
843.8082
20
775.7255
10
834.8188
20
783.8457
0
LWPOLYLINE
  5
13f7
330
1F
  100
AcDbEntity
8
paths
  100
AcDbPolyline
70
0
38
0.0000
90
2
10
887.2599
20
731.6888
10
897.7108
20
720.5379
0
LWPOLYLINE
  5
13f8
330
1F
  100
AcDbEntity
8
major_roads
  100
AcDbPolyline
70
0
38
0.0000
90
5
10
923.2579
20
952.2721
10
922.2090
20
944.7088
10
920.1053
20
923.4991
10
917.1762
20
885.5905
10
915.7463
20
863.7032
0
LWPOLYLINE
  5
13f9
330
1F
  100
AcDbEntity
8
buildings
  100
AcDbPolyline
70
0
38
0.0000
90
11
10
962.5652
20
719.4389
10
966.0241
20
729.0499
10
984.9845
20
717.9733
10
997.3644
20
705.4678
10
1006.7899
20
679.0763
10
993.3902
20
678.1232
10
992.0834
20
686.8127
10
980.8617
20
690.6797
10
973.6490
20
701.8902
10
972.6806
20
714.3972
10
962.5652
20
719.4389
0
LWPOLYLINE
  5
13fa
330
1F
  100
AcDbEntity
8
minor_roads
  100
AcDbPolyline
70
0
38
0.0000
90
5
10
772.4695
20
1011.9494
10
892.1292
20
987.5234
10
898.3005
20
989.0694
10
902.8554
20
994.9752
10
908.1459
20
1023.6842
0
LWPOLYLINE
  5
13fb
330
1F
  100
AcDbEntity
8
buildings
  100
AcDbPolyline
70
0
38
0.0000
90
5
10
1009.3132
20
864.3687
10
1009.9355
20
845.4191
10
995.0606
20
850.5126
10
999.8017
20
867.3681
10
1009.3132
20
864.3687
0
LWPOLYLINE
  5
13fc
330
1F
  100
AcDbEntity
8
minor_roads
  100
AcDbPolyline
70
0
38
0.0000
90
2
10
760.0702
20
891.3884
10
818.3660
20
878.4667
0
LWPOLYLINE
  5
13fd
330
1F
  100
AcDbEntity
8
minor_roads
  100
AcDbPolyline
70
0
38
0.0000
90
10
10
930.4033
20
728.1790
10
931.0814
20
737.2042
10
932.2466
20
752.8507
10
933.6469
20
771.5276
10
936.5498
20
810.4150
10
937.5337
20
823.5366
10
940.0501
20
857.2054
10
937.1413
20
869.8167
10
935.4733
20
871.9916
10
926.9566
20
883.0567
0
LWPOLYLINE
  5
13fe
330
1F
  100
AcDbEntity
8
minor_roads
  100
AcDbPolyline
70
0
38
0.0000
90
21
10
917.1762
20
885.5905
10
908.0346
20
872.7795
10
900.5375
20
862.2617
10
896.3547
20
847.7010
10
897.1240
20
824.2626
10
897.4124
20
815.4743
10
897.1817
20
804.4393
10
891.5298
20
796.1838
10
882.5408
20
792.3062
10
880.8762
20
791.3373
10
867.8519
20
783.7821
10
855.4601
20
773.9434
10
852.0732
20
771.2573
10
850.3706
20
769.4755
10
839.2822
20
757.8416
10
830.2503
20
744.3534
10
824.9908
20
733.0788
10
855.9188
20
716.8527
10
870.6124
20
709.1435
10
883.5681
20
702.3383
10
892.1514
20
697.8340
0
LWPOLYLINE
  5
13ff
330
1F
  100
AcDbEntity
8
buildings
  100
AcDbPolyline
70
0
38
0.0000
90
9
10
785.0523
20
730.8730
10
788.7735
20
747.1724
10
806.0071
20
743.2689
10
802.2804
20
726.9600
10
798.5485
20
727.8078
10
796.3071
20
728.3127
10
791.1205
20
729.4861
10
788.6009
20
730.0658
10
785.0523
20
730.8730
0
LWPOLYLINE
  5
1400
330
1F
  100
AcDbEntity
8
buildings
  100
AcDbPolyline
70
0
38
0.0000
90
7
10
788.6009
20
730.0658
10
791.1721
20
741.3362
10
801.1197
20
739.0782
10
798.5485
20
727.8078
10
796.3071
20
728.3127
10
791.1205
20
729.4861
10
788.6009
20
730.0658
0
LWPOLYLINE
  5
1401
330
1F
  100
AcDbEntity
8
buildings
  100
AcDbPolyline
70
0
38
0.0000
90
5
10
778.0666
20
700.2764
10
783.7277
20
725.0826
10
800.9617
20
721.1698
10
795.2947
20
696.3634
10
778.0666
20
700.2764
0
LWPOLYLINE
  5
1402
330
1F
  100
AcDbEntity
8
paths
  100
AcDbPolyline
70
0
38
0.0000
90
3
10
1018.4998
20
584.6577
10
1015.0980
20
581.6134
10
1008.7926
20
576.8068
0
LWPOLYLINE
  5
1403
330
1F
  100
AcDbEntity
8
paths
  100
AcDbPolyline
70
0
38
0.0000
90
9
10
985.5366
20
565.1183
10
976.0731
20
561.9154
10
974.8135
20
561.4822
10
959.6039
20
558.0720
10
955.6169
20
557.7452
10
947.1229
20
557.0185
10
942.0515
20
557.1786
10
932.1143
20
557.4961
10
925.8293
20
558.1481
0
LWPOLYLINE
  5
1404
330
1F
  100
AcDbEntity
8
paths
  100
AcDbPolyline
70
0
38
0.0000
90
4
10
917.3594
20
415.2129
10
916.8216
20
411.5660
10
915.2170
20
403.0422
10
914.5101
20
397.5706
0
LWPOLYLINE
  5
1405
330
1F
  100
AcDbEntity
8
paths
  100
AcDbPolyline
70
0
38
0.0000
90
2
10
845.1150
20
612.9875
10
840.2330
20
609.7020
0
LWPOLYLINE
  5
1406
330
1F
  100
AcDbEntity
8
buildings
  100
AcDbPolyline
70
0
38
0.0000
90
5
10
761.2834
20
575.7000
10
773.1882
20
582.6863
10
782.8286
20
566.3587
10
770.9182
20
559.3628
10
761.2834
20
575.7000
0
LWPOLYLINE
  5
1407
330
1F
  100
AcDbEntity
8
paths
  100
AcDbPolyline
70
0
38
0.0000
90
4
10
854.6193
20
427.8013
10
854.0483
20
424.8064
10
852.5118
20
416.5274
10
851.6878
20
412.8339
0
LWPOLYLINE
  5
1408
330
1F
  100
AcDbEntity
8
buildings
  100
AcDbPolyline
70
0
38
0.0000
90
17
10
1021.9454
20
241.3769
10
1022.0533
20
242.0242
10
1022.3988
20
242.5860
10
1022.9323
20
242.9673
10
1023.5789
20
243.1192
10
1024.2283
20
243.0099
10
1024.7856
20
242.6644
10
1025.1731
20
242.1266
10
1025.3233
20
241.4878
10
1025.2154
20
240.8406
10
1024.8640
20
240.2786
10
1024.3305
20
239.8972
10
1023.6894
20
239.7549
10
1023.0345
20
239.8546
10
1022.4772
20
240.2002
10
1022.0955
20
240.7381
10
1021.9454
20
241.3769
0
LWPOLYLINE
  5
1409
330
1F
  100
AcDbEntity
8
buildings
  100
AcDbPolyline
70
0
38
0.0000
90
17
10
1022.1482
20
180.6765
10
1022.2620
20
181.3240
10
1022.6075
20
181.8858
10
1023.1410
20
182.2672
10
1023.7873
20
182.4283
10
1024.4370
20
182.3097
10
1024.9943
20
181.9642
10
1025.3819
20
181.4265
10
1025.5320
20
180.7877
10
1025.4241
20
180.1404
10
1025.0724
20
179.5877
10
1024.5392
20
179.1970
10
1023.8981
20
179.0547
10
1023.2432
20
179.1545
10
1022.6856
20
179.5094
10
1022.3042
20
180.0379
10
1022.1482
20
180.6765
0
LWPOLYLINE
  5
140a
330
1F
  100
AcDbEntity
8
buildings
  100
AcDbPolyline
70
0
38
0.0000
90
14
10
1030.5513
20
217.7191
10
1030.9879
20
204.4243
10
1029.3877
20
203.1745
10
1026.1417
20
202.2655
10
1022.7939
20
202.6687
10
1019.8510
20
204.3260
10
1017.7681
20
206.9725
10
1016.8578
20
210.1986
10
1017.2705
20
213.5428
10
1018.9235
20
216.4799
10
1021.5791
20
218.5636
10
1024.8258
20
219.4539
10
1028.1736
20
219.0507
10
1030.5513
20
217.7191
0
LWPOLYLINE
  5
140b
330
1F
  100
AcDbEntity
8
buildings
  100
AcDbPolyline
70
0
38
0.0000
90
5
10
790.7505
20
168.3620
10
794.3228
20
185.2815
10
804.9104
20
183.0538
10
801.3378
20
166.1436
10
790.7505
20
168.3620
0
LWPOLYLINE
  5
140c
330
1F
  100
AcDbEntity
8
paths
  100
AcDbPolyline
70
0
38
0.0000
90
2
10
807.9138
20
233.9606
10
821.3478
20
285.6294
0
LWPOLYLINE
  5
140d
330
1F
  100
AcDbEntity
8
paths
  100
AcDbPolyline
70
0
38
0.0000
90
3
10
942.1038
20
569.3553
10
942.0515
20
557.1786
10
942.1362
20
538.3264
0
LWPOLYLINE
  5
140e
330
1F
  100
AcDbEntity
8
paths
  100
AcDbPolyline
70
0
38
0.0000
90
2
10
976.0731
20
561.9154
10
982.0983
20
543.4356
0
LWPOLYLINE
  5
140f
330
1F
  100
AcDbEntity
8
paths
  100
AcDbPolyline
70
0
38
0.0000
90
2
10
1012.8120
20
451.5597
10
1022.6593
20
458.0115
0
LWPOLYLINE
  5
1410
330
1F
  100
AcDbEntity
8
paths
  100
AcDbPolyline
70
0
38
0.0000
90
2
10
854.1199
20
406.8775
10
851.8531
20
395.2719
0
LWPOLYLINE
  5
1411
330
1F
  100
AcDbEntity
8
paths
  100
AcDbPolyline
70
0
38
0.0000
90
3
10
814.6119
20
453.3950
10
812.4713
20
471.5826
10
809.2070
20
477.8568
0
LWPOLYLINE
  5
1412
330
1F
  100
AcDbEntity
8
paths
  100
AcDbPolyline
70
0
38
0.0000
90
4
10
901.6488
20
71.4189
10
901.3752
20
76.8957
10
904.9600
20
99.3294
10
907.3014
20
106.3381
0
LWPOLYLINE
  5
1413
330
1F
  100
AcDbEntity
8
paths
  100
AcDbPolyline
70
0
38
0.0000
90
5
10
1027.2988
20
316.7473
10
1013.1428
20
315.6398
10
1005.9986
20
313.4833
10
995.6809
20
310.3550
10
980.6561
20
303.7975
0
LWPOLYLINE
  5
1414
330
1F
  100
AcDbEntity
8
paths
  100
AcDbPolyline
70
0
38
0.0000
90
13
10
1028.9296
20
267.0954
10
1017.7601
20
262.4547
10
1006.3077
20
253.6541
10
997.5200
20
242.1888
10
992.0112
20
228.8440
10
991.1822
20
222.4448
10
990.1503
20
214.5368
10
992.0697
20
200.2417
10
997.6266
20
186.9151
10
1006.4555
20
175.4965
10
1017.9503
20
166.7404
10
1031.3166
20
161.2458
10
1032.4107
20
161.1046
0
LWPOLYLINE
  5
1415
330
1F
  100
AcDbEntity
8
minor_roads
  100
AcDbPolyline
70
0
38
0.0000
90
5
10
896.1841
20
460.8388
10
912.9316
20
485.7291
10
915.1139
20
524.4061
10
917.7320
20
570.7290
10
920.7186
20
623.5293
0
LWPOLYLINE
  5
1416
330
1F
  100
AcDbEntity
8
paths
  100
AcDbPolyline
70
0
38
0.0000
90
2
10
917.5386
20
1023.9918
10
907.3088
20
979.8303
0
LWPOLYLINE
  5
1417
330
1F
  100
AcDbEntity
8
paths
  100
AcDbPolyline
70
0
38
0.0000
90
2
10
953.8448
20
954.0973
10
970.2805
20
1025.7190
0
LWPOLYLINE
  5
1418
330
1F
  100
AcDbEntity
8
buildings
  100
AcDbPolyline
70
0
38
0.0000
90
21
10
635.7852
20
271.0468
10
636.7046
20
275.4151
10
639.8089
20
275.9926
10
639.2322
20
279.0804
10
642.9800
20
281.5169
10
647.3742
20
282.3233
10
651.7369
20
281.4027
10
652.3136
20
278.3149
10
655.4181
20
278.8831
10
657.8533
20
275.1565
10
658.6777
20
270.7800
10
657.7462
20
266.4206
10
654.6423
20
265.8338
10
655.2190
20
262.7459
10
651.4770
20
260.3096
10
647.0887
20
259.5034
10
642.7143
20
260.4236
10
642.1376
20
263.5115
10
639.0330
20
262.9433
10
636.6037
20
266.6701
10
635.7852
20
271.0468
0
LWPOLYLINE
  5
1419
330
1F
  100
AcDbEntity
8
paths
  100
AcDbPolyline
70
0
38
0.0000
90
4
10
624.7071
20
294.8844
10
631.8524
20
251.8578
10
634.6108
20
235.2205
10
639.9416
20
203.1432
0
LWPOLYLINE
  5
141a
330
1F
  100
AcDbEntity
8
minor_roads
  100
AcDbPolyline
70
0
38
0.0000
90
10
10
661.0637
20
330.8933
10
571.0840
20
320.0059
10
568.0956
20
345.2842
10
565.8378
20
364.3916
10
563.6569
20
382.9417
10
561.3911
20
402.1142
10
559.1804
20
420.8593
10
554.6799
20
458.9719
10
556.2555
20
469.2953
10
558.0589
20
480.3724
0
LWPOLYLINE
  5
141b
330
1F
  100
AcDbEntity
8
minor_roads
  100
AcDbPolyline
70
0
38
0.0000
90
4
10
575.9437
20
168.2257
10
580.6763
20
190.2489
10
582.1752
20
197.1831
10
602.8416
20
292.8339
0
LWPOLYLINE
  5
141c
330
1F
  100
AcDbEntity
8
buildings
  100
AcDbPolyline
70
0
38
0.0000
90
21
10
690.4866
20
232.3962
10
691.4122
20
236.7554
10
694.5165
20
237.3329
10
693.9397
20
240.4207
10
697.6758
20
242.8569
10
702.0697
20
243.6726
10
706.4445
20
242.7432
10
707.0209
20
239.6647
10
710.1255
20
240.2329
10
712.5607
20
236.5063
10
713.3737
20
232.1201
10
712.4540
20
227.7611
10
709.3498
20
227.1836
10
709.9265
20
224.0957
10
706.1845
20
221.6594
10
701.7906
20
220.8436
10
697.4217
20
221.7733
10
696.8450
20
224.8611
10
693.7407
20
224.2836
10
691.2996
20
228.0100
10
690.4866
20
232.3962
0
LWPOLYLINE
  5
141d
330
1F
  100
AcDbEntity
8
paths
  100
AcDbPolyline
70
0
38
0.0000
90
10
10
347.4350
20
506.2245
10
364.9856
20
502.5071
10
366.3188
20
510.7420
10
373.1925
20
509.5021
10
489.9766
20
484.5989
10
502.7922
20
481.8932
10
556.2555
20
469.2953
10
657.2882
20
448.7872
10
760.3209
20
426.7514
10
854.1199
20
406.8775
0
LWPOLYLINE
  5
141e
330
1F
  100
AcDbEntity
8
paths
  100
AcDbPolyline
70
0
38
0.0000
90
8
10
598.1403
20
757.9680
10
603.6443
20
784.7279
10
610.1598
20
800.6802
10
618.9889
20
819.1154
10
628.1454
20
837.7665
10
652.0565
20
873.6849
10
676.0967
20
900.8193
10
703.2804
20
919.9776
0
LWPOLYLINE
  5
141f
330
1F
  100
AcDbEntity
8
minor_roads
  100
AcDbPolyline
70
0
38
0.0000
90
2
10
725.9124
20
632.7094
10
719.9422
20
608.0051
0
LWPOLYLINE
  5
1420
330
1F
  100
AcDbEntity
8
major_roads
  100
AcDbPolyline
70
0
38
0.0000
90
15
10
272.7040
20
231.7437
10
276.6926
20
250.5237
10
292.3620
20
324.2906
10
297.2930
20
347.4583
10
306.6899
20
391.6698
10
323.8908
20
472.6054
10
331.5272
20
508.5309
10
335.7969
20
528.5703
10
337.0885
20
534.6673
10
340.5515
20
551.0138
10
360.9563
20
647.0188
10
384.7276
20
758.8729
10
398.8029
20
825.0968
10
423.4781
20
941.1976
10
437.7323
20
1008.2792
0
LWPOLYLINE
  5
1421
330
1F
  100
AcDbEntity
8
paths
  100
AcDbPolyline
70
0
38
0.0000
90
12
10
739.5209
20
793.9678
10
719.7147
20
798.1044
10
702.8519
20
801.6285
10
625.7507
20
817.6949
10
618.9889
20
819.1154
10
550.0328
20
833.4813
10
518.5519
20
840.1191
10
503.4141
20
857.4799
10
451.9875
20
914.6743
10
432.3227
20
936.3933
10
430.8747
20
940.4602
10
427.8443
20
948.0391
0
LWPOLYLINE
  5
1422
330
1F
  100
AcDbEntity
8
paths
  100
AcDbPolyline
70
0
38
0.0000
90
11
10
709.6637
20
652.4030
10
689.0880
20
656.7197
10
672.0174
20
660.3025
10
595.5602
20
676.3626
10
586.3155
20
678.3081
10
518.3413
20
692.5762
10
485.2292
20
699.5246
10
466.9414
20
690.8093
10
394.7971
20
653.1453
10
374.2177
20
641.9763
10
361.9208
20
583.0878
0
LWPOLYLINE
  5
1423
330
1F
  100
AcDbEntity
8
paths
  100
AcDbPolyline
70
0
38
0.0000
90
20
10
707.0823
20
821.0232
10
702.4947
20
831.1445
10
693.1412
20
843.0408
10
675.5864
20
859.4450
10
657.1728
20
871.4269
10
652.0565
20
873.6849
10
633.3239
20
881.9713
10
615.1711
20
886.1811
10
609.8949
20
887.4076
10
585.8791
20
888.7198
10
562.0007
20
885.8384
10
542.8198
20
880.0416
10
523.1620
20
870.8800
10
503.4141
20
857.4799
10
483.7222
20
838.2415
10
475.7548
20
826.8226
10
471.7242
20
820.6639
10
468.6940
20
816.0399
10
467.5815
20
812.9061
10
456.3842
20
781.4444
0
LWPOLYLINE
  5
1424
330
1F
  100
AcDbEntity
8
buildings
  100
AcDbPolyline
70
0
38
0.0000
90
21
10
700.0526
20
182.8811
10
700.9782
20
187.2403
10
704.0825
20
187.8178
10
703.5055
20
190.9150
10
707.2419
20
193.3418
10
711.6358
20
194.1576
10
716.0103
20
193.2374
10
716.5874
20
190.1403
10
719.6920
20
190.7085
10
722.1272
20
186.9819
10
722.9400
20
182.6051
10
722.0203
20
178.2460
10
718.9157
20
177.6778
10
719.4927
20
174.5807
10
715.7510
20
172.1350
10
711.3568
20
171.3285
10
706.9881
20
172.2489
10
706.4111
20
175.3460
10
703.3068
20
174.7685
10
700.8654
20
178.5042
10
700.0526
20
182.8811
0
LWPOLYLINE
  5
1425
330
1F
  100
AcDbEntity
8
parks
  100
AcDbPolyline
70
0
38
0.0000
90
5
10
379.6216
20
573.1620
10
465.5307
20
971.4676
10
759.3520
20
906.6651
10
675.1232
20
509.1270
10
379.6216
20
573.1620
0
LWPOLYLINE
  5
1426
330
1F
  100
AcDbEntity
8
buildings
  100
AcDbPolyline
70
0
38
0.0000
90
46
10
767.9936
20
656.2375
10
770.1814
20
665.7786
10
772.9579
20
677.9514
10
776.6437
20
694.0817
10
778.0666
20
700.2764
10
783.7277
20
725.0826
10
785.0523
20
730.8730
10
788.7735
20
747.1724
10
791.4637
20
758.9318
10
793.7574
20
768.9989
10
800.2486
20
780.8457
10
815.2758
20
799.1020
10
832.5617
20
815.2494
10
851.8156
20
829.0171
10
872.6997
20
840.1514
10
886.3611
20
845.2832
10
892.9858
20
828.5489
10
880.1652
20
823.7339
10
861.3577
20
813.7126
10
844.0249
20
801.3234
10
828.4650
20
786.7813
10
814.9398
20
770.3375
10
810.9913
20
765.0861
10
806.0071
20
743.2689
10
802.2804
20
726.9600
10
800.9617
20
721.1698
10
795.2947
20
696.3634
10
793.8777
20
690.1688
10
790.1923
20
674.0292
10
785.2339
20
652.3154
10
791.4519
20
628.4680
10
798.9610
20
608.5719
10
809.0160
20
589.8043
10
821.4289
20
572.5322
10
836.0034
20
557.0102
10
852.4838
20
543.5194
10
866.8349
20
534.6328
10
857.4355
20
519.2759
10
841.9575
20
528.8719
10
823.6495
20
543.8515
10
807.4574
20
561.0837
10
793.6603
20
580.2884
10
782.4986
20
601.1188
10
774.1540
20
623.2266
10
768.7795
20
646.2341
10
767.9936
20
656.2375
0
LWPOLYLINE
  5
1427
330
1F
  100
AcDbEntity
8
buildings
  100
AcDbPolyline
70
0
38
0.0000
90
20
10
171.5050
20
855.1116
10
171.6209
20
855.5166
10
171.8559
20
855.8694
10
172.1819
20
856.1320
10
172.5819
20
856.2850
10
173.0217
20
856.2994
10
173.4490
20
856.1547
10
173.8041
20
855.8865
10
174.0512
20
855.5120
10
174.1649
20
855.0866
10
174.1267
20
854.6375
10
173.9463
20
854.2305
10
173.6397
20
853.9126
10
173.2412
20
853.7130
10
172.8030
20
853.6520
10
172.3657
20
853.7403
10
171.9769
20
853.9609
10
171.6901
20
854.2967
10
171.5363
20
854.6928
10
171.5050
20
855.1116
0
LWPOLYLINE
  5
1428
330
1F
  100
AcDbEntity
8
paths
  100
AcDbPolyline
70
0
38
0.0000
90
2
10
35.1224
20
869.8748
10
91.3112
20
858.6674
0
LWPOLYLINE
  5
1429
330
1F
  100
AcDbEntity
8
paths
  100
AcDbPolyline
70
0
38
0.0000
90
3
10
488.0024
20
782.0971
10
486.3739
20
769.0852
10
483.1552
20
759.4637
0
LWPOLYLINE
  5
142a
330
1F
  100
AcDbEntity
8
paths
  100
AcDbPolyline
70
0
38
0.0000
90
4
10
420.8612
20
788.1837
10
429.0802
20
820.9752
10
434.8046
20
844.9713
10
442.2437
20
876.1139
0
LWPOLYLINE
  5
142b
330
1F
  100
AcDbEntity
8
paths
  100
AcDbPolyline
70
0
38
0.0000
90
2
10
434.8046
20
844.9713
10
471.7242
20
820.6639
0
LWPOLYLINE
  5
142c
330
1F
  100
AcDbEntity
8
major_roads
  100
AcDbPolyline
70
0
38
0.0000
90
7
10
423.4781
20
941.1976
10
427.8443
20
948.0391
10
435.5584
20
963.7878
10
438.6224
20
975.0835
10
444.7756
20
997.8062
10
445.8130
20
1001.4413
10
448.7069
20
1008.6386
0
LWPOLYLINE
  5
142d
330
1F
  100
AcDbEntity
8
paths
  100
AcDbPolyline
70
0
38
0.0000
90
6
10
394.1114
20
1006.8508
10
374.8141
20
912.0458
10
359.4761
20
836.6939
10
356.7835
20
824.2629
10
355.3142
20
817.4977
10
352.2750
20
801.3049
0
LWPOLYLINE
  5
142e
330
1F
  100
AcDbEntity
8
minor_roads
  100
AcDbPolyline
70
0
38
0.0000
90
4
10
360.9563
20
647.0188
10
388.3522
20
660.3047
10
401.8926
20
748.7991
10
384.7276
20
758.8729
0
LWPOLYLINE
  5
142f
330
1F
  100
AcDbEntity
8
buildings
  100
AcDbPolyline
70
0
38
0.0000
90
15
10
38.6695
20
669.9308
10
61.1029
20
696.4219
10
100.9678
20
671.5923
10
152.2364
20
657.4353
10
198.8392
20
646.6714
10
193.0741
20
613.1023
10
99.1677
20
636.1284
10
95.4324
20
628.4589
10
88.1984
20
631.5718
10
90.1415
20
638.3991
10
63.5144
20
652.4192
10
58.3722
20
645.0489
10
51.5010
20
649.6385
10
56.8855
20
658.3974
10
38.6695
20
669.9308
0
LWPOLYLINE
  5
1430
330
1F
  100
AcDbEntity
8
buildings
  100
AcDbPolyline
70
0
38
0.0000
90
21
10
152.7807
20
637.5441
10
153.5965
20
642.7579
10
156.5684
20
648.0981
10
156.8126
20
652.3043
10
160.7665
20
651.3047
10
170.3672
20
652.2901
10
173.7083
20
652.0821
10
178.8525
20
649.5074
10
183.9987
20
649.2091
10
182.9397
20
642.6346
10
183.7480
20
636.9421
10
182.0430
20
630.1971
10
180.0317
20
626.7168
10
180.2122
20
622.2726
10
177.1270
20
624.7094
10
171.3547
20
622.2537
10
162.2697
20
621.4717
10
157.4671
20
626.1661
10
153.5509
20
625.2917
10
154.8665
20
629.4023
10
152.7807
20
637.5441
0
LWPOLYLINE
  5
1431
330
1F
  100
AcDbEntity
8
buildings
  100
AcDbPolyline
70
0
38
0.0000
90
21
10
65.7445
20
654.4139
10
68.4582
20
657.7771
10
69.4595
20
666.1223
10
72.1043
20
670.6961
10
76.8020
20
674.6000
10
78.5552
20
678.4357
10
81.8838
20
676.0908
10
89.3565
20
675.5512
10
95.0659
20
672.7429
10
98.2984
20
668.4917
10
102.7900
20
665.7649
10
99.4263
20
660.0201
10
98.1241
20
654.4172
10
94.0950
20
648.7346
10
90.9542
20
646.2250
10
89.5132
20
641.9984
10
87.5183
20
645.3851
10
81.2498
20
645.1804
10
73.0218
20
648.3542
10
69.7146
20
653.8158
10
65.7445
20
654.4139
0
LWPOLYLINE
  5
1432
330
1F
  100
AcDbEntity
8
buildings
  100
AcDbPolyline
70
0
38
0.0000
90
5
10
534.7021
20
584.2932
10
536.1573
20
590.4050
10
544.7713
20
588.3641
10
543.3105
20
582.2428
10
534.7021
20
584.2932
0
LWPOLYLINE
  5
1433
330
1F
  100
AcDbEntity
8
minor_roads
  100
AcDbPolyline
70
0
38
0.0000
90
4
10
369.0452
20
493.6183
10
371.7101
20
500.9825
10
373.1925
20
509.5021
10
375.7814
20
519.9052
0
LWPOLYLINE
  5
1434
330
1F
  100
AcDbEntity
8
paths
  100
AcDbPolyline
70
0
38
0.0000
90
3
10
383.1831
20
597.2551
10
377.3134
20
570.1477
10
372.3703
20
545.0390
0
LWPOLYLINE
  5
1435
330
1F
  100
AcDbEntity
8
minor_roads
  100
AcDbPolyline
70
0
38
0.0000
90
2
10
451.0450
20
140.0198
10
490.7620
20
132.0930
0
LWPOLYLINE
  5
1436
330
1F
  100
AcDbEntity
8
buildings
  100
AcDbPolyline
70
0
38
0.0000
90
5
10
384.4009
20
11.5241
10
352.7021
20
10.4862
10
356.8805
20
29.3798
10
386.8907
20
22.7953
10
384.4009
20
11.5241
0
LWPOLYLINE
  5
1437
330
1F
  100
AcDbEntity
8
buildings
  100
AcDbPolyline
70
0
38
0.0000
90
5
10
404.4955
20
129.2603
10
405.5325
20
134.3508
10
409.2379
20
133.6044
10
408.2012
20
128.5046
10
404.4955
20
129.2603
0
LWPOLYLINE
  5
1438
330
1F
  100
AcDbEntity
8
major_roads
  100
AcDbPolyline
70
0
38
0.0000
90
2
10
254.1582
20
216.1357
10
268.3393
20
213.1568
0
LWPOLYLINE
  5
1439
330
1F
  100
AcDbEntity
8
paths
  100
AcDbPolyline
70
0
38
0.0000
90
3
10
237.4958
20
211.1502
10
222.2281
20
201.0325
10
221.6990
20
193.6917
0
LWPOLYLINE
  5
143a
330
1F
  100
AcDbEntity
8
major_roads
  100
AcDbPolyline
70
0
38
0.0000
90
4
10
94.2184
20
580.9791
10
192.7679
20
559.6068
10
307.6604
20
534.6751
10
321.4179
20
531.7011
0
LWPOLYLINE
  5
143b
330
1F
  100
AcDbEntity
8
paths
  100
AcDbPolyline
70
0
38
0.0000
90
3
10
247.3612
20
230.1036
10
244.8477
20
218.0984
10
244.2836
20
215.5983
0
LWPOLYLINE
  5
143c
330
1F
  100
AcDbEntity
8
minor_roads
  100
AcDbPolyline
70
0
38
0.0000
90
5
10
514.2809
20
298.4699
10
503.5277
20
292.5015
10
397.1448
20
272.4598
10
387.1559
20
276.4992
10
382.2080
20
284.1834
0
LWPOLYLINE
  5
143d
330
1F
  100
AcDbEntity
8
minor_roads
  100
AcDbPolyline
70
0
38
0.0000
90
4
10
526.1807
20
382.9086
10
529.9343
20
382.8356
10
519.2901
20
312.0497
10
514.2809
20
298.4699
0
LWPOLYLINE
  5
143e
330
1F
  100
AcDbEntity
8
major_roads
  100
AcDbPolyline
70
0
38
0.0000
90
4
10
322.7219
20
537.7799
10
308.8873
20
540.7793
10
194.1446
20
565.6226
10
113.4270
20
583.0993
0
LWPOLYLINE
  5
143f
330
1F
  100
AcDbEntity
8
minor_roads
  100
AcDbPolyline
70
0
38
0.0000
90
5
10
492.2895
20
494.6385
10
489.9766
20
484.5989
10
487.0407
20
478.3454
10
479.1898
20
477.1554
10
371.7101
20
500.9825
0
LWPOLYLINE
  5
1440
330
1F
  100
AcDbEntity
8
minor_roads
  100
AcDbPolyline
70
0
38
0.0000
90
5
10
297.2930
20
347.4583
10
313.4719
20
345.3098
10
327.4400
20
342.7346
10
354.1542
20
337.7868
10
382.2080
20
284.1834
0
LWPOLYLINE
  5
1441
330
1F
  100
AcDbEntity
8
paths
  100
AcDbPolyline
70
0
38
0.0000
90
4
10
290.2971
20
518.1259
10
275.4451
20
446.3168
10
244.9623
20
298.9975
10
234.3774
20
281.0469
0
LWPOLYLINE
  5
1442
330
1F
  100
AcDbEntity
8
major_roads
  100
AcDbPolyline
70
0
38
0.0000
90
4
10
255.5329
20
145.5290
10
280.5761
20
187.9476
10
287.8793
20
194.2318
10
321.0595
20
201.8008
0
LWPOLYLINE
  5
1443
330
1F
  100
AcDbEntity
8
buildings
  100
AcDbPolyline
70
0
38
0.0000
90
8
10
463.3468
20
77.3461
10
471.1707
20
115.7875
10
472.2073
20
120.8874
10
474.0155
20
120.5267
10
501.8809
20
114.8896
10
499.8987
20
105.1408
10
493.0265
20
71.3485
10
463.3468
20
77.3461
0
LWPOLYLINE
  5
1444
330
1F
  100
AcDbEntity
8
minor_roads
  100
AcDbPolyline
70
0
38
0.0000
90
5
10
347.9021
20
84.5402
10
350.2321
20
96.4088
10
359.7186
20
144.7097
10
376.7350
20
154.8477
10
451.0450
20
140.0198
0
LWPOLYLINE
  5
1445
330
1F
  100
AcDbEntity
8
minor_roads
  100
AcDbPolyline
70
0
38
0.0000
90
4
10
569.5229
20
116.3675
10
587.6331
20
112.4639
10
573.5484
20
47.5921
10
555.4319
20
51.5049
0
LWPOLYLINE
  5
1446
330
1F
  100
AcDbEntity
8
minor_roads
  100
AcDbPolyline
70
0
38
0.0000
90
4
10
505.0069
20
491.8829
10
502.7922
20
481.8932
10
501.6243
20
476.1453
10
489.7909
20
431.8162
0
LWPOLYLINE
  5
1447
330
1F
  100
AcDbEntity
8
major_roads
  100
AcDbPolyline
70
0
38
0.0000
90
3
10
257.8258
20
234.8585
10
249.6446
20
236.5782
10
127.8585
20
262.0886
0
LWPOLYLINE
  5
1448
330
1F
  100
AcDbEntity
8
paths
  100
AcDbPolyline
70
0
38
0.0000
90
5
10
221.6990
20
193.6917
10
208.4111
20
200.9541
10
158.5138
20
210.1924
10
25.7508
20
231.5309
10
24.8862
20
231.6861
0
LWPOLYLINE
  5
1449
330
1F
  100
AcDbEntity
8
paths
  100
AcDbPolyline
70
0
38
0.0000
90
2
10
221.6990
20
193.6917
10
186.4300
20
5.0418
0
LWPOLYLINE
  5
144a
330
1F
  100
AcDbEntity
8
minor_roads
  100
AcDbPolyline
70
0
38
0.0000
90
2
10
520.3966
20
46.5979
10
512.4773
20
15.7178
0
LWPOLYLINE
  5
144b
330
1F
  100
AcDbEntity
8
minor_roads
  100
AcDbPolyline
70
0
38
0.0000
90
4
10
548.8704
20
16.9094
10
552.8143
20
39.4682
10
555.4319
20
51.5049
10
569.5229
20
116.3675
0
LWPOLYLINE
  5
144c
330
1F
  100
AcDbEntity
8
paths
  100
AcDbPolyline
70
0
38
0.0000
90
8
10
298.8925
20
559.9136
10
304.2449
20
584.3639
10
326.6975
20
686.8730
10
340.0223
20
747.7170
10
344.1356
20
765.7081
10
345.7315
20
772.7294
10
348.2849
20
784.0362
10
352.2750
20
801.3049
0
LWPOLYLINE
  5
144d
330
1F
  100
AcDbEntity
8
minor_roads
  100
AcDbPolyline
70
0
38
0.0000
90
2
10
32.4174
20
826.3394
10
5.4981
20
825.5378
0
LWPOLYLINE
  5
144e
330
1F
  100
AcDbEntity
8
minor_roads
  100
AcDbPolyline
70
0
38
0.0000
90
7
10
10.5092
20
672.0492
10
22.7948
20
660.8201
10
49.0970
20
642.0032
10
84.3584
20
624.4120
10
115.8523
20
615.0571
10
201.2068
20
596.8644
10
289.9470
20
577.3004
0
LWPOLYLINE
  5
144f
330
1F
  100
AcDbEntity
8
minor_roads
  100
AcDbPolyline
70
0
38
0.0000
90
6
10
192.7679
20
559.6068
10
194.1446
20
565.6226
10
201.2068
20
596.8644
10
203.0781
20
605.7045
10
214.7891
20
661.0190
10
221.9020
20
694.6508
0
LWPOLYLINE
  5
1450
330
1F
  100
AcDbEntity
8
major_roads
  100
AcDbPolyline
70
0
38
0.0000
90
12
10
423.4343
20
1007.8110
10
419.3248
20
988.6419
10
404.0999
20
917.5756
10
401.9509
20
907.5508
10
385.9003
20
832.6419
10
326.0892
20
553.4609
10
322.7219
20
537.7799
10
321.4179
20
531.7011
10
317.1850
20
511.9709
10
283.9977
20
357.1086
10
261.9891
20
254.3998
10
257.8258
20
234.8585
0
LWPOLYLINE
  5
1451
330
1F
  100
AcDbEntity
8
major_roads
  100
AcDbPolyline
70
0
38
0.0000
90
10
10
882.7783
20
409.9636
10
881.2322
20
390.3490
10
878.1315
20
351.3806
10
873.1829
20
289.1119
10
872.0904
20
275.3524
10
860.5600
20
130.4231
10
858.4246
20
109.0819
10
856.2205
20
86.6095
10
855.4933
20
66.7232
10
852.3201
20
26.8455
0
LWPOLYLINE
  5
1452
330
1F
  100
AcDbEntity
8
paths
  100
AcDbPolyline
70
0
38
0.0000
90
2
10
463.7256
20
969.5892
10
438.6224
20
975.0835
0
LWPOLYLINE
  5
1453
330
1F
  100
AcDbEntity
8
paths
  100
AcDbPolyline
70
0
38
0.0000
90
2
10
529.3741
20
1011.2803
10
523.4278
20
984.9973
0
LWPOLYLINE
  5
1454
330
1F
  100
AcDbEntity
8
paths
  100
AcDbPolyline
70
0
38
0.0000
90
3
10
615.1711
20
886.1811
10
629.7809
20
934.3800
10
637.8473
20
961.0281
0
LWPOLYLINE
  5
1455
330
1F
  100
AcDbEntity
8
paths
  100
AcDbPolyline
70
0
38
0.0000
90
3
10
649.3917
20
1015.2106
10
644.6342
20
992.8682
10
637.8473
20
961.0281
0
LWPOLYLINE
  5
1456
330
1F
  100
AcDbEntity
8
paths
  100
AcDbPolyline
70
0
38
0.0000
90
3
10
595.5688
20
1013.4480
10
593.6034
20
1003.7533
10
587.0784
20
971.6141
0
LWPOLYLINE
  5
1457
330
1F
  100
AcDbEntity
8
paths
  100
AcDbPolyline
70
0
38
0.0000
90
2
10
742.6840
20
1018.2657
10
772.4695
20
1011.9494
0
LWPOLYLINE
  5
1458
330
1F
  100
AcDbEntity
8
paths
  100
AcDbPolyline
70
0
38
0.0000
90
4
10
944.3513
20
432.9386
10
946.3057
20
444.9352
10
954.4009
20
459.9602
10
956.0280
20
462.9710
0
LWPOLYLINE
  5
1459
330
1F
  100
AcDbEntity
8
major_roads
  100
AcDbPolyline
70
0
38
0.0000
90
3
10
883.4936
20
418.7568
10
854.0483
20
424.8064
10
822.5758
20
431.2748
0
LWPOLYLINE
  5
145a
330
1F
  100
AcDbEntity
8
major_roads
  100
AcDbPolyline
70
0
38
0.0000
90
2
10
883.4936
20
418.7568
10
882.7783
20
409.9636
0
LWPOLYLINE
  5
145b
330
1F
  100
AcDbEntity
8
paths
  100
AcDbPolyline
70
0
38
0.0000
90
2
10
831.9981
20
182.5149
10
857.0656
20
178.4206
0
LWPOLYLINE
  5
145c
330
1F
  100
AcDbEntity
8
buildings
  100
AcDbPolyline
70
0
38
0.0000
90
5
10
762.3282
20
168.2416
10
763.5573
20
174.0848
10
779.9203
20
170.6470
10
778.6850
20
164.8129
10
762.3282
20
168.2416
0
LWPOLYLINE
  5
145d
330
1F
  100
AcDbEntity
8
buildings
  100
AcDbPolyline
70
0
38
0.0000
90
21
10
730.5379
20
286.2526
10
731.4637
20
290.6025
10
734.5677
20
291.1894
10
733.9906
20
294.2865
10
737.7328
20
296.7136
10
742.1267
20
297.5294
10
746.4894
20
296.6089
10
747.0723
20
293.5119
10
750.1765
20
294.0895
10
752.6062
20
290.3534
10
753.4310
20
285.9676
10
752.5052
20
281.6177
10
749.3950
20
281.0399
10
749.9780
20
277.9430
10
746.2358
20
275.5159
10
741.8481
20
274.6910
10
737.4733
20
275.6205
10
736.8963
20
278.7176
10
733.7920
20
278.1400
10
731.3565
20
281.8759
10
730.5379
20
286.2526
0
LWPOLYLINE
  5
145e
330
1F
  100
AcDbEntity
8
paths
  100
AcDbPolyline
70
0
38
0.0000
90
4
10
907.3014
20
106.3381
10
909.7297
20
118.0330
10
877.1683
20
125.7808
10
907.3014
20
106.3381
0
LWPOLYLINE
  5
145f
330
1F
  100
AcDbEntity
8
paths
  100
AcDbPolyline
70
0
38
0.0000
90
4
10
876.8991
20
59.7286
10
898.9054
20
55.0116
10
901.6488
20
71.4189
10
876.8991
20
59.7286
0
LWPOLYLINE
  5
1460
330
1F
  100
AcDbEntity
8
paths
  100
AcDbPolyline
70
0
38
0.0000
90
8
10
832.8043
20
136.6403
10
831.2138
20
126.9601
10
833.3127
20
127.9432
10
837.6164
20
129.3626
10
841.3939
20
130.7180
10
844.9194
20
132.0558
10
847.1709
20
133.5757
10
832.8043
20
136.6403
0
LWPOLYLINE
  5
1461
330
1F
  100
AcDbEntity
8
minor_roads
  100
AcDbPolyline
70
0
38
0.0000
90
2
10
740.8426
20
104.6285
10
783.8028
20
102.2027
0
LWPOLYLINE
  5
1462
330
1F
  100
AcDbEntity
8
minor_roads
  100
AcDbPolyline
70
0
38
0.0000
90
8
10
718.6291
20
303.7188
10
722.7608
20
270.0909
10
724.7868
20
266.4908
10
726.4333
20
263.5407
10
730.1621
20
261.7225
10
732.1820
20
259.2044
10
725.0219
20
220.4576
10
723.2814
20
211.0525
0
LWPOLYLINE
  5
1463
330
1F
  100
AcDbEntity
8
minor_roads
  100
AcDbPolyline
70
0
38
0.0000
90
4
10
878.1315
20
351.3806
10
864.6689
20
338.5400
10
862.1269
20
310.2722
10
873.1829
20
289.1119
0
LWPOLYLINE
  5
1464
330
1F
  100
AcDbEntity
8
major_roads
  100
AcDbPolyline
70
0
38
0.0000
90
4
10
1024.9548
20
388.1170
10
916.8216
20
411.5660
10
893.4373
20
416.6388
10
883.4936
20
418.7568
0
LWPOLYLINE
  5
1465
330
1F
  100
AcDbEntity
8
paths
  100
AcDbPolyline
70
0
38
0.0000
90
14
10
1022.0679
20
295.7439
10
1001.5880
20
285.8258
10
990.6083
20
277.6472
10
979.0445
20
265.6243
10
969.0220
20
250.1068
10
963.8074
20
235.3070
10
961.6651
20
222.5952
10
961.4025
20
208.9562
10
962.3102
20
197.2215
10
965.9943
20
181.5663
10
976.1391
20
163.1471
10
993.6322
20
146.3966
10
1017.6816
20
133.9850
10
1033.4382
20
129.8196
0
LWPOLYLINE
  5
1466
330
1F
  100
AcDbEntity
8
paths
  100
AcDbPolyline
70
0
38
0.0000
90
5
10
944.4276
20
129.2663
10
947.7154
20
155.7300
10
953.7154
20
189.7090
10
962.3102
20
197.2215
10
991.1822
20
222.4448
0
LWPOLYLINE
  5
1467
330
1F
  100
AcDbEntity
8
parks
  100
AcDbPolyline
70
0
38
0.0000
90
12
10
822.6343
20
452.7532
10
852.3309
20
493.6110
10
861.4899
20
496.6170
10
869.4059
20
494.0313
10
882.5493
20
479.5541
10
883.5849
20
456.5816
10
883.1380
20
444.0840
10
876.0074
20
431.4978
10
864.2784
20
428.9858
10
831.6545
20
433.8677
10
823.7418
20
445.1207
10
822.6343
20
452.7532
0
LWPOLYLINE
  5
1468
330
1F
  100
AcDbEntity
8
paths
  100
AcDbPolyline
70
0
38
0.0000
90
8
10
944.3513
20
432.9386
10
944.6151
20
425.2598
10
969.1998
20
432.2616
10
996.2019
20
444.1291
10
1012.8120
20
451.5597
10
1009.2415
20
456.4244
10
1011.4090
20
469.7901
10
1009.9923
20
474.1378
0
LWPOLYLINE
  5
1469
330
1F
  100
AcDbEntity
8
paths
  100
AcDbPolyline
70
0
38
0.0000
90
15
10
961.2543
20
291.0788
10
951.2173
20
279.7592
10
941.2444
20
264.5140
10
934.0798
20
247.7749
10
929.9097
20
226.1896
10
930.0469
20
210.0261
10
932.2311
20
191.9519
10
937.5345
20
174.5399
10
945.7757
20
158.3066
10
947.7154
20
155.7300
10
956.7330
20
143.7484
10
970.0512
20
131.3109
10
985.3370
20
121.3544
10
1002.1212
20
114.2180
10
1025.6814
20
107.9479
0
LWPOLYLINE
  5
146a
330
1F
  100
AcDbEntity
8
paths
  100
AcDbPolyline
70
0
38
0.0000
90
4
10
938.1174
20
389.2865
10
1005.9986
20
313.4833
10
1022.0679
20
295.7439
10
1028.2114
20
288.9623
0
LWPOLYLINE
  5
146b
330
1F
  100
AcDbEntity
8
minor_roads
  100
AcDbPolyline
70
0
38
0.0000
90
6
10
930.0479
20
487.0372
10
930.0813
20
471.5327
10
953.1378
20
471.2540
10
977.0424
20
474.1100
10
1003.0065
20
480.2151
10
1021.6901
20
487.5216
0
LWPOLYLINE
  5
146c
330
1F
  100
AcDbEntity
8
minor_roads
  100
AcDbPolyline
70
0
38
0.0000
90
7
10
912.9316
20
485.7291
10
930.0479
20
487.0372
10
936.6290
20
486.3110
10
962.2714
20
486.8356
10
987.6222
20
490.7001
10
1012.2612
20
497.8253
10
1021.2230
20
501.7426
0
LWPOLYLINE
  5
146d
330
1F
  100
AcDbEntity
8
minor_roads
  100
AcDbPolyline
70
0
38
0.0000
90
3
10
763.0890
20
243.3314
10
807.9138
20
233.9606
10
823.1172
20
230.7928
0
LWPOLYLINE
  5
146e
330
1F
  100
AcDbEntity
8
major_roads
  100
AcDbPolyline
70
0
38
0.0000
90
4
10
889.9147
20
499.4717
10
888.1664
20
477.4340
10
884.5169
20
431.5811
10
883.4936
20
418.7568
0
LWPOLYLINE
  5
146f
330
1F
  100
AcDbEntity
8
minor_roads
  100
AcDbPolyline
70
0
38
0.0000
90
3
10
874.8151
20
499.6759
10
855.6628
20
501.3798
10
814.6119
20
453.3950
0
LWPOLYLINE
  5
1470
330
1F
  100
AcDbEntity
8
minor_roads
  100
AcDbPolyline
70
0
38
0.0000
90
4
10
726.3342
20
136.7314
10
730.8300
20
159.3348
10
740.6043
20
209.1294
10
758.9563
20
302.5873
0
LWPOLYLINE
  5
1471
330
1F
  100
AcDbEntity
8
major_roads
  100
AcDbPolyline
70
0
38
0.0000
90
6
10
892.0538
20
407.9916
10
893.4373
20
416.6388
10
893.7666
20
429.8602
10
895.4405
20
451.2983
10
896.1841
20
460.8388
10
899.5718
20
499.4621
0
LWPOLYLINE
  5
1472
330
1F
  100
AcDbEntity
8
major_roads
  100
AcDbPolyline
70
0
38
0.0000
90
4
10
882.7783
20
409.9636
10
892.0538
20
407.9916
10
915.2170
20
403.0422
10
1025.2360
20
379.5556
0
LWPOLYLINE
  5
1473
330
1F
  100
AcDbEntity
8
buildings
  100
AcDbPolyline
70
0
38
0.0000
90
5
10
542.7523
20
560.7481
10
545.2672
20
573.0427
10
548.6828
20
572.3523
10
546.1738
20
560.0579
10
542.7523
20
560.7481
0
LWPOLYLINE
  5
1474
330
1F
  100
AcDbEntity
8
buildings
  100
AcDbPolyline
70
0
38
0.0000
90
21
10
595.6176
20
217.1220
10
596.5433
20
221.4812
10
599.6479
20
222.0494
10
599.0709
20
225.1465
10
602.8132
20
227.5735
10
607.2068
20
228.3985
10
611.5699
20
227.4685
10
612.1469
20
224.3714
10
615.2508
20
224.9582
10
617.6925
20
221.2131
10
618.5107
20
216.8457
10
617.5792
20
212.4864
10
614.4749
20
211.9089
10
615.0519
20
208.8117
10
611.3154
20
206.3849
10
606.9215
20
205.5693
10
602.5529
20
206.4897
10
601.9759
20
209.5868
10
598.8660
20
208.9998
10
596.4364
20
212.7360
10
595.6176
20
217.1220
0
LWPOLYLINE
  5
1475
330
1F
  100
AcDbEntity
8
paths
  100
AcDbPolyline
70
0
38
0.0000
90
5
10
458.7386
20
248.2691
10
457.4594
20
242.3311
10
461.9724
20
241.4805
10
466.3432
20
240.6720
10
467.7812
20
246.4194
0
LWPOLYLINE
  5
1476
330
1F
  100
AcDbEntity
8
buildings
  100
AcDbPolyline
70
0
38
0.0000
90
5
10
455.2964
20
112.1892
10
456.6326
20
118.7169
10
467.8257
20
116.4617
10
466.5018
20
109.9158
10
455.2964
20
112.1892
0
LWPOLYLINE
  5
1477
330
1F
  100
AcDbEntity
8
buildings
  100
AcDbPolyline
70
0
38
0.0000
90
6
10
370.5371
20
110.2928
10
376.6214
20
140.1968
10
405.5325
20
134.3508
10
404.4955
20
129.2603
10
399.4542
20
104.4470
10
370.5371
20
110.2928
0
LWPOLYLINE
  5
1478
330
1F
  100
AcDbEntity
8
paths
  100
AcDbPolyline
70
0
38
0.0000
90
3
10
309.0571
20
252.3283
10
306.1710
20
250.2841
10
303.6284
20
248.1485
0
LWPOLYLINE
  5
1479
330
1F
  100
AcDbEntity
8
paths
  100
AcDbPolyline
70
0
38
0.0000
90
3
10
238.4481
20
276.6645
10
239.4637
20
275.0464
10
242.9323
20
270.0473
0
LWPOLYLINE
  5
147a
330
1F
  100
AcDbEntity
8
paths
  100
AcDbPolyline
70
0
38
0.0000
90
3
10
289.3989
20
241.6563
10
286.5478
20
228.8471
10
285.7774
20
225.8365
0
LWPOLYLINE
  5
147b
330
1F
  100
AcDbEntity
8
paths
  100
AcDbPolyline
70
0
38
0.0000
90
4
10
257.8917
20
255.4693
10
261.9891
20
254.3998
10
276.6926
20
250.5237
10
283.0874
20
248.8575
0
LWPOLYLINE
  5
147c
330
1F
  100
AcDbEntity
8
paths
  100
AcDbPolyline
70
0
38
0.0000
90
3
10
252.7790
20
249.1634
10
249.6446
20
236.5782
10
248.8591
20
235.1064
0
LWPOLYLINE
  5
147d
330
1F
  100
AcDbEntity
8
minor_roads
  100
AcDbPolyline
70
0
38
0.0000
90
2
10
286.3213
20
61.6098
10
340.5740
20
48.8581
0
LWPOLYLINE
  5
147e
330
1F
  100
AcDbEntity
8
major_roads
  100
AcDbPolyline
70
0
38
0.0000
90
3
10
137.8480
20
240.5935
10
244.8477
20
218.0984
10
254.1582
20
216.1357
0
LWPOLYLINE
  5
147f
330
1F
  100
AcDbEntity
8
paths
  100
AcDbPolyline
70
0
38
0.0000
90
4
10
320.8886
20
554.3450
10
326.0892
20
553.4609
10
340.5515
20
551.0138
10
344.8782
20
550.2877
0
LWPOLYLINE
  5
1480
330
1F
  100
AcDbEntity
8
minor_roads
  100
AcDbPolyline
70
0
38
0.0000
90
3
10
382.2080
20
284.1834
10
497.4627
20
306.8662
10
511.2800
20
319.1203
0
LWPOLYLINE
  5
1481
330
1F
  100
AcDbEntity
8
minor_roads
  100
AcDbPolyline
70
0
38
0.0000
90
4
10
347.9021
20
84.5402
10
344.0837
20
65.9431
10
340.5740
20
48.8581
10
334.6943
20
20.2297
0
LWPOLYLINE
  5
1482
330
1F
  100
AcDbEntity
8
paths
  100
AcDbPolyline
70
0
38
0.0000
90
5
10
311.1319
20
257.6393
10
311.6666
20
264.8031
10
326.5275
20
336.3514
10
327.4400
20
342.7346
10
329.1571
20
348.3884
0
LWPOLYLINE
  5
1483
330
1F
  100
AcDbEntity
8
paths
  100
AcDbPolyline
70
0
38
0.0000
90
2
10
461.9724
20
241.4805
10
458.8353
20
225.4059
0
LWPOLYLINE
  5
1484
330
1F
  100
AcDbEntity
8
paths
  100
AcDbPolyline
70
0
38
0.0000
90
2
10
457.4594
20
242.3311
10
425.2407
20
232.3017
0
LWPOLYLINE
  5
1485
330
1F
  100
AcDbEntity
8
paths
  100
AcDbPolyline
70
0
38
0.0000
90
2
10
326.5275
20
336.3514
10
395.3919
20
230.5786
0
LWPOLYLINE
  5
1486
330
1F
  100
AcDbEntity
8
major_roads
  100
AcDbPolyline
70
0
38
0.0000
90
4
10
414.1835
20
517.9804
10
351.1472
20
531.6380
10
337.0885
20
534.6673
10
322.7219
20
537.7799
0
LWPOLYLINE
  5
1487
330
1F
  100
AcDbEntity
8
minor_roads
  100
AcDbPolyline
70
0
38
0.0000
90
5
10
354.1542
20
337.7868
10
456.1546
20
355.1932
10
465.5769
20
358.7763
10
471.9001
20
366.1110
10
489.7909
20
431.8162
0
LWPOLYLINE
  5
1488
330
1F
  100
AcDbEntity
8
minor_roads
  100
AcDbPolyline
70
0
38
0.0000
90
2
10
490.7620
20
132.0930
10
569.5229
20
116.3675
0
LWPOLYLINE
  5
1489
330
1F
  100
AcDbEntity
8
major_roads
  100
AcDbPolyline
70
0
38
0.0000
90
2
10
268.3393
20
213.1568
10
272.7040
20
231.7437
0
LWPOLYLINE
  5
148a
330
1F
  100
AcDbEntity
8
paths
  100
AcDbPolyline
70
0
38
0.0000
90
2
10
281.1630
20
103.7408
10
292.0049
20
187.4536
0
LWPOLYLINE
  5
148b
330
1F
  100
AcDbEntity
8
paths
  100
AcDbPolyline
70
0
38
0.0000
90
3
10
303.1166
20
515.4758
10
290.2971
20
518.1259
10
292.9175
20
530.2652
0
LWPOLYLINE
  5
148c
330
1F
  100
AcDbEntity
8
major_roads
  100
AcDbPolyline
70
0
38
0.0000
90
8
10
137.8480
20
240.5935
10
194.5435
20
220.5685
10
215.9819
20
208.5718
10
217.6135
20
206.6100
10
222.2281
20
201.0325
10
228.6706
20
193.2385
10
237.3785
20
172.5319
10
241.4614
20
149.8177
0
LWPOLYLINE
  5
148d
330
1F
  100
AcDbEntity
8
buildings
  100
AcDbPolyline
70
0
38
0.0000
90
8
10
415.9924
20
93.8581
10
422.4559
20
125.6218
10
423.4922
20
130.7309
10
451.4043
20
125.0951
10
453.6148
20
124.6450
10
452.5782
20
119.5452
10
446.1210
20
87.7724
10
415.9924
20
93.8581
0
LWPOLYLINE
  5
148e
330
1F
  100
AcDbEntity
8
minor_roads
  100
AcDbPolyline
70
0
38
0.0000
90
9
10
247.9522
20
105.5285
10
277.3561
20
99.5114
10
282.8602
20
98.3386
10
292.6912
20
96.2623
10
347.9021
20
84.5402
10
520.3966
20
46.5979
10
552.8143
20
39.4682
10
592.7563
20
30.7938
10
597.3331
20
29.7962
0
LWPOLYLINE
  5
148f
330
1F
  100
AcDbEntity
8
paths
  100
AcDbPolyline
70
0
38
0.0000
90
2
10
281.1630
20
103.7408
10
377.6167
20
171.1470
0
LWPOLYLINE
  5
1490
330
1F
  100
AcDbEntity
8
minor_roads
  100
AcDbPolyline
70
0
38
0.0000
90
8
10
658.2391
20
458.6423
10
657.2882
20
448.7872
10
655.0011
20
437.7875
10
651.7448
20
422.1472
10
656.5633
20
375.0700
10
658.5877
20
356.4681
10
661.0637
20
330.8933
10
663.5131
20
311.3257
0
LWPOLYLINE
  5
1491
330
1F
  100
AcDbEntity
8
buildings
  100
AcDbPolyline
70
0
38
0.0000
90
14
10
429.5267
20
384.5864
10
432.0646
20
386.8619
10
429.2940
20
391.6972
10
430.6610
20
400.5116
10
443.1708
20
408.5898
10
454.2889
20
392.1048
10
457.3856
20
393.9880
10
465.7597
20
381.5275
10
454.4860
20
373.3497
10
447.2651
20
371.7419
10
441.3195
20
372.7788
10
435.8490
20
376.1636
10
432.4695
20
378.7959
10
429.5267
20
384.5864
0
LWPOLYLINE
  5
1492
330
1F
  100
AcDbEntity
8
buildings
  100
AcDbPolyline
70
0
38
0.0000
90
13
10
357.2944
20
393.6142
10
375.4316
20
484.1247
10
388.6200
20
481.5055
10
389.6037
20
486.4263
10
417.5059
20
480.8554
10
408.1740
20
434.3319
10
412.3045
20
433.5062
10
408.9133
20
416.5835
10
412.0568
20
415.9587
10
408.5339
20
398.3974
10
411.2698
20
397.8525
10
408.3894
20
383.4376
10
357.2944
20
393.6142
0
LWPOLYLINE
  5
1493
330
1F
  100
AcDbEntity
8
minor_roads
  100
AcDbPolyline
70
0
38
0.0000
90
2
10
399.8472
20
184.8423
10
438.8509
20
168.7378
0
LWPOLYLINE
  5
1494
330
1F
  100
AcDbEntity
8
paths
  100
AcDbPolyline
70
0
38
0.0000
90
3
10
259.4881
20
7.4340
10
277.3561
20
99.5114
10
281.1630
20
103.7408
0
LWPOLYLINE
  5
1495
330
1F
  100
AcDbEntity
8
minor_roads
  100
AcDbPolyline
70
0
38
0.0000
90
2
10
614.2937
20
20.3133
10
614.0458
20
19.0435
0
LWPOLYLINE
  5
1496
330
1F
  100
AcDbEntity
8
buildings
  100
AcDbPolyline
70
0
38
0.0000
90
5
10
342.7627
20
10.1607
10
321.0167
20
9.4487
10
322.8617
20
17.7996
10
343.4518
20
13.2858
10
342.7627
20
10.1607
0
LWPOLYLINE
  5
1497
330
1F
  100
AcDbEntity
8
buildings
  100
AcDbPolyline
70
0
38
0.0000
90
5
10
487.6395
20
14.9045
10
455.8342
20
13.8631
10
461.5180
20
39.5860
10
491.6348
20
32.9776
10
487.6395
20
14.9045
0
LWPOLYLINE
  5
1498
330
1F
  100
AcDbEntity
8
minor_roads
  100
AcDbPolyline
70
0
38
0.0000
90
4
10
619.5412
20
130.3768
10
617.3283
20
120.3311
10
597.3331
20
29.7962
10
594.8197
20
18.4140
0
LWPOLYLINE
  5
1499
330
1F
  100
AcDbEntity
8
major_roads
  100
AcDbPolyline
70
0
38
0.0000
90
4
10
229.1826
20
6.4417
10
247.9522
20
105.5285
10
255.5329
20
145.5290
10
268.3393
20
213.1568
0
LWPOLYLINE
  5
149a
330
1F
  100
AcDbEntity
8
minor_roads
  100
AcDbPolyline
70
0
38
0.0000
90
3
10
13.9948
20
565.2874
10
25.8246
20
586.0039
10
38.9450
20
604.8672
0
LWPOLYLINE
  5
149b
330
1F
  100
AcDbEntity
8
paths
  100
AcDbPolyline
70
0
38
0.0000
90
4
10
713.4104
20
264.6718
10
716.0807
20
248.0410
10
719.9413
20
221.6065
10
725.0219
20
220.4576
0
LWPOLYLINE
  5
149c
330
1F
  100
AcDbEntity
8
minor_roads
  100
AcDbPolyline
70
0
38
0.0000
90
8
10
822.5758
20
431.2748
10
814.6119
20
453.3950
10
803.5005
20
467.4912
10
676.7523
20
494.8876
10
541.8434
20
522.0011
10
451.3271
20
537.6497
10
435.8029
20
530.2098
10
414.1835
20
517.9804
0
LWPOLYLINE
  5
149d
330
1F
  100
AcDbEntity
8
major_roads
  100
AcDbPolyline
70
0
38
0.0000
90
9
10
268.3393
20
213.1568
10
321.0595
20
201.8008
10
399.8472
20
184.8423
10
783.8028
20
102.2027
10
825.7232
20
93.1752
10
856.2205
20
86.6095
10
866.0766
20
84.4978
10
901.3752
20
76.8957
10
1036.1286
20
47.9015
0
LWPOLYLINE
  5
149e
330
1F
  100
AcDbEntity
8
minor_roads
  100
AcDbPolyline
70
0
38
0.0000
90
4
10
701.2500
20
612.5235
10
719.9422
20
608.0051
10
740.6704
20
602.9845
10
766.7887
20
596.6759
0
LWPOLYLINE
  5
149f
330
1F
  100
AcDbEntity
8
paths
  100
AcDbPolyline
70
0
38
0.0000
90
6
10
814.6119
20
453.3950
10
806.7005
20
456.0183
10
674.2206
20
484.1877
10
435.8029
20
530.2098
10
372.3703
20
545.0390
10
355.0625
20
548.5124
0
LWPOLYLINE
  5
14a0
330
1F
  100
AcDbEntity
8
minor_roads
  100
AcDbPolyline
70
0
38
0.0000
90
4
10
554.6799
20
458.9719
10
655.0011
20
437.7875
10
758.0598
20
416.0416
10
820.3132
20
402.8950
0
LWPOLYLINE
  5
14a1
330
1F
  100
AcDbEntity
8
minor_roads
  100
AcDbPolyline
70
0
38
0.0000
90
6
10
582.1752
20
197.1831
10
639.9416
20
203.1432
10
674.0641
20
206.6684
10
691.3300
20
208.4564
10
723.2814
20
211.0525
10
740.6043
20
209.1294
0
LWPOLYLINE
  5
14a2
330
1F
  100
AcDbEntity
8
buildings
  100
AcDbPolyline
70
0
38
0.0000
90
16
10
723.6614
20
22.6327
10
705.1844
20
22.0277
10
704.6207
20
22.3775
10
701.4770
20
26.7619
10
700.2478
20
32.0208
10
701.1303
20
37.3395
10
703.9802
20
41.9204
10
708.3685
20
45.0590
10
713.6415
20
46.2860
10
718.9717
20
45.4065
10
723.5621
20
42.5622
10
726.7117
20
38.1780
10
727.9406
20
32.9285
10
727.0585
20
27.6004
10
724.2027
20
23.0193
10
723.6614
20
22.6327
0
LWPOLYLINE
  5
14a3
330
1F
  100
AcDbEntity
8
paths
  100
AcDbPolyline
70
0
38
0.0000
90
4
10
905.6721
20
964.2430
10
904.2932
20
956.7155
10
902.6208
20
949.0104
10
900.8242
20
938.8289
0
LWPOLYLINE
  5
14a4
330
1F
  100
AcDbEntity
8
paths
  100
AcDbPolyline
70
0
38
0.0000
90
4
10
917.4055
20
924.0262
10
920.1053
20
923.4991
10
929.6476
20
921.6012
10
931.6978
20
921.1927
0
LWPOLYLINE
  5
14a5
330
1F
  100
AcDbEntity
8
paths
  100
AcDbPolyline
70
0
38
0.0000
90
4
10
952.7878
20
919.9633
10
950.8652
20
910.2255
10
936.9950
20
903.2394
10
935.4733
20
871.9916
0
LWPOLYLINE
  5
14a6
330
1F
  100
AcDbEntity
8
buildings
  100
AcDbPolyline
70
0
38
0.0000
90
5
10
748.4644
20
782.9444
10
752.4240
20
800.3898
10
772.8562
20
795.7794
10
768.9026
20
778.3342
10
748.4644
20
782.9444
0
LWPOLYLINE
  5
14a7
330
1F
  100
AcDbEntity
8
buildings
  100
AcDbPolyline
70
0
38
0.0000
90
5
10
791.1205
20
729.4861
10
792.4337
20
735.2668
10
797.6209
20
734.0748
10
796.3071
20
728.3127
10
791.1205
20
729.4861
0
LWPOLYLINE
  5
14a8
330
1F
  100
AcDbEntity
8
buildings
  100
AcDbPolyline
70
0
38
0.0000
90
7
10
721.2174
20
658.2768
10
729.4588
20
694.6334
10
749.0927
20
690.2113
10
744.8459
20
671.4971
10
742.6707
20
661.9284
10
740.8456
20
653.8545
10
721.2174
20
658.2768
0
LWPOLYLINE
  5
14a9
330
1F
  100
AcDbEntity
8
buildings
  100
AcDbPolyline
70
0
38
0.0000
90
5
10
765.8151
20
764.7238
10
768.0975
20
774.7812
10
793.7574
20
768.9989
10
791.4637
20
758.9318
10
765.8151
20
764.7238
0
LWPOLYLINE
  5
14aa
330
1F
  100
AcDbEntity
8
buildings
  100
AcDbPolyline
70
0
38
0.0000
90
9
10
772.9579
20
677.9514
10
776.6437
20
694.0817
10
780.1923
20
693.2744
10
782.7117
20
692.7040
10
787.9042
20
691.5309
10
790.1403
20
691.0071
10
793.8777
20
690.1688
10
790.1923
20
674.0292
10
772.9579
20
677.9514
0
LWPOLYLINE
  5
14ab
330
1F
  100
AcDbEntity
8
paths
  100
AcDbPolyline
70
0
38
0.0000
90
2
10
910.0341
20
676.6646
10
888.0915
20
683.4546
0
LWPOLYLINE
  5
14ac
330
1F
  100
AcDbEntity
8
paths
  100
AcDbPolyline
70
0
38
0.0000
90
6
10
727.2829
20
735.9290
10
767.0402
20
728.4444
10
764.4659
20
711.7161
10
764.2142
20
710.0846
10
760.9469
20
694.9756
10
720.4624
20
703.8639
0
LWPOLYLINE
  5
14ad
330
1F
  100
AcDbEntity
8
paths
  100
AcDbPolyline
70
0
38
0.0000
90
14
10
824.9908
20
733.0788
10
814.8739
20
738.8857
10
808.2870
20
742.6626
10
812.2099
20
754.7797
10
818.4568
20
764.4074
10
822.3963
20
770.4702
10
826.6826
20
775.0890
10
834.8188
20
783.8457
10
839.4570
20
788.8306
10
841.9886
20
790.9288
10
861.5785
20
807.1612
10
869.7738
20
812.1509
10
876.8636
20
816.4792
10
897.1240
20
824.2626
0
LWPOLYLINE
  5
14ae
330
1F
  100
AcDbEntity
8
paths
  100
AcDbPolyline
70
0
38
0.0000
90
19
10
861.5880
20
672.5277
10
862.4655
20
683.8918
10
863.6988
20
689.2408
10
865.6959
20
698.3279
10
870.6124
20
709.1435
10
875.4853
20
717.8866
10
876.4552
20
719.6350
10
877.0654
20
720.7186
10
881.5508
20
725.7078
10
886.2687
20
730.9472
10
887.2599
20
731.6888
10
894.9110
20
737.3417
10
895.7191
20
737.9373
10
903.9554
20
742.7511
10
913.4850
20
747.3275
10
925.8773
20
751.4287
10
932.2466
20
752.8507
10
944.6100
20
753.1819
10
953.7342
20
752.7631
0
LWPOLYLINE
  5
14af
330
1F
  100
AcDbEntity
8
minor_roads
  100
AcDbPolyline
70
0
38
0.0000
90
2
10
772.4695
20
1011.9494
10
769.4184
20
998.4895
0
LWPOLYLINE
  5
14b0
330
1F
  100
AcDbEntity
8
paths
  100
AcDbPolyline
70
0
38
0.0000
90
6
10
888.0915
20
683.4546
10
863.6988
20
689.2408
10
847.7661
20
693.0282
10
812.2979
20
701.4553
10
809.2808
20
702.1679
10
774.0955
20
709.8489
0
LWPOLYLINE
  5
14b1
330
1F
  100
AcDbEntity
8
minor_roads
  100
AcDbPolyline
70
0
38
0.0000
90
3
10
1008.4651
20
890.1904
10
1006.5566
20
883.3195
10
1008.7079
20
882.7978
0
LWPOLYLINE
  5
14b2
330
1F
  100
AcDbEntity
8
minor_roads
  100
AcDbPolyline
70
0
38
0.0000
90
3
10
745.6121
20
822.8463
10
788.5951
20
812.9207
10
814.7156
20
806.8738
0
LWPOLYLINE
  5
14b3
330
1F
  100
AcDbEntity
8
buildings
  100
AcDbPolyline
70
0
38
0.0000
90
11
10
1009.9355
20
845.4191
10
1010.5124
20
827.8546
10
1006.3739
20
829.7248
10
985.9725
20
835.8933
10
964.9322
20
839.3540
10
952.5215
20
839.7582
10
952.8827
20
855.5742
10
966.7800
20
855.1256
10
980.0780
20
853.6217
10
995.0606
20
850.5126
10
1009.9355
20
845.4191
0
LWPOLYLINE
  5
14b4
330
1F
  100
AcDbEntity
8
major_roads
  100
AcDbPolyline
70
0
38
0.0000
90
7
10
925.4496
20
863.5179
10
926.9566
20
883.0567
10
929.6476
20
921.6012
10
931.3376
20
942.7134
10
931.6055
20
950.4657
10
935.0068
20
972.7349
10
942.9822
20
1024.8250
0
LWPOLYLINE
  5
14b5
330
1F
  100
AcDbEntity
8
paths
  100
AcDbPolyline
70
0
38
0.0000
90
2
10
1018.7585
20
576.7814
10
1015.0980
20
581.6134
0
LWPOLYLINE
  5
14b6
330
1F
  100
AcDbEntity
8
paths
  100
AcDbPolyline
70
0
38
0.0000
90
6
10
809.4143
20
669.2859
10
797.7339
20
669.2479
10
800.6487
20
649.1079
10
805.6153
20
629.4084
10
808.4942
20
621.6381
10
817.2382
20
624.4065
0
LWPOLYLINE
  5
14b7
330
1F
  100
AcDbEntity
8
paths
  100
AcDbPolyline
70
0
38
0.0000
90
3
10
877.0515
20
554.9612
10
879.5021
20
558.4562
10
880.4510
20
570.1492
0
LWPOLYLINE
  5
14b8
330
1F
  100
AcDbEntity
8
paths
  100
AcDbPolyline
70
0
38
0.0000
90
24
10
880.4510
20
570.1492
10
881.5458
20
582.9385
10
874.2897
20
587.2438
10
868.7237
20
591.7446
10
862.3526
20
599.4936
10
858.0627
20
604.4654
10
852.1861
20
605.5507
10
846.7772
20
609.9167
10
845.1150
20
612.9875
10
844.2032
20
614.6556
10
843.0525
20
619.3106
10
843.7820
20
623.0196
10
846.0595
20
627.4979
10
843.7624
20
632.3858
10
839.9935
20
647.5998
10
838.1300
20
656.6256
10
824.6755
20
654.4769
10
826.5366
20
641.0475
10
830.2242
20
628.3124
10
840.2330
20
609.7020
10
852.9196
20
591.0674
10
863.2406
20
581.1996
10
873.1558
20
573.8561
10
880.4510
20
570.1492
0
LWPOLYLINE
  5
14b9
330
1F
  100
AcDbEntity
8
paths
  100
AcDbPolyline
70
0
38
0.0000
90
3
10
1016.1172
20
657.2012
10
995.7432
20
661.5286
10
973.6109
20
666.2223
0
LWPOLYLINE
  5
14ba
330
1F
  100
AcDbEntity
8
major_roads
  100
AcDbPolyline
70
0
38
0.0000
90
2
10
899.5718
20
499.4621
10
925.4496
20
863.5179
0
LWPOLYLINE
  5
14bb
330
1F
  100
AcDbEntity
8
buildings
  100
AcDbPolyline
70
0
38
0.0000
90
17
10
839.0443
20
662.2160
10
869.0575
20
665.8317
10
873.1537
20
647.9788
10
879.5410
20
634.3715
10
891.2357
20
619.8468
10
887.6732
20
614.4587
10
884.8437
20
586.7319
10
872.5269
20
593.5580
10
864.7540
20
602.5205
10
858.1857
20
612.1662
10
854.2193
20
613.3609
10
851.2595
20
616.2585
10
849.9972
20
620.2008
10
850.7086
20
624.2825
10
850.7484
20
624.3211
10
845.6761
20
634.3518
10
839.0443
20
662.2160
0
LWPOLYLINE
  5
14bc
330
1F
  100
AcDbEntity
8
buildings
  100
AcDbPolyline
70
0
38
0.0000
90
20
10
1016.4819
20
646.0975
10
1017.7821
20
606.5091
10
1004.7145
20
595.1640
10
988.3686
20
583.8143
10
970.1686
20
576.7233
10
951.6495
20
573.9882
10
937.1847
20
573.2801
10
923.5429
20
576.1163
10
928.8026
20
609.0261
10
941.8308
20
607.5319
10
951.1251
20
608.5554
10
950.0831
20
613.6524
10
962.1440
20
616.2315
10
973.9159
20
621.5347
10
982.4680
20
627.1053
10
989.4281
20
633.6033
10
993.9486
20
629.4788
10
999.8740
20
638.8816
10
1006.1818
20
650.2282
10
1016.4819
20
646.0975
0
LWPOLYLINE
  5
14bd
330
1F
  100
AcDbEntity
8
parks
  100
AcDbPolyline
70
0
38
0.0000
90
25
10
893.1948
20
671.5871
10
894.4775
20
684.5505
10
899.0842
20
696.7554
10
906.6967
20
707.3424
10
916.7975
20
715.6226
10
928.7016
20
721.0047
10
941.5933
20
723.1259
10
954.5963
20
721.8548
10
966.8278
20
717.2651
10
977.4558
20
709.6654
10
985.7463
20
699.6005
10
991.1436
20
687.7241
10
993.2680
20
674.8725
10
991.9916
20
661.8999
10
987.3848
20
649.7042
10
979.7730
20
639.0985
10
969.6657
20
630.8366
10
957.7617
20
625.4451
10
944.8701
20
623.3146
10
931.8665
20
624.5950
10
919.6345
20
629.1941
10
909.0129
20
636.7755
10
900.7219
20
646.8591
10
895.3251
20
658.7263
10
893.1948
20
671.5871
0
LWPOLYLINE
  5
14be
330
1F
  100
AcDbEntity
8
parks
  100
AcDbPolyline
70
0
38
0.0000
90
20
10
918.8200
20
672.4282
10
920.0186
20
680.7988
10
924.0178
20
688.2630
10
930.3366
20
693.9095
10
938.2049
20
697.0600
10
946.6840
20
697.3384
10
954.7479
20
694.7110
10
961.4176
20
689.4908
10
965.8977
20
682.3050
10
967.6486
20
674.0312
10
966.6997
20
666.4618
10
963.4568
20
659.5635
10
958.2330
20
653.9995
10
951.5385
20
650.3185
10
944.0308
20
648.8778
10
936.4507
20
649.8231
10
929.5292
20
653.0572
10
923.9517
20
658.2665
10
920.2575
20
664.9371
10
918.8200
20
672.4282
0
LWPOLYLINE
  5
14bf
330
1F
  100
AcDbEntity
8
paths
  100
AcDbPolyline
70
0
38
0.0000
90
5
10
954.4009
20
459.9602
10
962.5656
20
449.4433
10
968.9781
20
442.5914
10
980.1113
20
440.5406
10
996.2019
20
444.1291
0
LWPOLYLINE
  5
14c0
330
1F
  100
AcDbEntity
8
paths
  100
AcDbPolyline
70
0
38
0.0000
90
4
10
874.0085
20
391.3341
10
881.2322
20
390.3490
10
890.5846
20
389.0792
10
896.0272
20
388.3435
0
LWPOLYLINE
  5
14c1
330
1F
  100
AcDbEntity
8
paths
  100
AcDbPolyline
70
0
38
0.0000
90
5
10
859.9370
20
435.7006
10
859.1253
20
443.7999
10
845.1190
20
447.5386
10
831.1265
20
451.0353
10
814.6119
20
453.3950
0
LWPOLYLINE
  5
14c2
330
1F
  100
AcDbEntity
8
minor_roads
  100
AcDbPolyline
70
0
38
0.0000
90
3
10
761.8607
20
436.1873
10
760.3209
20
426.7514
10
758.0598
20
416.0416
0
LWPOLYLINE
  5
14c3
330
1F
  100
AcDbEntity
8
buildings
  100
AcDbPolyline
70
0
38
0.0000
90
17
10
1003.6531
20
200.4075
10
1003.7669
20
201.0550
10
1004.1124
20
201.6168
10
1004.6459
20
201.9981
10
1005.2929
20
202.1406
10
1005.9419
20
202.0407
10
1006.4993
20
201.6951
10
1006.8868
20
201.1574
10
1007.0369
20
200.5186
10
1006.9290
20
199.8713
10
1006.5776
20
199.3094
10
1006.0442
20
198.9280
10
1005.4033
20
198.7763
10
1004.7481
20
198.8854
10
1004.1908
20
199.2310
10
1003.8091
20
199.7689
10
1003.6531
20
200.4075
0
LWPOLYLINE
  5
14c4
330
1F
  100
AcDbEntity
8
minor_roads
  100
AcDbPolyline
70
0
38
0.0000
90
2
10
834.4384
20
298.5416
10
832.9086
20
283.2564
0
LWPOLYLINE
  5
14c5
330
1F
  100
AcDbEntity
8
buildings
  100
AcDbPolyline
70
0
38
0.0000
90
11
10
759.0294
20
175.0279
10
770.0376
20
227.1114
10
801.7584
20
220.4456
10
797.2097
20
198.9319
10
792.7642
20
199.8683
10
789.8834
20
186.2088
10
794.3228
20
185.2815
10
790.7505
20
168.3620
10
779.9203
20
170.6470
10
763.5573
20
174.0848
10
759.0294
20
175.0279
0
LWPOLYLINE
  5
14c6
330
1F
  100
AcDbEntity
8
paths
  100
AcDbPolyline
70
0
38
0.0000
90
2
10
830.6286
20
144.2657
10
832.8043
20
136.6403
0
LWPOLYLINE
  5
14c7
330
1F
  100
AcDbEntity
8
paths
  100
AcDbPolyline
70
0
38
0.0000
90
4
10
877.1683
20
125.7808
10
870.2642
20
127.5695
10
860.5600
20
130.4231
10
847.1709
20
133.5757
0
LWPOLYLINE
  5
14c8
330
1F
  100
AcDbEntity
8
paths
  100
AcDbPolyline
70
0
38
0.0000
90
4
10
849.2138
20
68.2618
10
855.4933
20
66.7232
10
865.2857
20
63.5086
10
876.8991
20
59.7286
0
LWPOLYLINE
  5
14c9
330
1F
  100
AcDbEntity
8
paths
  100
AcDbPolyline
70
0
38
0.0000
90
3
10
1024.3291
20
407.1679
10
944.6151
20
425.2598
10
919.1206
20
432.2037
0
LWPOLYLINE
  5
14ca
330
1F
  100
AcDbEntity
8
minor_roads
  100
AcDbPolyline
70
0
38
0.0000
90
6
10
915.1139
20
524.4061
10
954.3501
20
526.0580
10
991.2250
20
533.2956
10
996.3381
20
535.2641
10
1018.7202
20
543.8919
10
1019.8126
20
544.6846
0
LWPOLYLINE
  5
14cb
330
1F
  100
AcDbEntity
8
paths
  100
AcDbPolyline
70
0
38
0.0000
90
3
10
981.8381
20
575.4925
10
985.5366
20
565.1183
10
996.3381
20
535.2641
0
LWPOLYLINE
  5
14cc
330
1F
  100
AcDbEntity
8
parks
  100
AcDbPolyline
70
0
38
0.0000
90
5
10
763.3710
20
490.7396
10
768.0016
20
512.4332
10
809.7432
20
503.5678
10
805.1124
20
481.8835
10
763.3710
20
490.7396
0
LWPOLYLINE
  5
14cd
330
1F
  100
AcDbEntity
8
paths
  100
AcDbPolyline
70
0
38
0.0000
90
7
10
877.1683
20
125.7808
10
899.7020
20
383.5195
10
902.5339
20
385.9541
10
913.2518
20
390.4762
10
938.1174
20
389.2865
10
996.4056
20
376.0678
10
1025.5697
20
369.3968
0
LWPOLYLINE
  5
14ce
330
1F
  100
AcDbEntity
8
paths
  100
AcDbPolyline
70
0
38
0.0000
90
5
10
826.2656
20
91.4951
10
824.6467
20
79.9947
10
823.4771
20
72.8753
10
849.2138
20
68.2618
10
826.2656
20
91.4951
0
LWPOLYLINE
  5
14cf
330
1F
  100
AcDbEntity
8
minor_roads
  100
AcDbPolyline
70
0
38
0.0000
90
4
10
775.6305
20
295.0175
10
769.1750
20
258.6074
10
763.0890
20
243.3314
10
747.7627
20
174.3320
0
LWPOLYLINE
  5
14d0
330
1F
  100
AcDbEntity
8
buildings
  100
AcDbPolyline
70
0
38
0.0000
90
5
10
821.5572
20
25.8382
10
809.9689
20
25.4587
10
811.7131
20
53.5040
10
823.2376
20
52.7904
10
821.5572
20
25.8382
0
LWPOLYLINE
  5
14d1
330
1F
  100
AcDbEntity
8
paths
  100
AcDbPolyline
70
0
38
0.0000
90
2
10
898.9054
20
55.0116
10
1004.8851
20
31.8410
0
LWPOLYLINE
  5
14d2
330
1F
  100
AcDbEntity
8
minor_roads
  100
AcDbPolyline
70
0
38
0.0000
90
2
10
561.3911
20
402.1142
10
610.6810
20
408.3469
0
LWPOLYLINE
  5
14d3
330
1F
  100
AcDbEntity
8
minor_roads
  100
AcDbPolyline
70
0
38
0.0000
90
2
10
559.1804
20
420.8593
10
609.2355
20
427.2010
0
LWPOLYLINE
  5
14d4
330
1F
  100
AcDbEntity
8
buildings
  100
AcDbPolyline
70
0
38
0.0000
90
21
10
686.3510
20
279.9435
10
687.2710
20
284.2932
10
690.3752
20
284.8707
10
689.7982
20
287.9679
10
693.5404
20
290.3949
10
697.9340
20
291.2200
10
702.3028
20
290.2903
10
702.8799
20
287.1932
10
705.9838
20
287.7800
10
708.4196
20
284.0348
10
709.2382
20
279.6581
10
708.3123
20
275.3082
10
705.2081
20
274.7307
10
705.7851
20
271.6336
10
702.0370
20
269.2063
10
697.6552
20
268.3816
10
693.2805
20
269.3111
10
692.7034
20
272.4083
10
689.5995
20
271.8214
10
687.1640
20
275.5573
10
686.3510
20
279.9435
0
LWPOLYLINE
  5
14d5
330
1F
  100
AcDbEntity
8
buildings
  100
AcDbPolyline
70
0
38
0.0000
90
5
10
491.5022
20
251.8699
10
493.5027
20
261.0596
10
502.6135
20
259.1002
10
500.6078
20
249.8916
10
491.5022
20
251.8699
0
LWPOLYLINE
  5
14d6
330
1F
  100
AcDbEntity
8
buildings
  100
AcDbPolyline
70
0
38
0.0000
90
5
10
456.6326
20
118.7169
10
457.6631
20
123.8259
10
472.2073
20
120.8874
10
471.1707
20
115.7875
10
456.6326
20
118.7169
0
LWPOLYLINE
  5
14d7
330
1F
  100
AcDbEntity
8
buildings
  100
AcDbPolyline
70
0
38
0.0000
90
5
10
406.6880
20
121.1035
10
408.2012
20
128.5046
10
419.0872
20
126.3045
10
417.5743
20
118.8941
10
406.6880
20
121.1035
0
LWPOLYLINE
  5
14d8
330
1F
  100
AcDbEntity
8
major_roads
  100
AcDbPolyline
70
0
38
0.0000
90
2
10
272.7040
20
231.7437
10
257.8258
20
234.8585
0
LWPOLYLINE
  5
14d9
330
1F
  100
AcDbEntity
8
paths
  100
AcDbPolyline
70
0
38
0.0000
90
4
10
352.9093
20
537.1720
10
351.1472
20
531.6380
10
349.2767
20
525.6526
10
346.6521
20
516.5172
0
LWPOLYLINE
  5
14da
330
1F
  100
AcDbEntity
8
paths
  100
AcDbPolyline
70
0
38
0.0000
90
4
10
312.9960
20
512.9721
10
317.1850
20
511.9709
10
331.5272
20
508.5309
10
335.6927
20
507.5290
0
LWPOLYLINE
  5
14db
330
1F
  100
AcDbEntity
8
paths
  100
AcDbPolyline
70
0
38
0.0000
90
4
10
310.0987
20
546.9950
10
308.8873
20
540.7793
10
307.6604
20
534.6751
10
306.3851
20
528.4386
0
LWPOLYLINE
  5
14dc
330
1F
  100
AcDbEntity
8
buildings
  100
AcDbPolyline
70
0
38
0.0000
90
5
10
621.2628
20
303.2520
10
629.0309
20
303.7491
10
629.4690
20
297.0089
10
621.7008
20
296.5119
10
621.2628
20
303.2520
0
LWPOLYLINE
  5
14dd
330
1F
  100
AcDbEntity
8
minor_roads
  100
AcDbPolyline
70
0
38
0.0000
90
2
10
289.2668
20
77.6408
10
344.0837
20
65.9431
0
LWPOLYLINE
  5
14de
330
1F
  100
AcDbEntity
8
paths
  100
AcDbPolyline
70
0
38
0.0000
90
4
10
661.4262
20
298.3360
10
667.3009
20
257.3669
10
669.4944
20
240.9537
10
674.0641
20
206.6684
0
LWPOLYLINE
  5
14df
330
1F
  100
AcDbEntity
8
paths
  100
AcDbPolyline
70
0
38
0.0000
90
4
10
678.2053
20
299.9215
10
683.9354
20
259.9646
10
686.2703
20
243.7146
10
691.3300
20
208.4564
0
LWPOLYLINE
  5
14e0
330
1F
  100
AcDbEntity
8
paths
  100
AcDbPolyline
70
0
38
0.0000
90
2
10
466.3432
20
240.6720
10
497.5944
20
225.3778
0
LWPOLYLINE
  5
14e1
330
1F
  100
AcDbEntity
8
paths
  100
AcDbPolyline
70
0
38
0.0000
90
4
10
500.3950
20
239.7156
10
467.7812
20
246.4194
10
458.7386
20
248.2691
10
429.1957
20
256.5757
0
LWPOLYLINE
  5
14e2
330
1F
  100
AcDbEntity
8
major_roads
  100
AcDbPolyline
70
0
38
0.0000
90
2
10
669.4054
20
462.7400
10
414.1835
20
517.9804
0
LWPOLYLINE
  5
14e3
330
1F
  100
AcDbEntity
8
paths
  100
AcDbPolyline
70
0
38
0.0000
90
3
10
217.2391
20
283.4441
10
229.4492
20
290.2899
10
244.9623
20
298.9975
0
LWPOLYLINE
  5
14e4
330
1F
  100
AcDbEntity
8
buildings
  100
AcDbPolyline
70
0
38
0.0000
90
15
10
380.9745
20
317.5797
10
485.3075
20
337.0875
10
506.2588
20
437.6918
10
511.4716
20
436.6217
10
512.1361
20
439.8154
10
524.9083
20
437.1829
10
524.2342
20
433.9235
10
530.4164
20
432.6519
10
510.2783
20
335.1902
10
503.8656
20
336.5102
10
501.1288
20
323.2754
10
488.2735
20
320.7275
10
489.5587
20
314.2856
10
386.0994
20
293.5375
10
380.9745
20
317.5797
0
LWPOLYLINE
  5
14e5
330
1F
  100
AcDbEntity
8
major_roads
  100
AcDbPolyline
70
0
38
0.0000
90
8
10
283.9977
20
357.1086
10
265.6724
20
318.9678
10
258.6450
20
297.4297
10
249.6816
20
283.3944
10
239.4637
20
275.0464
10
237.0740
20
273.0838
10
219.6483
20
266.1329
10
127.8585
20
262.0886
0
LWPOLYLINE
  5
14e6
330
1F
  100
AcDbEntity
8
minor_roads
  100
AcDbPolyline
70
0
38
0.0000
90
2
10
568.0956
20
345.2842
10
658.5877
20
356.4681
0
LWPOLYLINE
  5
14e7
330
1F
  100
AcDbEntity
8
minor_roads
  100
AcDbPolyline
70
0
38
0.0000
90
2
10
565.8378
20
364.3916
10
656.5633
20
375.0700
0
LWPOLYLINE
  5
14e8
330
1F
  100
AcDbEntity
8
major_roads
  100
AcDbPolyline
70
0
38
0.0000
90
2
10
257.8258
20
234.8585
10
254.1582
20
216.1357
0
LWPOLYLINE
  5
14e9
330
1F
  100
AcDbEntity
8
water
  100
AcDbPolyline
70
0
38
0.0000
90
12
10
80.0446
20
1.5584
10
32.4502
20
0.0000
10
25.4498
20
214.4214
10
115.7693
20
190.2491
10
150.8076
20
152.0890
10
153.1591
20
127.0137
10
134.4189
20
102.4156
10
104.5451
20
96.9430
10
89.2947
20
80.7062
10
73.5979
20
52.6066
10
70.2563
20
19.3781
10
80.0446
20
1.5584
0
LWPOLYLINE
  5
14ea
330
1F
  100
AcDbEntity
8
minor_roads
  100
AcDbPolyline
70
0
38
0.0000
90
2
10
655.0746
20
20.3869
10
655.5382
20
22.7841
0
LWPOLYLINE
  5
14eb
330
1F
  100
AcDbEntity
8
buildings
  100
AcDbPolyline
70
0
38
0.0000
90
5
10
342.7627
20
10.1607
10
321.0167
20
9.4487
10
322.8617
20
17.7996
10
343.4518
20
13.2858
10
342.7627
20
10.1607
0
LWPOLYLINE
  5
14ec
330
1F
  100
AcDbEntity
8
buildings
  100
AcDbPolyline
70
0
38
0.0000
90
5
10
384.4009
20
11.5241
10
352.7021
20
10.4862
10
356.8805
20
29.3798
10
386.8907
20
22.7953
10
384.4009
20
11.5241
0
LWPOLYLINE
  5
14ed
330
1F
  100
AcDbEntity
8
buildings
  100
AcDbPolyline
70
0
38
0.0000
90
5
10
434.8260
20
13.1752
10
402.8671
20
12.1288
10
407.5832
20
33.4548
10
437.8419
20
26.8134
10
434.8260
20
13.1752
0
LWPOLYLINE
  5
14ee
330
1F
  100
AcDbEntity
8
buildings
  100
AcDbPolyline
70
0
38
0.0000
90
5
10
487.6395
20
14.9045
10
455.8342
20
13.8631
10
461.5180
20
39.5860
10
491.6348
20
32.9776
10
487.6395
20
14.9045
0
LWPOLYLINE
  5
14ef
330
1F
  100
AcDbEntity
8
buildings
  100
AcDbPolyline
70
0
38
0.0000
90
5
10
434.8260
20
13.1752
10
402.8671
20
12.1288
10
407.5832
20
33.4548
10
437.8419
20
26.8134
10
434.8260
20
13.1752
0
LWPOLYLINE
  5
14f0
330
1F
  100
AcDbEntity
8
minor_roads
  100
AcDbPolyline
70
0
38
0.0000
90
2
10
698.9387
20
113.5173
10
678.8105
20
21.1641
0
LWPOLYLINE
  5
14f1
330
1F
  100
AcDbEntity
8
minor_roads
  100
AcDbPolyline
70
0
38
0.0000
90
5
10
438.8509
20
168.7378
10
619.5412
20
130.3768
10
698.9387
20
113.5173
10
707.9542
20
111.6111
10
740.8426
20
104.6285
0
LWPOLYLINE
  5
14f2
330
1F
  100
AcDbEntity
8
paths
  100
AcDbPolyline
70
0
38
0.0000
90
7
10
311.1319
20
257.6393
10
317.5295
20
250.3197
10
331.1323
20
244.5605
10
395.3919
20
230.5786
10
580.6763
20
190.2489
10
730.8300
20
159.3348
10
832.8043
20
136.6403
0
LWPOLYLINE
  5
14f3
330
1F
  100
AcDbEntity
8
minor_roads
  100
AcDbPolyline
70
0
38
0.0000
90
4
10
811.5014
20
287.6388
10
813.1150
20
297.3291
10
768.6840
20
320.1285
10
663.5131
20
311.3257
0
LWPOLYLINE
  5
14f4
330
1F
  100
AcDbEntity
8
buildings
  100
AcDbPolyline
70
0
38
0.0000
90
48
10
665.8973
20
367.3713
10
668.3387
20
375.6332
10
665.2512
20
396.4020
10
672.7051
20
397.3460
10
674.3063
20
404.5542
10
666.6848
20
406.3942
10
670.6216
20
423.8387
10
800.2904
20
396.5845
10
810.0770
20
390.6641
10
814.6933
20
393.4651
10
819.6482
20
395.4282
10
826.0448
20
396.7483
10
831.4323
20
396.4399
10
833.7981
20
395.5472
10
837.5305
20
393.7944
10
840.3103
20
391.1987
10
842.6033
20
387.6914
10
843.2063
20
383.6249
10
842.8062
20
379.1803
10
841.4660
20
374.0424
10
837.7655
20
369.2749
10
833.2911
20
365.1911
10
828.3309
20
362.1363
10
828.9703
20
359.1065
10
829.1770
20
354.7751
10
828.9921
20
350.7480
10
822.1360
20
315.6495
10
820.7018
20
313.0182
10
818.8652
20
310.6629
10
816.2713
20
309.3836
10
811.8430
20
307.8296
10
810.6702
20
307.9684
10
809.5361
20
308.5377
10
807.3679
20
309.6700
10
803.1202
20
312.0963
10
794.5136
20
316.7587
10
777.1966
20
326.3879
10
778.6816
20
334.4506
10
727.1549
20
343.6019
10
726.3976
20
338.4085
10
670.3558
20
332.0001
10
669.0093
20
344.0656
10
670.8491
20
350.0875
10
667.8349
20
351.0616
10
670.0350
20
358.4480
10
666.8594
20
359.5101
10
669.0788
20
366.4866
10
665.8973
20
367.3713
0
LWPOLYLINE
  5
14f5
330
1F
  100
AcDbEntity
8
paths
  100
AcDbPolyline
70
0
38
0.0000
90
3
10
908.5600
20
973.7233
10
909.7572
20
972.1206
10
911.7472
20
969.4337
0
LWPOLYLINE
  5
14f6
330
1F
  100
AcDbEntity
8
paths
  100
AcDbPolyline
70
0
38
0.0000
90
4
10
921.5304
20
975.0353
10
925.5800
20
974.3380
10
935.0068
20
972.7349
10
938.4245
20
972.1567
0
LWPOLYLINE
  5
14f7
330
1F
  100
AcDbEntity
8
paths
  100
AcDbPolyline
70
0
38
0.0000
90
2
10
733.8034
20
940.7569
10
738.9422
20
972.1791
0
LWPOLYLINE
  5
14f8
330
1F
  100
AcDbEntity
8
paths
  100
AcDbPolyline
70
0
38
0.0000
90
2
10
901.0137
20
929.1231
10
895.6045
20
924.0289
0
LWPOLYLINE
  5
14f9
330
1F
  100
AcDbEntity
8
paths
  100
AcDbPolyline
70
0
38
0.0000
90
4
10
912.3193
20
926.2569
10
909.4225
20
906.3180
10
907.4319
20
884.5242
10
908.0346
20
872.7795
0
LWPOLYLINE
  5
14fa
330
1F
  100
AcDbEntity
8
minor_roads
  100
AcDbPolyline
70
0
38
0.0000
90
2
10
987.6015
20
885.8503
10
955.2893
20
889.9018
0
LWPOLYLINE
  5
14fb
330
1F
  100
AcDbEntity
8
paths
  100
AcDbPolyline
70
0
38
0.0000
90
2
10
1011.4731
20
769.0173
10
1001.4778
20
753.0621
0
LWPOLYLINE
  5
14fc
330
1F
  100
AcDbEntity
8
paths
  100
AcDbPolyline
70
0
38
0.0000
90
2
10
869.7738
20
812.1509
10
880.8762
20
791.3373
0
LWPOLYLINE
  5
14fd
330
1F
  100
AcDbEntity
8
paths
  100
AcDbPolyline
70
0
38
0.0000
90
2
10
826.6826
20
775.0890
10
835.1526
20
767.0543
0
LWPOLYLINE
  5
14fe
330
1F
  100
AcDbEntity
8
paths
  100
AcDbPolyline
70
0
38
0.0000
90
3
10
817.2382
20
624.4065
10
830.2242
20
628.3124
10
843.7624
20
632.3858
0
LWPOLYLINE
  5
14ff
330
1F
  100
AcDbEntity
8
buildings
  100
AcDbPolyline
70
0
38
0.0000
90
5
10
781.5413
20
687.5810
10
782.7117
20
692.7040
10
787.9042
20
691.5309
10
786.7341
20
686.3986
10
781.5413
20
687.5810
0
LWPOLYLINE
  5
1500
330
1F
  100
AcDbEntity
8
buildings
  100
AcDbPolyline
70
0
38
0.0000
90
12
10
767.9936
20
656.2375
10
770.1814
20
665.7786
10
772.9579
20
677.9514
10
776.6437
20
694.0817
10
780.1923
20
693.2744
10
782.7117
20
692.7040
10
787.9042
20
691.5309
10
790.1403
20
691.0071
10
793.8777
20
690.1688
10
790.1923
20
674.0292
10
785.2339
20
652.3154
10
767.9936
20
656.2375
0
LWPOLYLINE
  5
1501
330
1F
  100
AcDbEntity
8
paths
  100
AcDbPolyline
70
0
38
0.0000
90
4
10
953.4978
20
949.2906
10
953.6276
20
945.6936
10
953.7288
20
937.7855
10
953.8109
20
932.4238
0
LWPOLYLINE
  5
1502
330
1F
  100
AcDbEntity
8
paths
  100
AcDbPolyline
70
0
38
0.0000
90
2
10
1008.4729
20
747.0504
10
1012.9853
20
752.5614
0
LWPOLYLINE
  5
1503
330
1F
  100
AcDbEntity
8
paths
  100
AcDbPolyline
70
0
38
0.0000
90
3
10
880.8762
20
791.3373
10
887.1945
20
773.7440
10
885.0963
20
770.9603
0
LWPOLYLINE
  5
1504
330
1F
  100
AcDbEntity
8
paths
  100
AcDbPolyline
70
0
38
0.0000
90
5
10
875.4853
20
717.8866
10
870.8300
20
736.3181
10
865.7983
20
755.8476
10
885.0963
20
770.9603
10
901.9341
20
761.2318
0
LWPOLYLINE
  5
1505
330
1F
  100
AcDbEntity
8
paths
  100
AcDbPolyline
70
0
38
0.0000
90
5
10
824.9908
20
733.0788
10
816.7609
20
715.5399
10
812.2979
20
701.4553
10
810.4918
20
687.4391
10
809.4143
20
669.2859
0
LWPOLYLINE
  5
1506
330
1F
  100
AcDbEntity
8
major_roads
  100
AcDbPolyline
70
0
38
0.0000
90
11
10
925.0454
20
1024.2376
10
922.1699
20
1011.1615
10
918.5719
20
990.5931
10
917.9610
20
981.3089
10
914.6907
20
975.7904
10
909.7572
20
972.1206
10
906.0781
20
969.3969
10
894.8924
20
969.1510
10
852.5965
20
979.6300
10
840.5968
20
980.9342
10
805.3295
20
979.8983
0
LWPOLYLINE
  5
1507
330
1F
  100
AcDbEntity
8
minor_roads
  100
AcDbPolyline
70
0
38
0.0000
90
9
10
957.8606
20
727.2052
10
944.1403
20
729.4043
10
930.4033
20
728.1790
10
918.4498
20
724.1201
10
907.7326
20
717.4522
10
898.8090
20
708.5389
10
892.1514
20
697.8340
10
888.0915
20
683.4546
10
886.8780
20
674.1040
0
LWPOLYLINE
  5
1508
330
1F
  100
AcDbEntity
8
paths
  100
AcDbPolyline
70
0
38
0.0000
90
3
10
952.7878
20
919.9633
10
993.7649
20
911.2331
10
1007.8748
20
908.1621
0
LWPOLYLINE
  5
1509
330
1F
  100
AcDbEntity
8
minor_roads
  100
AcDbPolyline
70
0
38
0.0000
90
6
10
890.5197
20
871.8501
10
865.8886
20
864.7163
10
842.3992
20
854.4481
10
818.8868
20
840.7647
10
800.4309
20
825.2134
10
788.5951
20
812.9207
0
LWPOLYLINE
  5
150a
330
1F
  100
AcDbEntity
8
minor_roads
  100
AcDbPolyline
70
0
38
0.0000
90
4
10
997.6355
20
928.1439
10
993.7649
20
911.2331
10
987.6015
20
885.8503
10
991.1716
20
870.4433
0
LWPOLYLINE
  5
150b
330
1F
  100
AcDbEntity
8
minor_roads
  100
AcDbPolyline
70
0
38
0.0000
90
2
10
818.8868
20
840.7647
10
751.9016
20
852.6550
0
LWPOLYLINE
  5
150c
330
1F
  100
AcDbEntity
8
buildings
  100
AcDbPolyline
70
0
38
0.0000
90
7
10
740.1056
20
746.0614
10
748.4644
20
782.9444
10
768.9026
20
778.3342
10
768.0975
20
774.7812
10
765.8151
20
764.7238
10
760.5381
20
741.4510
10
740.1056
20
746.0614
0
LWPOLYLINE
  5
150d
330
1F
  100
AcDbEntity
8
buildings
  100
AcDbPolyline
70
0
38
0.0000
90
8
10
810.1151
20
1020.4739
10
868.7025
20
1022.3925
10
868.8827
20
1017.9862
10
864.4218
20
1007.4281
10
860.2876
20
1007.8428
10
860.6892
20
1004.0123
10
840.5276
20
1007.1944
10
810.1151
20
1020.4739
0
LWPOLYLINE
  5
150e
330
1F
  100
AcDbEntity
8
buildings
  100
AcDbPolyline
70
0
38
0.0000
90
12
10
1013.4852
20
737.3385
10
1015.6582
20
671.1784
10
1007.3074
20
671.0047
10
1006.7899
20
679.0763
10
997.3644
20
705.4678
10
984.9845
20
717.9733
10
966.0241
20
729.0499
10
955.2314
20
732.5486
10
959.4028
20
764.4432
10
984.2936
20
757.4237
10
1000.7693
20
747.4691
10
1013.4852
20
737.3385
0
LWPOLYLINE
  5
150f
330
1F
  100
AcDbEntity
8
buildings
  100
AcDbPolyline
70
0
38
0.0000
90
9
10
783.7277
20
725.0826
10
785.0523
20
730.8730
10
788.6009
20
730.0658
10
791.1205
20
729.4861
10
796.3071
20
728.3127
10
798.5485
20
727.8078
10
802.2804
20
726.9600
10
800.9617
20
721.1698
10
783.7277
20
725.0826
0
LWPOLYLINE
  5
1510
330
1F
  100
AcDbEntity
8
paths
  100
AcDbPolyline
70
0
38
0.0000
90
3
10
488.0024
20
782.0971
10
484.7516
20
807.3388
10
475.7548
20
826.8226
0
LWPOLYLINE
  5
1511
330
1F
  100
AcDbEntity
8
buildings
  100
AcDbPolyline
70
0
38
0.0000
90
17
10
152.6189
20
855.0075
10
154.4794
20
862.5599
10
159.0888
20
868.8026
10
165.7605
20
872.8270
10
173.4583
20
874.0116
10
181.0209
20
872.1503
10
187.2935
20
867.5506
10
191.3264
20
860.9000
10
192.4930
20
853.2227
10
190.6326
20
845.6703
10
186.0174
20
839.4274
10
179.3574
20
835.4033
10
171.6592
20
834.2281
10
164.0969
20
836.0801
10
157.8183
20
840.6795
10
153.7914
20
847.3304
10
152.6189
20
855.0075
0
LWPOLYLINE
  5
1512
330
1F
  100
AcDbEntity
8
buildings
  100
AcDbPolyline
70
0
38
0.0000
90
20
10
163.5866
20
854.9275
10
164.2158
20
857.7655
10
165.7673
20
860.2232
10
168.0506
20
862.0238
10
170.8143
20
862.9537
10
173.7275
20
862.8997
10
176.3179
20
861.9488
10
178.4697
20
860.2279
10
179.9544
20
857.9067
10
180.6170
20
855.2322
10
180.3899
20
852.4819
10
179.3044
20
849.9555
10
177.4574
20
847.9172
10
175.0481
20
846.5604
10
172.3417
20
846.0334
10
169.6057
20
846.4105
10
167.1355
20
847.6359
10
165.1822
20
849.5685
10
163.9627
20
852.0383
10
163.5866
20
854.9275
0
LWPOLYLINE
  5
1513
330
1F
  100
AcDbEntity
8
minor_roads
  100
AcDbPolyline
70
0
38
0.0000
90
2
10
22.7948
20
660.8201
10
11.3274
20
646.9875
0
LWPOLYLINE
  5
1514
330
1F
  100
AcDbEntity
8
minor_roads
  100
AcDbPolyline
70
0
38
0.0000
90
2
10
99.8599
20
958.8647
10
128.2085
20
909.0016
0
LWPOLYLINE
  5
1515
330
1F
  100
AcDbEntity
8
minor_roads
  100
AcDbPolyline
70
0
38
0.0000
90
4
10
401.9509
20
907.5508
10
389.3746
20
900.6459
10
379.6866
20
846.5540
10
385.9003
20
832.6419
0
LWPOLYLINE
  5
1516
330
1F
  100
AcDbEntity
8
paths
  100
AcDbPolyline
70
0
38
0.0000
90
3
10
374.8141
20
912.0458
10
305.1516
20
977.5079
10
282.6319
20
981.1935
0
LWPOLYLINE
  5
1517
330
1F
  100
AcDbEntity
8
paths
  100
AcDbPolyline
70
0
38
0.0000
90
3
10
404.5052
20
697.6659
10
409.0731
20
722.9303
10
420.8612
20
788.1837
0
LWPOLYLINE
  5
1518
330
1F
  100
AcDbEntity
8
paths
  100
AcDbPolyline
70
0
38
0.0000
90
2
10
581.5267
20
1006.1565
10
574.5482
20
974.2450
0
LWPOLYLINE
  5
1519
330
1F
  100
AcDbEntity
8
paths
  100
AcDbPolyline
70
0
38
0.0000
90
2
10
420.8612
20
788.1837
10
370.8793
20
797.6501
0
LWPOLYLINE
  5
151a
330
1F
  100
AcDbEntity
8
buildings
  100
AcDbPolyline
70
0
38
0.0000
90
35
10
139.8761
20
832.5271
10
139.5579
20
842.2659
10
140.2681
20
855.0238
10
141.9364
20
861.4503
10
144.7736
20
866.5995
10
147.7798
20
872.3234
10
152.6992
20
876.9809
10
158.5329
20
882.2188
10
164.9899
20
885.8071
10
173.3477
20
888.7111
10
183.4737
20
889.4152
10
189.1216
20
888.8442
10
197.0630
20
887.4244
10
205.4049
20
885.0662
10
212.0761
20
882.1030
10
219.3775
20
877.0985
10
226.0387
20
868.6959
10
229.0494
20
862.6089
10
231.1519
20
855.9325
10
232.7346
20
847.5597
10
232.4164
20
840.2351
10
231.4333
20
830.0898
10
227.7314
20
822.6639
10
223.0489
20
816.3254
10
215.3696
20
810.0848
10
208.5310
20
806.4934
10
199.9914
20
803.5833
10
190.4891
20
801.2109
10
182.2022
20
801.8824
10
175.9430
20
803.5530
10
170.0708
20
805.2363
10
159.5859
20
809.9409
10
151.5154
20
815.4894
10
144.6790
20
823.3266
10
139.8761
20
832.5271
0
LWPOLYLINE
  5
151b
330
1F
  100
AcDbEntity
8
major_roads
  100
AcDbPolyline
70
0
38
0.0000
90
2
10
602.4261
20
1013.6726
10
671.4257
20
999.8011
0
LWPOLYLINE
  5
151c
330
1F
  100
AcDbEntity
8
major_roads
  100
AcDbPolyline
70
0
38
0.0000
90
2
10
673.6908
20
1010.7442
10
650.2536
20
1015.2388
0
LWPOLYLINE
  5
151d
330
1F
  100
AcDbEntity
8
minor_roads
  100
AcDbPolyline
70
0
38
0.0000
90
2
10
219.9410
20
973.5179
10
207.7766
20
923.6650
0
LWPOLYLINE
  5
151e
330
1F
  100
AcDbEntity
8
paths
  100
AcDbPolyline
70
0
38
0.0000
90
12
10
494.3189
20
652.1114
10
508.5271
20
674.9860
10
518.3413
20
692.5762
10
526.2210
20
711.8757
10
535.1805
20
736.5563
10
538.8974
20
747.9946
10
543.6802
20
769.8983
10
547.2223
20
788.8225
10
549.1258
20
813.6825
10
550.0328
20
833.4813
10
548.1691
20
854.7194
10
542.8198
20
880.0416
0
LWPOLYLINE
  5
151f
330
1F
  100
AcDbEntity
8
paths
  100
AcDbPolyline
70
0
38
0.0000
90
2
10
297.1409
20
552.0849
10
298.8925
20
559.9136
0
LWPOLYLINE
  5
1520
330
1F
  100
AcDbEntity
8
major_roads
  100
AcDbPolyline
70
0
38
0.0000
90
6
10
113.4270
20
583.0993
10
85.3524
20
591.6423
10
72.5656
20
596.7197
10
50.8656
20
606.1800
10
20.4914
20
624.7520
10
11.8231
20
631.8048
0
LWPOLYLINE
  5
1521
330
1F
  100
AcDbEntity
8
minor_roads
  100
AcDbPolyline
70
0
38
0.0000
90
24
10
669.4054
20
462.7400
10
674.2206
20
484.1877
10
676.7523
20
494.8876
10
678.7275
20
505.7279
10
681.4349
20
518.5887
10
687.2224
20
546.0111
10
701.2500
20
612.5235
10
705.5228
20
632.7780
10
709.6637
20
652.4030
10
713.7387
20
671.7086
10
720.4624
20
703.8639
10
721.8169
20
710.3549
10
723.8028
20
719.6096
10
726.0233
20
729.9448
10
727.2829
20
735.9290
10
735.3151
20
774.0047
10
739.5209
20
793.9678
10
743.6005
20
813.3016
10
745.6121
20
822.8463
10
751.9016
20
852.6550
10
760.0702
20
891.3884
10
770.2867
20
933.3609
10
776.0191
20
957.0592
10
780.2736
20
975.8857
0
LWPOLYLINE
  5
1522
330
1F
  100
AcDbEntity
8
paths
  100
AcDbPolyline
70
0
38
0.0000
90
22
10
845.3724
20
671.5198
10
846.8286
20
686.1776
10
847.7661
20
693.0282
10
851.8350
20
708.2102
10
855.9188
20
716.8527
10
869.4338
20
735.0408
10
870.8300
20
736.3181
10
884.3522
20
748.7410
10
886.0039
20
749.9240
10
901.9341
20
761.2318
10
913.4993
20
767.6383
10
925.3078
20
771.4591
10
933.6469
20
771.5276
10
955.8110
20
768.7101
10
963.9870
20
768.0270
10
967.1302
20
767.7663
10
971.5400
20
766.4744
10
986.1213
20
762.1858
10
1001.4778
20
753.0621
10
1003.7949
20
751.6828
10
1008.4729
20
747.0504
10
1013.3242
20
742.2434
0
LWPOLYLINE
  5
1523
330
1F
  100
AcDbEntity
8
paths
  100
AcDbPolyline
70
0
38
0.0000
90
12
10
1017.9080
20
602.6750
10
1002.5096
20
586.8723
10
1001.3963
20
585.7348
10
986.4923
20
576.5970
10
981.8381
20
575.4925
10
962.6333
20
570.9342
10
953.7291
20
570.1847
10
943.3904
20
569.3229
10
942.1038
20
569.3553
10
929.8062
20
569.6886
10
926.0565
20
570.0040
10
917.7320
20
570.7290
0
LWPOLYLINE
  5
1524
330
1F
  100
AcDbEntity
8
minor_roads
  100
AcDbPolyline
70
0
38
0.0000
90
3
10
840.5968
20
980.9342
10
769.4184
20
998.4895
10
688.9157
20
1016.5049
0
LWPOLYLINE
  5
1525
330
1F
  100
AcDbEntity
8
major_roads
  100
AcDbPolyline
70
0
38
0.0000
90
4
10
923.2579
20
952.2721
10
904.2932
20
956.7155
10
805.3295
20
979.8983
10
673.6908
20
1010.7442
0
LWPOLYLINE
  5
1526
330
1F
  100
AcDbEntity
8
water
  100
AcDbPolyline
70
0
38
0.0000
90
21
10
441.7790
20
619.3430
10
448.7966
20
618.9010
10
457.1864
20
614.3803
10
461.7923
20
607.8139
10
464.3471
20
601.3202
10
465.6438
20
595.0653
10
468.6127
20
592.4196
10
474.2689
20
591.7838
10
478.0467
20
589.7151
10
480.1403
20
584.5778
10
478.3875
20
579.3053
10
471.9541
20
574.4486
10
463.6252
20
572.8045
10
451.2488
20
573.2203
10
439.0314
20
577.2053
10
427.9172
20
585.3313
10
423.4240
20
592.5825
10
422.8109
20
602.7035
10
426.7802
20
611.4632
10
433.6086
20
617.1631
10
441.7790
20
619.3430
0
LWPOLYLINE
  5
1527
330
1F
  100
AcDbEntity
8
paths
  100
AcDbPolyline
70
0
38
0.0000
90
8
10
483.1552
20
759.4637
10
538.8974
20
747.9946
10
588.5528
20
737.7728
10
603.7946
20
734.6337
10
665.1696
20
722.0070
10
684.5663
20
718.0154
10
701.5632
20
714.5236
10
721.8169
20
710.3549
0
LWPOLYLINE
  5
1528
330
1F
  100
AcDbEntity
8
paths
  100
AcDbPolyline
70
0
38
0.0000
90
8
10
488.0024
20
782.0971
10
543.6802
20
769.8983
10
598.1403
20
757.9680
10
608.3217
20
755.7360
10
652.1748
20
746.1363
10
688.9807
20
738.0692
10
705.9025
20
734.3604
10
726.0233
20
729.9448
0
LWPOLYLINE
  5
1529
330
1F
  100
AcDbEntity
8
major_roads
  100
AcDbPolyline
70
0
38
0.0000
90
2
10
915.7463
20
863.7032
10
889.9147
20
499.4717
0
LWPOLYLINE
  5
152a
330
1F
  100
AcDbEntity
8
major_roads
  100
AcDbPolyline
70
0
38
0.0000
90
2
10
23.9655
20
259.8849
10
137.8480
20
240.5935
0
LWPOLYLINE
  5
152b
330
1F
  100
AcDbEntity
8
minor_roads
  100
AcDbPolyline
70
0
38
0.0000
90
2
10
109.9088
20
792.4950
10
57.7665
20
755.9838
0
LWPOLYLINE
  5
152c
330
1F
  100
AcDbEntity
8
minor_roads
  100
AcDbPolyline
70
0
38
0.0000
90
2
10
65.0615
20
745.7824
10
113.9390
20
787.0010
0
LWPOLYLINE
  5
152d
330
1F
  100
AcDbEntity
8
minor_roads
  100
AcDbPolyline
70
0
38
0.0000
90
2
10
133.4567
20
913.2967
10
110.3220
20
964.0112
0
LWPOLYLINE
  5
152e
330
1F
  100
AcDbEntity
8
paths
  100
AcDbPolyline
70
0
38
0.0000
90
9
10
332.4502
20
763.3200
10
339.0568
20
775.9722
10
341.1055
20
779.9203
10
346.1187
20
793.1922
10
348.6948
20
802.0088
10
350.5521
20
818.4427
10
350.7768
20
823.9545
10
351.1758
20
833.8287
10
349.0708
20
846.4945
0
LWPOLYLINE
  5
152f
330
1F
  100
AcDbEntity
8
minor_roads
  100
AcDbPolyline
70
0
38
0.0000
90
8
10
22.7948
20
660.8201
10
62.9015
20
713.2456
10
80.5966
20
700.0440
10
111.7337
20
684.7066
10
144.9306
20
672.4501
10
167.7479
20
667.5981
10
189.6959
20
662.9416
10
214.7891
20
661.0190
0
LWPOLYLINE
  5
1530
330
1F
  100
AcDbEntity
8
paths
  100
AcDbPolyline
70
0
38
0.0000
90
5
10
409.0731
20
722.9303
10
442.6577
20
726.6417
10
454.7548
20
727.7561
10
472.7030
20
743.0749
10
483.1552
20
759.4637
0
LWPOLYLINE
  5
1531
330
1F
  100
AcDbEntity
8
minor_roads
  100
AcDbPolyline
70
0
38
0.0000
90
4
10
398.8029
20
825.0968
10
423.2673
20
834.1167
10
441.7807
20
917.1577
10
423.4781
20
941.1976
0
LWPOLYLINE
  5
1532
330
1F
  100
AcDbEntity
8
buildings
  100
AcDbPolyline
70
0
38
0.0000
90
34
10
94.2134
20
840.0847
10
96.3441
20
861.6493
10
104.0051
20
881.9298
10
116.6662
20
899.5469
10
128.2085
20
909.0016
10
133.4567
20
913.2967
10
153.2515
20
922.2280
10
173.9719
20
925.6480
10
193.0135
20
924.9363
10
212.7899
20
921.4965
10
228.5774
20
914.3905
10
241.7555
20
907.7403
10
256.5151
20
896.1693
10
271.1648
20
879.3422
10
280.0871
20
864.4457
10
285.4727
20
854.1262
10
289.3315
20
841.1352
10
291.1073
20
827.0405
10
289.3804
20
817.3841
10
288.1979
20
811.0014
10
279.6659
20
796.5509
10
266.9000
20
783.7627
10
250.1820
20
771.0225
10
233.0878
20
762.9627
10
215.5079
20
758.0871
10
194.0335
20
755.9858
10
174.8970
20
756.3493
10
159.2596
20
760.1111
10
145.2913
20
765.6068
10
132.3199
20
772.0308
10
118.4435
20
783.3418
10
106.4564
20
799.5286
10
97.7470
20
818.7052
10
94.2134
20
840.0847
0
LWPOLYLINE
  5
1533
330
1F
  100
AcDbEntity
8
buildings
  100
AcDbPolyline
70
0
38
0.0000
90
4
10
3.3862
20
890.2264
10
2.2174
20
926.0257
10
14.2524
20
919.9266
10
3.3862
20
890.2264
0
LWPOLYLINE
  5
1534
330
1F
  100
AcDbEntity
8
paths
  100
AcDbPolyline
70
0
38
0.0000
90
4
10
370.8793
20
797.6501
10
352.2750
20
801.3049
10
348.6948
20
802.0088
10
291.1081
20
814.8097
0
LWPOLYLINE
  5
1535
330
1F
  100
AcDbEntity
8
minor_roads
  100
AcDbPolyline
70
0
38
0.0000
90
3
10
275.6965
20
949.3399
10
282.6319
20
981.1935
10
287.4572
20
1003.3581
0
LWPOLYLINE
  5
1536
330
1F
  100
AcDbEntity
8
minor_roads
  100
AcDbPolyline
70
0
38
0.0000
90
39
10
349.0708
20
846.4945
10
345.4040
20
860.6113
10
336.5223
20
882.5155
10
323.3814
20
903.0955
10
311.8750
20
918.3926
10
297.7873
20
932.5697
10
275.6965
20
949.3399
10
248.8110
20
963.5744
10
219.9410
20
973.5179
10
195.0447
20
977.7233
10
169.2726
20
978.9147
10
142.8087
20
975.4097
10
119.5127
20
968.5470
10
110.3220
20
964.0112
10
99.8599
20
958.8647
10
97.0236
20
957.4660
10
71.3893
20
937.3634
10
53.8289
20
915.9106
10
39.6566
20
889.7452
10
35.1224
20
869.8748
10
31.6038
20
856.8293
10
31.9956
20
828.4714
10
32.4174
20
826.3394
10
38.7460
20
794.4995
10
50.1334
20
766.6499
10
57.7665
20
755.9838
10
65.0615
20
745.7824
10
79.2347
20
730.7772
10
96.0273
20
719.5054
10
115.5828
20
707.4002
10
136.4028
20
699.1708
10
162.9596
20
694.3103
10
192.2539
20
691.8998
10
221.9020
20
694.6508
10
246.4541
20
700.1182
10
270.6467
20
708.8579
10
295.7846
20
723.8700
10
319.1625
20
746.0270
10
332.4502
20
763.3200
0
LWPOLYLINE
  5
1537
330
1F
  100
AcDbEntity
8
paths
  100
AcDbPolyline
70
0
38
0.0000
90
3
10
463.7256
20
969.5892
10
629.7809
20
934.3800
10
703.2804
20
919.9776
0
LWPOLYLINE
  5
1538
330
1F
  100
AcDbEntity
8
paths
  100
AcDbPolyline
70
0
38
0.0000
90
9
10
588.5528
20
737.7728
10
587.3057
20
698.7908
10
586.3155
20
678.3081
10
587.1561
20
658.0254
10
591.1137
20
628.0676
10
593.7738
20
614.4218
10
606.8974
20
576.5077
10
620.6756
20
545.8547
10
630.9463
20
533.0273
0
LWPOLYLINE
  5
1539
330
1F
  100
AcDbEntity
8
paths
  100
AcDbPolyline
70
0
38
0.0000
90
12
10
445.8130
20
1001.4413
10
467.4378
20
996.7662
10
523.4278
20
984.9973
10
574.5482
20
974.2450
10
587.0784
20
971.6141
10
637.8473
20
961.0281
10
659.0377
20
956.5448
10
708.2273
20
946.1597
10
733.8034
20
940.7569
10
750.6485
20
937.2230
10
765.4134
20
934.1154
10
770.2867
20
933.3609
0
LWPOLYLINE
  5
153a
330
1F
  100
AcDbEntity
8
minor_roads
  100
AcDbPolyline
70
0
38
0.0000
90
2
10
745.9807
20
627.9377
10
740.6704
20
602.9845
0
LWPOLYLINE
  5
153b
330
1F
  100
AcDbEntity
8
minor_roads
  100
AcDbPolyline
70
0
38
0.0000
90
4
10
681.4349
20
518.5887
10
754.6270
20
501.7509
10
760.3543
20
527.4175
10
687.2224
20
546.0111
0
LWPOLYLINE
  5
153c
330
1F
  100
AcDbEntity
8
major_roads
  100
AcDbPolyline
70
0
38
0.0000
90
6
10
12.1070
20
623.1098
10
21.0396
20
616.2335
10
38.9450
20
604.8672
10
42.2062
20
602.7906
10
69.6592
20
589.9076
10
94.2184
20
580.9791
0
LWPOLYLINE
  5
153d
330
1F
  100
AcDbEntity
8
paths
  100
AcDbPolyline
70
0
38
0.0000
90
17
10
456.3842
20
781.4444
10
452.4751
20
746.6482
10
454.7548
20
727.7561
10
458.4658
20
710.5061
10
466.9414
20
690.8093
10
479.6660
20
669.8894
10
494.3189
20
652.1114
10
505.1870
20
642.8953
10
525.3282
20
629.7939
10
547.4566
20
620.3681
10
570.8749
20
614.9311
10
593.7738
20
614.4218
10
601.6048
20
614.2399
10
621.5006
20
617.5973
10
641.7957
20
623.4588
10
657.9928
20
631.1267
10
667.7768
20
640.8515
0
LWPOLYLINE
  5
153e
330
1F
  100
AcDbEntity
8
paths
  100
AcDbPolyline
70
0
38
0.0000
90
9
10
735.3151
20
774.0047
10
715.4113
20
778.2501
10
698.5343
20
781.8484
10
618.6603
20
798.8690
10
610.1598
20
800.6802
10
549.1258
20
813.6825
10
502.3144
20
823.6620
10
483.7222
20
838.2415
10
442.2437
20
876.1139
0
LWPOLYLINE
  5
153f
330
1F
  100
AcDbEntity
8
paths
  100
AcDbPolyline
70
0
38
0.0000
90
9
10
705.5228
20
632.7780
10
684.8557
20
637.1944
10
667.7768
20
640.8515
10
596.0715
20
656.0971
10
587.1561
20
658.0254
10
508.5271
20
674.9860
10
491.8700
20
678.4989
10
479.6660
20
669.8894
10
383.1831
20
597.2551
0
LWPOLYLINE
  5
1540
330
1F
  100
AcDbEntity
8
paths
  100
AcDbPolyline
70
0
38
0.0000
90
6
10
355.0625
20
548.5124
10
359.9274
20
573.8611
10
361.9208
20
583.0878
10
383.1831
20
597.2551
10
394.7971
20
653.1453
10
404.5052
20
697.6659
0
LWPOLYLINE
  5
1541
330
1F
  100
AcDbEntity
8
paths
  100
AcDbPolyline
70
0
38
0.0000
90
18
10
733.8034
20
940.7569
10
703.2804
20
919.9776
10
665.7721
20
883.9677
10
657.1728
20
871.4269
10
635.1914
20
836.2714
10
625.7507
20
817.6949
10
618.6603
20
798.8690
10
608.3217
20
755.7360
10
603.7946
20
734.6337
10
596.5812
20
696.7996
10
595.5602
20
676.3626
10
596.0715
20
656.0971
10
597.5098
20
640.6853
10
601.6048
20
614.2399
10
609.3809
20
585.0975
10
618.9413
20
557.2171
10
630.9463
20
533.0273
10
640.1855
20
514.4193
0
LWPOLYLINE
  5
1542
330
1F
  100
AcDbEntity
8
paths
  100
AcDbPolyline
70
0
38
0.0000
90
10
10
640.1855
20
514.4193
10
667.7768
20
640.8515
10
672.0174
20
660.3025
10
676.2586
20
679.7348
10
684.5663
20
718.0154
10
688.9807
20
738.0692
10
698.5343
20
781.8484
10
702.8519
20
801.6285
10
707.0823
20
821.0232
10
733.8034
20
940.7569
0
LWPOLYLINE
  5
1543
330
1F
  100
AcDbEntity
8
minor_roads
  100
AcDbPolyline
70
0
38
0.0000
90
3
10
69.6592
20
589.9076
10
72.5656
20
596.7197
10
84.3584
20
624.4120
  0
ENDSEC
  0
SECTION
  2
OBJECTS
  0
DICTIONARY
  5
C
330
0
100
AcDbDictionary
281
1
  3
ACAD_COLOR
350
4D3
  3
ACAD_GROUP
350
4D4
  3
ACAD_LAYOUT
350
4D5
  3
ACAD_MATERIAL
350
4D6
  3
ACAD_MLEADERSTYLE
350
4D7
  3
ACAD_MLINESTYLE
350
4D8
  3
ACAD_PLOTSETTINGS
350
4D9
  3
ACAD_PLOTSTYLENAME
350
4DB
  3
ACAD_SCALELIST
350
4DC
  3
ACAD_TABLESTYLE
350
4DD
  3
ACAD_VISUALSTYLE
350
4DE
  0
DICTIONARY
  5
4D3
330
C
100
AcDbDictionary
281
1
  0
DICTIONARY
  5
4D4
330
C
100
AcDbDictionary
281
1
  0
DICTIONARY
  5
4D5
330
C
100
AcDbDictionary
281
1
  3
Model
350
4DF
  3
Layout1
350
4E0
  0
DICTIONARY
  5
4D6
330
C
100
AcDbDictionary
281
1
  0
DICTIONARY
  5
4D7
330
C
100
AcDbDictionary
281
1
  0
DICTIONARY
  5
4D8
330
C
100
AcDbDictionary
281
1
  0
DICTIONARY
  5
4D9
330
C
100
AcDbDictionary
281
1
  0
ACDBPLACEHOLDER
  5
4DA
330
4DB
  0
ACDBDICTIONARYWDFLT
  5
4DB
330
C
100
AcDbDictionary
281
1
  3
Normal
350
4DA
100
AcDbDictionaryWithDefault
340
4DA
  0
DICTIONARY
  5
4DC
330
C
100
AcDbDictionary
281
1
  0
DICTIONARY
  5
4DD
330
C
100
AcDbDictionary
281
1
  0
DICTIONARY
  5
4DE
330
C
100
AcDbDictionary
281
1
  0
LAYOUT
  5
4DF
330
4D5
100
AcDbPlotSettings
  1

  2
DWFx ePlot (XPS Compatible).pc3
  4
ANSI_A_(8.50_x_11.00_Inches)
  6

 40
5.8
 41
17.8
 42
5.8
 43
17.8
 44
215.9
 45
279.4
 46
0.0
 47
0.0
 48
0.0
 49
0.0
140
0.0
141
0.0
142
1.0
143
14.53
 70
11952
 72
0
 73
1
 74
0
  7

 75
0
147
0.069
148
114.98
149
300.29
100
AcDbLayout
  1
Model
 70
1
 71
0
 10
0.0
 20
0.0
 11
12.0
 21
9.0
 12
0.0
 22
0.0
 32
0.0
 14
0.0
 24
0.0
 34
0.0
 15
0.0
 25
0.0
 35
0.0
146
0.0
 13
0.0
 23
0.0
 33
0.0
 16
1.0
 26
0.0
 36
0.0
 17
0.0
 27
1.0
 37
0.0
 76
0
330
1F
  0
LAYOUT
  5
4E0
330
4D5
100
AcDbPlotSettings
  1

  2
DWFx ePlot (XPS Compatible).pc3
  4
ANSI_A_(8.50_x_11.00_Inches)
  6

 40
5.8
 41
17.8
 42
5.8
 43
17.8
 44
215.9
 45
279.4
 46
0.0
 47
0.0
 48
0.0
 49
0.0
140
0.0
141
0.0
142
1.0
143
1.0
 70
688
 72
0
 73
1
 74
5
  7
acad.ctb
 75
16
147
1.0
148
0.0
149
0.0
100
AcDbLayout
  1
Layout1
 70
1
 71
1
 10
-0.7
 20
-0.23
 11
10.3
 21
8.27
 12
0.0
 22
0.0
 32
0.0
 14
0.63
 24
0.8
 34
0.0
 15
9.0
 25
7.2
 35
0.0
146
0.0
 13
0.0
 23
0.0
 33
0.0
 16
1.0
 26
0.0
 36
0.0
 17
0.0
 27
1.0
 37
0.0
 76
0
330
58
  0
ENDSEC
  0
EOF
